<svg width="24" height="24" viewBox="0 0 24 24" fill="none" xmlns="http://www.w3.org/2000/svg">
<rect width="24" height="24" rx="6" fill="#F9ECF0"/>
<path d="M12 15.6667C12.8334 15.6667 13.5417 15.375 14.125 14.7917C14.7084 14.2083 15 13.5 15 12.6667C15 11.8333 14.7084 11.125 14.125 10.5417C13.5417 9.95833 12.8334 9.66667 12 9.66667C11.1667 9.66667 10.4584 9.95833 9.87504 10.5417C9.29171 11.125 9.00004 11.8333 9.00004 12.6667C9.00004 13.5 9.29171 14.2083 9.87504 14.7917C10.4584 15.375 11.1667 15.6667 12 15.6667ZM12 14.3333C11.5334 14.3333 11.1389 14.1722 10.8167 13.85C10.4945 13.5278 10.3334 13.1333 10.3334 12.6667C10.3334 12.2 10.4945 11.8056 10.8167 11.4833C11.1389 11.1611 11.5334 11 12 11C12.4667 11 12.8612 11.1611 13.1834 11.4833C13.5056 11.8056 13.6667 12.2 13.6667 12.6667C13.6667 13.1333 13.5056 13.5278 13.1834 13.85C12.8612 14.1722 12.4667 14.3333 12 14.3333ZM6.66671 18C6.30004 18 5.98615 17.8694 5.72504 17.6083C5.46393 17.3472 5.33337 17.0333 5.33337 16.6667V8.66667C5.33337 8.3 5.46393 7.98611 5.72504 7.725C5.98615 7.46389 6.30004 7.33333 6.66671 7.33333H8.76671L10 6H14L15.2334 7.33333H17.3334C17.7 7.33333 18.0139 7.46389 18.275 7.725C18.5362 7.98611 18.6667 8.3 18.6667 8.66667V16.6667C18.6667 17.0333 18.5362 17.3472 18.275 17.6083C18.0139 17.8694 17.7 18 17.3334 18H6.66671ZM6.66671 16.6667H17.3334V8.66667H14.6334L13.4167 7.33333H10.5834L9.36671 8.66667H6.66671V16.6667Z" fill="#535353"/>
</svg>
