<svg width="112" height="21" viewBox="0 0 112 21" fill="none" xmlns="http://www.w3.org/2000/svg">
<path d="M11.0156 3.20312L10.5371 2.70508C10.3743 2.56185 10.2214 2.44466 10.0781 2.35352C9.94141 2.26237 9.80469 2.19076 9.66797 2.13867C9.53125 2.08008 9.39128 2.04102 9.24805 2.02148C9.11133 2.00195 8.95833 1.99219 8.78906 1.99219C8.73047 1.99219 8.69466 1.9987 8.68164 2.01172C8.50586 2.01172 8.36589 2.01172 8.26172 2.01172C8.16406 2.01172 8.08919 2.01172 8.03711 2.01172C7.98503 2.01172 7.94922 2.01497 7.92969 2.02148C7.91667 2.02148 7.91016 2.02148 7.91016 2.02148H7.1582C7.04753 2.05404 6.93359 2.07357 6.81641 2.08008C6.69922 2.08659 6.58529 2.08984 6.47461 2.08984C6.22721 2.08984 6.03841 2.0931 5.9082 2.09961C5.78451 2.10612 5.68359 2.13216 5.60547 2.17773C5.53385 2.20378 5.49154 2.23958 5.47852 2.28516C5.46549 2.32422 5.45898 2.36003 5.45898 2.39258C5.45898 2.5293 5.43945 2.63021 5.40039 2.69531C5.36784 2.75391 5.29622 2.81901 5.18555 2.89062C5.16602 2.90365 5.14974 2.9362 5.13672 2.98828C5.13021 3.04036 5.12044 3.09896 5.10742 3.16406C5.10091 3.22917 5.0944 3.29427 5.08789 3.35938C5.08789 3.42448 5.08789 3.47656 5.08789 3.51562C5.08789 3.66536 5.11068 3.80859 5.15625 3.94531C5.20182 4.08203 5.22461 4.23503 5.22461 4.4043L5.13672 5.01953C5.13672 5.16927 5.16927 5.31901 5.23438 5.46875C5.30599 5.61849 5.3418 5.78125 5.3418 5.95703L5.18555 7.41211C5.18555 7.4707 5.21159 7.53906 5.26367 7.61719C5.31576 7.6888 5.35807 7.74414 5.39062 7.7832C5.59245 7.80924 5.79753 7.84831 6.00586 7.90039C6.21419 7.94596 6.41927 7.96875 6.62109 7.96875C6.66667 7.96875 6.70573 7.96549 6.73828 7.95898C6.77734 7.94596 6.81315 7.90365 6.8457 7.83203C6.91732 7.82552 7.00195 7.81901 7.09961 7.8125C7.20378 7.80599 7.32096 7.80273 7.45117 7.80273C7.62695 7.80273 7.81576 7.80273 8.01758 7.80273C8.2194 7.79622 8.41797 7.78646 8.61328 7.77344C8.80859 7.75391 8.98763 7.72786 9.15039 7.69531C9.31315 7.65625 9.4401 7.60091 9.53125 7.5293C9.6224 7.4707 9.69076 7.38607 9.73633 7.27539C9.78841 7.16471 9.82747 7.04753 9.85352 6.92383C9.87956 6.79362 9.90234 6.66341 9.92188 6.5332C9.94141 6.40299 9.96745 6.28581 10 6.18164C10.0391 6.07096 10.0911 5.98307 10.1562 5.91797C10.2279 5.84635 10.3288 5.81055 10.459 5.81055C10.498 5.81055 10.5339 5.81706 10.5664 5.83008C10.6055 5.8431 10.6413 5.88542 10.6738 5.95703V6.36719C10.6738 6.67969 10.6413 6.97917 10.5762 7.26562C10.5436 7.49349 10.5111 7.70182 10.4785 7.89062C10.4525 8.07292 10.4395 8.25846 10.4395 8.44727C10.4395 8.61003 10.4622 8.76953 10.5078 8.92578C10.5599 9.07552 10.612 9.22526 10.6641 9.375C10.7227 9.51823 10.7747 9.66471 10.8203 9.81445C10.8724 9.96419 10.8984 10.1172 10.8984 10.2734C10.8984 10.3711 10.8952 10.446 10.8887 10.498C10.8887 10.5436 10.8757 10.5729 10.8496 10.5859C10.8171 10.638 10.7943 10.6771 10.7812 10.7031C10.7682 10.7292 10.7324 10.7422 10.6738 10.7422C10.5762 10.7422 10.5013 10.7064 10.4492 10.6348C10.4036 10.5632 10.3451 10.4915 10.2734 10.4199L10.1367 10.1172C10.0651 9.96094 9.99674 9.8112 9.93164 9.66797C9.86654 9.52474 9.78841 9.39128 9.69727 9.26758C9.61263 9.13737 9.51172 9.01693 9.39453 8.90625C9.28385 8.78906 9.14714 8.6849 8.98438 8.59375H8.54492C8.31706 8.59375 8.08268 8.59049 7.8418 8.58398C7.60091 8.57096 7.39258 8.54818 7.2168 8.51562L6.62109 8.4082C6.45182 8.4082 6.26628 8.4375 6.06445 8.49609C5.86914 8.55469 5.68359 8.58724 5.50781 8.59375C5.44922 8.66536 5.38086 8.75651 5.30273 8.86719C5.22461 8.97135 5.18555 9.08529 5.18555 9.20898C5.28971 9.69076 5.3776 10.166 5.44922 10.6348C5.52083 11.097 5.55664 11.5625 5.55664 12.0312C5.55664 12.2526 5.55013 12.4023 5.53711 12.4805C5.5306 12.5521 5.52083 12.6107 5.50781 12.6562C5.5599 12.8125 5.63151 12.9525 5.72266 13.0762C5.82031 13.1934 5.93099 13.3008 6.05469 13.3984C6.17839 13.4896 6.30859 13.5742 6.44531 13.6523C6.58203 13.7305 6.71549 13.8021 6.8457 13.8672C6.85221 13.8672 6.87174 13.8867 6.9043 13.9258C6.94336 13.9648 6.96289 13.9909 6.96289 14.0039C6.98893 14.0169 7.04753 14.0299 7.13867 14.043C7.22982 14.0495 7.28841 14.0527 7.31445 14.0527C7.36654 14.0527 7.40885 14.0527 7.44141 14.0527C7.48047 14.0527 7.52279 14.0462 7.56836 14.0332C7.62044 14.0267 7.66276 14.0234 7.69531 14.0234C7.73438 14.0234 7.77669 14.0234 7.82227 14.0234C7.86784 14.0234 7.91667 14.0234 7.96875 14.0234C8.02083 14.0234 8.06641 14.0267 8.10547 14.0332C8.15104 14.0462 8.19336 14.0527 8.23242 14.0527C8.27799 14.0527 8.32031 14.0527 8.35938 14.0527C8.39193 14.0853 8.43099 14.1178 8.47656 14.1504C8.52865 14.1829 8.57422 14.222 8.61328 14.2676C8.65885 14.3132 8.69466 14.362 8.7207 14.4141C8.75326 14.4661 8.76953 14.5247 8.76953 14.5898C8.76953 14.6615 8.75326 14.7363 8.7207 14.8145C8.68815 14.8861 8.64258 14.9544 8.58398 15.0195C8.5319 15.0911 8.47331 15.1465 8.4082 15.1855C8.3431 15.2311 8.27799 15.2539 8.21289 15.2539H8.19336C8.12174 15.2669 8.04036 15.2734 7.94922 15.2734C7.86458 15.2799 7.78971 15.2832 7.72461 15.2832C7.63346 15.2832 7.54557 15.2799 7.46094 15.2734C7.38281 15.2734 7.27865 15.2669 7.14844 15.2539L6.96289 15.2051C6.85221 15.1465 6.72852 15.0944 6.5918 15.0488C6.45508 15.0033 6.31185 14.9642 6.16211 14.9316C6.01888 14.8991 5.8724 14.8763 5.72266 14.8633C5.57943 14.8438 5.44596 14.834 5.32227 14.834C5.18555 14.834 5.06836 14.8405 4.9707 14.8535C4.87305 14.86 4.74284 14.8861 4.58008 14.9316C4.43034 14.9577 4.27409 14.9772 4.11133 14.9902C3.95508 14.9967 3.80208 15 3.65234 15C3.48307 15 3.32357 14.9967 3.17383 14.9902C3.0306 14.9772 2.87435 14.9577 2.70508 14.9316C2.62695 14.9577 2.55208 15 2.48047 15.0586C2.41536 15.1172 2.32747 15.1595 2.2168 15.1855C2.17122 15.1725 2.12891 15.1595 2.08984 15.1465C2.05729 15.14 2.01823 15.1367 1.97266 15.1367C1.9401 15.1497 1.89128 15.1562 1.82617 15.1562H1.45508C1.30534 15.1042 1.18164 15.0521 1.08398 15C0.992839 14.9479 0.924479 14.847 0.878906 14.6973C0.878906 14.4889 0.986328 14.3132 1.20117 14.1699C1.35742 14.1569 1.55924 14.1146 1.80664 14.043C2.06055 13.9714 2.30469 13.877 2.53906 13.7598C2.77344 13.6426 2.97526 13.5026 3.14453 13.3398C3.32031 13.1771 3.4082 12.998 3.4082 12.8027C3.4082 12.4577 3.39844 12.1615 3.37891 11.9141C3.36589 11.6602 3.34635 11.416 3.32031 11.1816C3.30078 10.9473 3.28125 10.7031 3.26172 10.4492C3.2487 10.1888 3.24219 9.8763 3.24219 9.51172C3.24219 9.40104 3.25195 9.29362 3.27148 9.18945C3.29753 9.07878 3.32031 8.97135 3.33984 8.86719C3.36589 8.75651 3.38867 8.64909 3.4082 8.54492C3.43424 8.43424 3.44727 8.32357 3.44727 8.21289C3.44727 8.19336 3.44401 8.16732 3.4375 8.13477C3.4375 8.10221 3.4375 8.06966 3.4375 8.03711C3.4375 7.99805 3.43424 7.96549 3.42773 7.93945C3.42773 7.9069 3.42773 7.89062 3.42773 7.89062L3.31055 7.46094V6.70898C3.31055 6.59831 3.29753 6.48763 3.27148 6.37695C3.24544 6.26628 3.21615 6.1556 3.18359 6.04492C3.15755 5.93424 3.13151 5.82682 3.10547 5.72266C3.08594 5.61198 3.07617 5.50456 3.07617 5.40039C3.07617 5.37435 3.07943 5.33203 3.08594 5.27344C3.09896 5.20833 3.11198 5.16276 3.125 5.13672C3.15104 5.00651 3.17057 4.8763 3.18359 4.74609C3.20312 4.60938 3.21289 4.47266 3.21289 4.33594C3.21289 4.20573 3.20638 4.07878 3.19336 3.95508C3.18034 3.82487 3.15755 3.69466 3.125 3.56445C3.125 3.44727 3.0957 3.33333 3.03711 3.22266C2.98503 3.10547 2.91341 2.99479 2.82227 2.89062C2.73763 2.78646 2.64323 2.69531 2.53906 2.61719C2.4349 2.53255 2.33724 2.4707 2.24609 2.43164C2.12891 2.38607 1.9694 2.35677 1.76758 2.34375C1.56576 2.33073 1.36393 2.30794 1.16211 2.27539C0.960286 2.23633 0.784505 2.17448 0.634766 2.08984C0.491536 1.9987 0.419922 1.85221 0.419922 1.65039V1.50391C0.524089 1.44531 0.651042 1.38672 0.800781 1.32812C0.957031 1.26302 1.09049 1.23047 1.20117 1.23047H1.43555C1.52669 1.23047 1.61458 1.24023 1.69922 1.25977C1.79036 1.2793 1.86523 1.32487 1.92383 1.39648C2.03451 1.41602 2.14518 1.43229 2.25586 1.44531C2.36654 1.45833 2.47721 1.46484 2.58789 1.46484C2.68555 1.46484 2.79297 1.45833 2.91016 1.44531C3.02734 1.43229 3.14453 1.41602 3.26172 1.39648C3.29427 1.3444 3.31706 1.3151 3.33008 1.30859C3.34961 1.30208 3.38216 1.29883 3.42773 1.29883C3.56445 1.29883 3.69792 1.32487 3.82812 1.37695C3.95833 1.42904 4.10807 1.45508 4.27734 1.45508H4.49219C4.5638 1.45508 4.63867 1.45508 4.7168 1.45508C4.79492 1.44857 4.87956 1.42904 4.9707 1.39648C5.20508 1.43555 5.46224 1.45508 5.74219 1.45508C6.0026 1.45508 6.26628 1.43555 6.5332 1.39648C6.77409 1.31185 7.02799 1.26953 7.29492 1.26953C7.56836 1.26953 7.85156 1.25651 8.14453 1.23047C8.29427 1.21745 8.43424 1.20768 8.56445 1.20117C8.70117 1.18815 8.83789 1.18164 8.97461 1.18164C9.07227 1.18164 9.17318 1.18815 9.27734 1.20117C9.38151 1.20768 9.48893 1.21745 9.59961 1.23047C9.62565 1.24349 9.6582 1.26628 9.69727 1.29883C9.74284 1.32487 9.78516 1.35417 9.82422 1.38672C9.86979 1.41927 9.91211 1.44857 9.95117 1.47461C9.99023 1.49414 10.0195 1.50391 10.0391 1.50391C10.0977 1.50391 10.1465 1.49414 10.1855 1.47461C10.2311 1.45508 10.2865 1.42904 10.3516 1.39648C10.4557 1.37044 10.5632 1.35417 10.6738 1.34766C10.7845 1.33464 10.8984 1.32812 11.0156 1.32812C11.2174 1.32812 11.4193 1.35091 11.6211 1.39648C11.6341 1.39648 11.6634 1.41927 11.709 1.46484C11.7611 1.50391 11.8132 1.54948 11.8652 1.60156C11.9238 1.64714 11.9759 1.69271 12.0215 1.73828C12.0671 1.77734 12.0931 1.80013 12.0996 1.80664V3.20312C12.2298 3.52214 12.2949 3.8444 12.2949 4.16992C12.2949 4.24805 12.2917 4.32943 12.2852 4.41406C12.2852 4.49219 12.2721 4.56706 12.2461 4.63867C12.2266 4.71029 12.1908 4.76888 12.1387 4.81445C12.0866 4.86003 12.015 4.88281 11.9238 4.88281C11.8848 4.83724 11.8392 4.7819 11.7871 4.7168C11.735 4.65169 11.6797 4.58659 11.6211 4.52148C11.569 4.44987 11.5169 4.38151 11.4648 4.31641C11.4193 4.2513 11.3802 4.19271 11.3477 4.14062C11.3477 4.1276 11.3346 4.0918 11.3086 4.0332C11.2826 3.9681 11.2533 3.90299 11.2207 3.83789C11.1882 3.76628 11.1556 3.70117 11.123 3.64258C11.097 3.57747 11.0775 3.53516 11.0645 3.51562C11.0514 3.5026 11.0384 3.45052 11.0254 3.35938C11.0189 3.26823 11.0156 3.21615 11.0156 3.20312ZM13.252 15.0684C13.2324 15.0684 13.2096 15.0684 13.1836 15.0684C13.1576 15.0684 13.1283 15.0618 13.0957 15.0488H12.8906L12.7734 14.9512V14.4922L12.998 14.1406C13.0566 14.1146 13.125 14.1016 13.2031 14.1016C13.2812 14.0951 13.3236 14.0918 13.3301 14.0918C13.3561 14.0918 13.4147 14.0885 13.5059 14.082C13.6035 14.069 13.6816 14.0495 13.7402 14.0234C13.89 14.056 13.9974 14.0723 14.0625 14.0723C14.1406 14.0137 14.2155 13.9355 14.2871 13.8379C14.3587 13.7402 14.4206 13.6328 14.4727 13.5156C14.5312 13.3984 14.5736 13.2812 14.5996 13.1641C14.6322 13.0469 14.6484 12.9395 14.6484 12.8418V11.7578C14.6484 11.5299 14.6484 11.3086 14.6484 11.0938C14.6549 10.8724 14.668 10.7161 14.6875 10.625C14.668 10.4492 14.6549 10.2767 14.6484 10.1074C14.6419 9.93164 14.6322 9.75586 14.6191 9.58008L14.5508 8.56445C14.5312 8.25846 14.515 7.95247 14.502 7.64648C14.4889 7.34049 14.4824 7.03125 14.4824 6.71875C14.4824 6.6862 14.4857 6.66341 14.4922 6.65039C14.4987 6.63086 14.528 6.60482 14.5801 6.57227C14.554 6.4681 14.5378 6.3737 14.5312 6.28906C14.5312 6.20443 14.5312 6.11328 14.5312 6.01562C14.5312 5.92448 14.5312 5.83333 14.5312 5.74219C14.5378 5.64453 14.554 5.54362 14.5801 5.43945C14.528 5.4069 14.4857 5.35807 14.4531 5.29297C14.4271 5.22786 14.4141 5.13997 14.4141 5.0293C14.4141 4.94466 14.4401 4.8763 14.4922 4.82422C14.5443 4.77214 14.5703 4.69401 14.5703 4.58984C14.5703 4.44661 14.5671 4.29362 14.5605 4.13086C14.554 3.9681 14.528 3.80208 14.4824 3.63281C14.4368 3.40495 14.4141 3.22266 14.4141 3.08594C14.4141 2.94922 14.4076 2.80273 14.3945 2.64648C14.3555 2.58789 14.2871 2.5293 14.1895 2.4707C14.0983 2.41211 13.9974 2.35352 13.8867 2.29492C13.7826 2.22982 13.6816 2.16471 13.584 2.09961C13.4863 2.02799 13.418 1.95312 13.3789 1.875C13.3268 1.77083 13.291 1.70898 13.2715 1.68945C13.2585 1.66341 13.2454 1.63411 13.2324 1.60156C13.2324 1.55599 13.2454 1.49089 13.2715 1.40625C13.2975 1.3151 13.3464 1.26302 13.418 1.25C13.5547 1.21745 13.6947 1.17839 13.8379 1.13281C13.9811 1.08724 14.0885 1.05794 14.1602 1.04492C14.1732 1.04492 14.2057 1.03516 14.2578 1.01562C14.3164 0.989583 14.375 0.963542 14.4336 0.9375C14.4987 0.904948 14.5573 0.875651 14.6094 0.849609C14.668 0.817057 14.7038 0.791016 14.7168 0.771484C14.8405 0.738932 14.9544 0.703125 15.0586 0.664062C15.1693 0.625 15.2767 0.589193 15.3809 0.556641C15.485 0.524089 15.5924 0.494792 15.7031 0.46875C15.8203 0.442708 15.944 0.426432 16.0742 0.419922C16.1393 0.419922 16.1947 0.423177 16.2402 0.429688C16.2858 0.436198 16.3086 0.46224 16.3086 0.507812C16.3346 0.677083 16.3509 0.843099 16.3574 1.00586C16.3704 1.16211 16.377 1.3151 16.377 1.46484C16.377 1.61458 16.3704 1.76758 16.3574 1.92383C16.3509 2.07357 16.3346 2.22005 16.3086 2.36328C16.2565 2.5 16.224 2.64648 16.2109 2.80273C16.1979 2.95898 16.1914 3.11523 16.1914 3.27148L16.2012 3.7793L16.1719 4.45312C16.1979 4.50521 16.2142 4.55729 16.2207 4.60938C16.2337 4.66146 16.2402 4.72982 16.2402 4.81445C16.2402 4.94466 16.237 5.03906 16.2305 5.09766C16.2305 5.15625 16.2207 5.20182 16.2012 5.23438L16.2695 5.85938C16.2435 5.96354 16.2012 6.07096 16.1426 6.18164C16.084 6.28581 16.0384 6.40299 16.0059 6.5332C16.0059 6.60482 16.0221 6.66992 16.0547 6.72852C16.0872 6.7806 16.11 6.85221 16.123 6.94336C16.1491 7.19727 16.1621 7.44141 16.1621 7.67578C16.1686 7.91016 16.1784 8.1543 16.1914 8.4082C16.1589 8.55794 16.1198 8.69141 16.0742 8.80859C16.0352 8.91927 16.0156 9.0332 16.0156 9.15039V9.30664C16.0221 9.44336 16.0319 9.57031 16.0449 9.6875C16.0579 9.79818 16.071 9.90885 16.084 10.0195C16.1035 10.1302 16.1198 10.2474 16.1328 10.3711C16.1458 10.4883 16.1589 10.625 16.1719 10.7812C16.1719 10.9505 16.1621 11.097 16.1426 11.2207C16.1296 11.3444 16.1165 11.4941 16.1035 11.6699C16.097 11.709 16.0872 11.7643 16.0742 11.8359C16.0677 11.9076 16.0579 11.9824 16.0449 12.0605C16.0384 12.1322 16.0319 12.2005 16.0254 12.2656C16.0189 12.3307 16.0156 12.3763 16.0156 12.4023V12.4121C16.0221 12.4447 16.0352 12.5098 16.0547 12.6074C16.0742 12.7051 16.0938 12.806 16.1133 12.9102C16.1328 13.0143 16.1523 13.112 16.1719 13.2031C16.1914 13.2943 16.2012 13.3529 16.2012 13.3789L16.2695 13.5254H16.2891C16.3086 13.5254 16.3216 13.5352 16.3281 13.5547C16.3346 13.5742 16.3444 13.5872 16.3574 13.5938C16.3835 13.6198 16.3997 13.6491 16.4062 13.6816C16.4128 13.7077 16.4258 13.737 16.4453 13.7695C16.4714 13.7956 16.5072 13.8249 16.5527 13.8574C16.6048 13.8835 16.6862 13.9095 16.7969 13.9355C16.9206 14.0137 17.015 14.0527 17.0801 14.0527C17.0996 14.0527 17.1159 14.0527 17.1289 14.0527C17.1419 14.0527 17.1647 14.0462 17.1973 14.0332C17.2493 14.0462 17.3112 14.056 17.3828 14.0625C17.4544 14.069 17.5293 14.082 17.6074 14.1016C17.6855 14.1146 17.7637 14.1374 17.8418 14.1699C17.9199 14.2025 17.9883 14.248 18.0469 14.3066C18.0794 14.3327 18.099 14.3685 18.1055 14.4141C18.112 14.4531 18.1152 14.5085 18.1152 14.5801V14.9121C18.1152 14.9577 18.1087 15 18.0957 15.0391C18.0827 15.0781 18.0566 15.1042 18.0176 15.1172C17.9655 15.1042 17.9102 15.0977 17.8516 15.0977C17.7995 15.0977 17.7474 15.0977 17.6953 15.0977C17.6497 15.0977 17.6009 15.0944 17.5488 15.0879C17.4967 15.0879 17.4316 15.0814 17.3535 15.0684L17.0508 15.0293C17.0378 15.0293 17.0085 15.026 16.9629 15.0195C16.9238 15.0195 16.8783 15.0163 16.8262 15.0098C16.7806 15.0098 16.735 15.0065 16.6895 15C16.6504 15 16.6243 15 16.6113 15L16.1328 14.9707C16.1263 14.9707 16.1198 14.9674 16.1133 14.9609C16.1068 14.9609 16.1003 14.9609 16.0938 14.9609C16.0938 14.9544 16.0905 14.9512 16.084 14.9512C15.9408 14.9577 15.8105 14.9674 15.6934 14.9805C15.5827 14.9935 15.4753 15.0065 15.3711 15.0195C15.2734 15.0391 15.1725 15.0553 15.0684 15.0684C14.9707 15.0879 14.86 15.0977 14.7363 15.0977C14.5866 15.0846 14.4238 15.0684 14.248 15.0488C14.0788 15.0293 13.9193 15.0195 13.7695 15.0195L13.252 15.0684ZM18.7988 9.83398C18.89 9.48893 19.0039 9.16016 19.1406 8.84766C19.2773 8.52865 19.4336 8.20312 19.6094 7.87109L19.8828 7.54883L20 7.34375C20.0195 7.3112 20.0423 7.2819 20.0684 7.25586C20.0879 7.22982 20.1074 7.20703 20.127 7.1875C20.1465 7.16146 20.166 7.14193 20.1855 7.12891L20.7617 6.71875C20.7943 6.67969 20.8301 6.65365 20.8691 6.64062C20.9082 6.62109 20.944 6.60807 20.9766 6.60156C21.0156 6.58854 21.0547 6.57878 21.0938 6.57227C21.1328 6.55924 21.1686 6.53646 21.2012 6.50391L21.3867 6.31836L21.543 6.25H21.6895L22.2168 6.04492C22.2428 6.0319 22.2786 6.01888 22.3242 6.00586C22.3763 5.99284 22.4284 5.97982 22.4805 5.9668C22.5326 5.95378 22.5814 5.94401 22.627 5.9375C22.6725 5.93099 22.7051 5.92773 22.7246 5.92773H23.7207C23.7793 5.90169 23.8281 5.88867 23.8672 5.88867C23.9128 5.88216 23.9486 5.87891 23.9746 5.87891C24.1634 5.87891 24.3522 5.91146 24.541 5.97656C24.7298 6.03516 24.9186 6.09049 25.1074 6.14258H25.4785C25.4915 6.14258 25.5111 6.1556 25.5371 6.18164C25.5632 6.20117 25.5924 6.22721 25.625 6.25977L25.7324 6.36719C25.8952 6.45833 26.0547 6.54948 26.2109 6.64062C26.3672 6.72526 26.5234 6.81966 26.6797 6.92383C26.8099 7.02799 26.9108 7.14518 26.9824 7.27539C27.0605 7.39909 27.1484 7.52279 27.2461 7.64648C27.2591 7.65951 27.2819 7.69206 27.3145 7.74414C27.3535 7.78971 27.3926 7.8418 27.4316 7.90039C27.4707 7.95898 27.5065 8.01758 27.5391 8.07617C27.5781 8.13477 27.6042 8.18034 27.6172 8.21289L27.6758 8.33008L28.0566 9.58008C28.0762 9.61914 28.0924 9.66471 28.1055 9.7168C28.1185 9.76888 28.1315 9.82096 28.1445 9.87305C28.1576 9.91862 28.1673 9.96419 28.1738 10.0098C28.1803 10.0488 28.1836 10.0749 28.1836 10.0879V10.4004L28.125 10.6445V11.3477L27.6172 12.8418C27.487 13.0176 27.3503 13.1999 27.207 13.3887C27.0638 13.571 26.9206 13.7435 26.7773 13.9062C26.7773 13.9128 26.7643 13.929 26.7383 13.9551C26.6992 14.0072 26.6536 14.0625 26.6016 14.1211C26.5495 14.1797 26.4909 14.235 26.4258 14.2871C26.4128 14.3001 26.3737 14.3099 26.3086 14.3164C26.25 14.3229 26.1849 14.3424 26.1133 14.375L25.5273 14.7168C25.5143 14.7168 25.485 14.7233 25.4395 14.7363C25.4004 14.7428 25.3548 14.7526 25.3027 14.7656C25.2572 14.7721 25.2116 14.7786 25.166 14.7852C25.1204 14.7917 25.0879 14.7949 25.0684 14.7949C24.9512 14.821 24.8535 14.8568 24.7754 14.9023C24.7038 14.9479 24.5996 14.9707 24.4629 14.9707L23.4668 15C23.4408 15 23.3854 15 23.3008 15C23.2161 14.9935 23.125 14.9902 23.0273 14.9902C22.9297 14.9837 22.8353 14.9805 22.7441 14.9805C22.653 14.974 22.5846 14.9707 22.5391 14.9707L22.2656 14.9121L21.6406 14.8633L21.543 14.8145L20.5762 14.1406L20.3418 14.0332C20.2246 13.9681 20.127 13.8737 20.0488 13.75C19.9707 13.6198 19.8926 13.4961 19.8145 13.3789C19.7428 13.2487 19.668 13.1315 19.5898 13.0273C19.5182 12.9232 19.4466 12.8255 19.375 12.7344C19.3164 12.6302 19.2513 12.5293 19.1797 12.4316C19.1146 12.334 19.0527 12.2331 18.9941 12.1289C18.9421 12.0247 18.8965 11.9206 18.8574 11.8164C18.8184 11.7057 18.7988 11.5853 18.7988 11.4551L18.7207 10.6934L18.7988 9.83398ZM20.8105 11.2109C20.8626 11.2695 20.8984 11.3216 20.918 11.3672C20.944 11.4128 20.9603 11.4551 20.9668 11.4941C20.9798 11.5332 20.9863 11.5755 20.9863 11.6211C20.9928 11.6667 21.0026 11.722 21.0156 11.7871C21.0677 12.002 21.1523 12.2266 21.2695 12.4609C21.3867 12.6953 21.5104 12.8939 21.6406 13.0566L22.0117 13.4082C22.1419 13.571 22.2656 13.7337 22.3828 13.8965C22.5 14.0527 22.6465 14.1667 22.8223 14.2383H23.2129C23.3561 14.2383 23.5091 14.222 23.6719 14.1895C23.8346 14.1504 23.9974 14.1178 24.1602 14.0918C24.2513 14.0918 24.3327 14.0885 24.4043 14.082C24.4759 14.069 24.5638 14.0299 24.668 13.9648L24.7852 13.8379C25.0977 13.6686 25.3678 13.4603 25.5957 13.2129L26.2695 12.1484L26.2402 11.1328C26.2728 11.0807 26.2923 11.0319 26.2988 10.9863C26.3053 10.9408 26.3086 10.8724 26.3086 10.7812C26.3086 10.6706 26.2826 10.5697 26.2305 10.4785C26.1784 10.3874 26.1523 10.2767 26.1523 10.1465L26.2402 9.77539C26.2207 9.69727 26.2012 9.60612 26.1816 9.50195C26.1621 9.39779 26.1393 9.29362 26.1133 9.18945C26.0938 9.07878 26.0677 8.97786 26.0352 8.88672C26.0091 8.78906 25.9733 8.71094 25.9277 8.65234L25.4297 8.07617C25.4102 8.06315 25.3841 8.03385 25.3516 7.98828C25.3255 7.94271 25.2962 7.89062 25.2637 7.83203C25.2376 7.77344 25.2116 7.7181 25.1855 7.66602C25.166 7.61393 25.1562 7.57487 25.1562 7.54883L24.8633 7.34375C24.7461 7.21354 24.6289 7.10286 24.5117 7.01172C24.3945 6.91406 24.2546 6.85221 24.0918 6.82617L23.6133 6.76758C23.444 6.74154 23.2943 6.71224 23.1641 6.67969C23.0339 6.64062 22.8874 6.62109 22.7246 6.62109H22.6562L22.0605 6.97266L21.1133 8.07617C21.0872 8.14779 21.0645 8.21289 21.0449 8.27148C21.0254 8.33008 21.0156 8.38867 21.0156 8.44727L20.9668 8.75L20.8105 9.15039V9.4043C20.8105 9.49544 20.8236 9.58008 20.8496 9.6582C20.8822 9.73633 20.8984 9.82747 20.8984 9.93164C20.8984 9.98372 20.8952 10.026 20.8887 10.0586C20.8822 10.0846 20.8561 10.1139 20.8105 10.1465V11.2109ZM32.1289 13.5449C31.9857 13.3301 31.888 13.125 31.8359 12.9297C31.7839 12.7279 31.7415 12.5293 31.709 12.334C31.6764 12.1387 31.6309 11.9466 31.5723 11.7578C31.5202 11.5625 31.416 11.3639 31.2598 11.1621L31.0645 10.3418V9.96094C31.0645 9.96094 31.0547 9.94466 31.0352 9.91211C31.0156 9.87305 30.9896 9.83073 30.957 9.78516C30.931 9.73307 30.9049 9.68424 30.8789 9.63867C30.8529 9.5931 30.8333 9.56055 30.8203 9.54102L30.625 9.28711V8.7793C30.625 8.75977 30.612 8.73047 30.5859 8.69141C30.5664 8.64583 30.5404 8.60026 30.5078 8.55469C30.4818 8.5026 30.4557 8.45703 30.4297 8.41797C30.4036 8.37891 30.3874 8.35286 30.3809 8.33984C30.2897 8.18359 30.2181 8.00781 30.166 7.8125C30.1139 7.61068 30.0521 7.42839 29.9805 7.26562C29.9414 7.18099 29.9056 7.11914 29.873 7.08008C29.8405 7.03451 29.7949 7.00195 29.7363 6.98242C29.6842 6.95638 29.6126 6.9401 29.5215 6.93359C29.4368 6.92057 29.3197 6.90104 29.1699 6.875C29.0658 6.85547 28.9779 6.82617 28.9062 6.78711C28.8346 6.74154 28.7988 6.67318 28.7988 6.58203C28.7988 6.45182 28.8249 6.33789 28.877 6.24023C28.9355 6.14258 28.9941 6.04818 29.0527 5.95703L29.5605 5.85938H29.7559C29.9447 5.93099 30.1432 5.98633 30.3516 6.02539C30.5599 6.06445 30.7617 6.08398 30.957 6.08398C31.1198 6.08398 31.263 6.0612 31.3867 6.01562C31.5169 5.97005 31.6569 5.94727 31.8066 5.94727C31.8262 5.94727 31.8587 5.95052 31.9043 5.95703C31.9564 5.95703 32.0117 5.96029 32.0703 5.9668C32.1289 5.97331 32.181 5.97982 32.2266 5.98633C32.2721 5.98633 32.3014 5.98958 32.3145 5.99609C32.347 6.02214 32.3828 6.04492 32.4219 6.06445C32.4674 6.07747 32.5098 6.09701 32.5488 6.12305C32.5879 6.14258 32.6204 6.16862 32.6465 6.20117C32.6725 6.22721 32.6855 6.26628 32.6855 6.31836C32.6855 6.38997 32.6693 6.47786 32.6367 6.58203C32.6042 6.67969 32.5586 6.77083 32.5 6.85547C32.4544 6.90755 32.3796 6.95964 32.2754 7.01172C32.1712 7.05729 32.1029 7.10612 32.0703 7.1582V7.36328L32.0898 7.48047C32.0964 7.55859 32.1094 7.64974 32.1289 7.75391C32.1484 7.85807 32.168 7.96549 32.1875 8.07617C32.207 8.18034 32.2266 8.27799 32.2461 8.36914C32.2721 8.46029 32.2949 8.52539 32.3145 8.56445L32.5098 8.7793C32.5684 8.90299 32.6139 9.03646 32.6465 9.17969C32.6855 9.31641 32.7148 9.45638 32.7344 9.59961C32.7604 9.73633 32.7832 9.8763 32.8027 10.0195C32.8223 10.1628 32.8483 10.2962 32.8809 10.4199L33.2031 10.9961C33.2227 11.0417 33.2389 11.1068 33.252 11.1914C33.265 11.276 33.2812 11.3607 33.3008 11.4453C33.3268 11.5234 33.3594 11.5918 33.3984 11.6504C33.4375 11.709 33.4928 11.7383 33.5645 11.7383C33.6426 11.7383 33.7077 11.709 33.7598 11.6504C33.8184 11.5918 33.8672 11.5234 33.9062 11.4453C33.9518 11.3672 33.9876 11.2891 34.0137 11.2109C34.0462 11.1328 34.0755 11.0775 34.1016 11.0449C34.1016 11.0319 34.1276 10.9993 34.1797 10.9473C34.2318 10.8887 34.2676 10.8529 34.2871 10.8398C34.3717 10.7357 34.4303 10.6152 34.4629 10.4785C34.4954 10.3353 34.528 10.1953 34.5605 10.0586C34.5931 9.91536 34.6354 9.77865 34.6875 9.64844C34.7461 9.51823 34.8438 9.41406 34.9805 9.33594L35 8.93555C35 8.90951 34.9967 8.8737 34.9902 8.82812C34.9902 8.77604 34.9902 8.73047 34.9902 8.69141C34.9902 8.64583 34.987 8.60677 34.9805 8.57422C34.9805 8.53516 34.9805 8.51562 34.9805 8.51562L34.8438 8.21289C34.8177 8.14128 34.8014 8.06641 34.7949 7.98828C34.7949 7.91016 34.7884 7.82552 34.7754 7.73438C34.7624 7.66276 34.7526 7.5944 34.7461 7.5293C34.7396 7.45768 34.7266 7.38607 34.707 7.31445C34.6549 7.19076 34.5801 7.11589 34.4824 7.08984C34.3848 7.05729 34.2839 7.02799 34.1797 7.00195C34.0755 6.97591 33.9746 6.93685 33.877 6.88477C33.7793 6.82617 33.7012 6.70898 33.6426 6.5332V6.43555C33.6426 6.37695 33.6491 6.31185 33.6621 6.24023C33.6751 6.16211 33.6979 6.11328 33.7305 6.09375C33.8021 6.05469 33.903 6.0319 34.0332 6.02539C34.1634 6.01888 34.2871 6.01562 34.4043 6.01562H34.7266C34.7331 6.01562 34.7591 6.02214 34.8047 6.03516C34.8503 6.04818 34.9023 6.0612 34.9609 6.07422C35.026 6.08724 35.0911 6.10026 35.1562 6.11328C35.2214 6.1263 35.2734 6.13281 35.3125 6.13281L36.0938 5.94727L36.9434 6.08398C37.0085 6.08398 37.0703 6.07422 37.1289 6.05469C37.1875 6.02865 37.2526 6.01562 37.3242 6.01562C37.4935 6.01562 37.6237 6.04818 37.7148 6.11328C37.806 6.17839 37.8516 6.29557 37.8516 6.46484C37.8516 6.64062 37.7962 6.76107 37.6855 6.82617C37.5749 6.89128 37.4414 6.93685 37.2852 6.96289C37.1354 6.98242 36.9824 7.00195 36.8262 7.02148C36.6699 7.03451 36.5495 7.08008 36.4648 7.1582V7.29492C36.4648 7.36654 36.4746 7.42513 36.4941 7.4707C36.5202 7.50977 36.5462 7.54883 36.5723 7.58789C36.6048 7.62695 36.6341 7.66927 36.6602 7.71484C36.6862 7.75391 36.7057 7.8125 36.7188 7.89062V8.51562C36.7253 8.54167 36.7513 8.63607 36.7969 8.79883C36.8424 8.95508 36.8945 9.14388 36.9531 9.36523C37.0182 9.58659 37.0866 9.82422 37.1582 10.0781C37.2363 10.3255 37.3047 10.5566 37.3633 10.7715C37.4284 10.9863 37.4805 11.1654 37.5195 11.3086C37.5651 11.4518 37.5911 11.5267 37.5977 11.5332C37.6432 11.5788 37.6758 11.6048 37.6953 11.6113C37.7148 11.6178 37.7376 11.6211 37.7637 11.6211C37.8092 11.6211 37.8483 11.6178 37.8809 11.6113C37.9134 11.6048 37.9557 11.5788 38.0078 11.5332C38.0078 11.5267 38.0111 11.5104 38.0176 11.4844C38.0306 11.4583 38.0436 11.4323 38.0566 11.4062C38.1022 11.2695 38.1608 11.1393 38.2324 11.0156C38.3105 10.8854 38.3887 10.7585 38.4668 10.6348C38.5449 10.5046 38.6198 10.3776 38.6914 10.2539C38.763 10.1302 38.8216 10 38.8672 9.86328C38.8737 9.85677 38.877 9.83724 38.877 9.80469C38.8835 9.77214 38.89 9.73958 38.8965 9.70703C38.903 9.66797 38.9062 9.63542 38.9062 9.60938C38.9128 9.57682 38.916 9.55404 38.916 9.54102C38.9746 9.37826 39.0299 9.24479 39.082 9.14062C39.1406 9.03646 39.1862 8.91602 39.2188 8.7793L39.2676 8.33984C39.3132 8.26172 39.362 8.18685 39.4141 8.11523C39.4727 8.04362 39.5247 7.97201 39.5703 7.90039C39.6224 7.82227 39.6647 7.74414 39.6973 7.66602C39.7298 7.58789 39.7461 7.50977 39.7461 7.43164V7.34375C39.7331 7.19401 39.6875 7.08333 39.6094 7.01172C39.5312 6.9401 39.4401 6.88802 39.3359 6.85547C39.2383 6.81641 39.1374 6.78385 39.0332 6.75781C38.9355 6.73177 38.8639 6.6862 38.8184 6.62109L38.7598 6.39648C38.7598 6.2793 38.8053 6.19141 38.8965 6.13281L38.9355 6.08398C38.9421 6.05143 38.9648 6.02865 39.0039 6.01562C39.043 6.0026 39.1374 5.99609 39.2871 5.99609C39.3457 5.99609 39.3913 5.99609 39.4238 5.99609C39.4629 5.99609 39.4987 5.99935 39.5312 6.00586C39.5703 6.00586 39.6094 6.00911 39.6484 6.01562C39.694 6.01562 39.7526 6.01888 39.8242 6.02539C40.0391 6.02539 40.2181 6.01888 40.3613 6.00586C40.5046 5.98633 40.6413 5.97005 40.7715 5.95703H40.8105C40.8431 5.95703 40.9017 5.96354 40.9863 5.97656C41.0775 5.98958 41.1296 5.99609 41.1426 5.99609L41.6699 5.97656C41.722 5.97656 41.7708 5.98307 41.8164 5.99609C41.862 6.0026 41.8913 6.01237 41.9043 6.02539C41.9303 6.05794 41.9596 6.08073 41.9922 6.09375C42.0247 6.10026 42.0475 6.12305 42.0605 6.16211V6.2793C42.0605 6.40951 42.0443 6.50716 42.0117 6.57227C41.9792 6.63737 41.9499 6.6862 41.9238 6.71875C41.8717 6.77083 41.7904 6.81641 41.6797 6.85547C41.5755 6.89453 41.4616 6.93685 41.3379 6.98242C41.2142 7.02799 41.097 7.08333 40.9863 7.14844C40.8757 7.20703 40.7943 7.27865 40.7422 7.36328C40.612 7.55859 40.5013 7.7474 40.4102 7.92969C40.3255 8.10547 40.2441 8.28451 40.166 8.4668C40.0944 8.64258 40.0195 8.82161 39.9414 9.00391C39.8633 9.17969 39.7689 9.36523 39.6582 9.56055C39.6061 9.67122 39.5508 9.77865 39.4922 9.88281C39.4336 9.98047 39.3783 10.0814 39.3262 10.1855C39.2806 10.2897 39.2415 10.4004 39.209 10.5176C39.1829 10.6348 39.1699 10.7617 39.1699 10.8984L39.0137 11.084C39.0137 11.123 39.0072 11.1751 38.9941 11.2402C38.9811 11.3053 38.9648 11.3737 38.9453 11.4453C38.9258 11.5169 38.8997 11.5853 38.8672 11.6504C38.8411 11.709 38.8118 11.7513 38.7793 11.7773L38.6426 12.1289L38.3203 12.8223C38.2552 12.9525 38.2064 13.0632 38.1738 13.1543C38.1478 13.2454 38.1185 13.3333 38.0859 13.418C38.0534 13.5026 38.0143 13.5905 37.9688 13.6816C37.9232 13.7728 37.8548 13.8802 37.7637 14.0039C37.6986 14.1081 37.653 14.209 37.627 14.3066C37.6074 14.4043 37.5814 14.4922 37.5488 14.5703C37.5228 14.6419 37.474 14.7005 37.4023 14.7461C37.3372 14.7917 37.2266 14.8145 37.0703 14.8145C36.9466 14.8145 36.8522 14.8047 36.7871 14.7852C36.7285 14.7656 36.6797 14.7363 36.6406 14.6973C36.6081 14.6582 36.5755 14.6094 36.543 14.5508C36.5104 14.4857 36.4616 14.4108 36.3965 14.3262C36.4095 14.2741 36.416 14.2285 36.416 14.1895C36.416 14.1439 36.416 14.0983 36.416 14.0527C36.416 13.903 36.3997 13.7598 36.3672 13.623C36.3346 13.4863 36.2956 13.3529 36.25 13.2227C36.2044 13.0924 36.1621 12.9622 36.123 12.832C36.084 12.6953 36.0579 12.5521 36.0449 12.4023L35.9766 11.6699C35.9635 11.6048 35.931 11.5039 35.8789 11.3672C35.8268 11.224 35.765 11.0807 35.6934 10.9375C35.6283 10.7943 35.5599 10.6706 35.4883 10.5664C35.4167 10.4557 35.3548 10.4004 35.3027 10.4004C35.2246 10.4004 35.153 10.4232 35.0879 10.4688C35.0293 10.5078 34.9935 10.5469 34.9805 10.5859C34.9674 10.6055 34.9414 10.6576 34.9023 10.7422C34.8633 10.8268 34.8438 10.8822 34.8438 10.9082C34.7721 11.2077 34.6777 11.4714 34.5605 11.6992C34.4499 11.9206 34.3294 12.1549 34.1992 12.4023L34.0137 12.666C34.0137 12.679 34.0072 12.7051 33.9941 12.7441C33.9876 12.7832 33.9779 12.8092 33.9648 12.8223C33.9648 12.8288 33.9616 12.8548 33.9551 12.9004C33.9486 12.9395 33.9388 12.985 33.9258 13.0371C33.9193 13.0827 33.9095 13.1283 33.8965 13.1738C33.89 13.2129 33.8835 13.2357 33.877 13.2422C33.877 13.2487 33.8672 13.265 33.8477 13.291C33.8346 13.3171 33.8151 13.3464 33.7891 13.3789C33.7695 13.4049 33.75 13.431 33.7305 13.457C33.7109 13.4766 33.6979 13.4896 33.6914 13.4961C33.6263 13.6458 33.5807 13.8086 33.5547 13.9844C33.5352 14.1602 33.4993 14.3229 33.4473 14.4727C33.4017 14.6224 33.3236 14.7493 33.2129 14.8535C33.1022 14.9512 32.9297 15 32.6953 15C32.5846 15 32.4902 14.9837 32.4121 14.9512C32.3405 14.9186 32.2949 14.8275 32.2754 14.6777L32.1289 13.5449ZM42.3242 10.7227C42.3242 10.6901 42.3307 10.6283 42.3438 10.5371C42.3568 10.4395 42.3698 10.3385 42.3828 10.2344C42.4023 10.1237 42.4154 10.0195 42.4219 9.92188C42.4349 9.82422 42.4414 9.75911 42.4414 9.72656C42.4674 9.41406 42.5358 9.09505 42.6465 8.76953C42.7637 8.44401 42.9102 8.13151 43.0859 7.83203C43.2617 7.52604 43.4635 7.24609 43.6914 6.99219C43.9258 6.73828 44.1797 6.52344 44.4531 6.34766C44.4596 6.33464 44.4922 6.31185 44.5508 6.2793C44.6159 6.24674 44.6842 6.21419 44.7559 6.18164C44.8275 6.14909 44.8958 6.11654 44.9609 6.08398C45.026 6.05143 45.0651 6.02865 45.0781 6.01562C45.1237 5.99609 45.1823 5.96354 45.2539 5.91797C45.332 5.86589 45.4102 5.81706 45.4883 5.77148C45.5664 5.7194 45.6445 5.67383 45.7227 5.63477C45.8008 5.5957 45.8724 5.57617 45.9375 5.57617C45.9961 5.57617 46.0417 5.58268 46.0742 5.5957C46.1133 5.60872 46.1589 5.62826 46.2109 5.6543C46.3216 5.64128 46.4258 5.63151 46.5234 5.625C46.6276 5.61198 46.7318 5.60547 46.8359 5.60547C46.9466 5.60547 47.0508 5.61198 47.1484 5.625C47.2461 5.63151 47.3503 5.64128 47.4609 5.6543C47.4609 5.6543 47.474 5.66081 47.5 5.67383C47.526 5.68034 47.5553 5.6901 47.5879 5.70312C47.6204 5.71615 47.653 5.72917 47.6855 5.74219C47.7181 5.75521 47.7441 5.76497 47.7637 5.77148C47.7832 5.77799 47.8223 5.79753 47.8809 5.83008C47.9395 5.85612 48.0046 5.88867 48.0762 5.92773C48.1478 5.9668 48.2161 6.0026 48.2812 6.03516C48.3464 6.0612 48.3919 6.07747 48.418 6.08398C48.418 6.09049 48.4408 6.10026 48.4863 6.11328C48.5319 6.1263 48.5612 6.13281 48.5742 6.13281L48.9648 6.34766L49.8438 7.14844C49.8698 7.18099 49.9089 7.26888 49.9609 7.41211C50.0195 7.54883 50.0749 7.70182 50.127 7.87109C50.1855 8.03385 50.2344 8.1901 50.2734 8.33984C50.319 8.48958 50.3418 8.58724 50.3418 8.63281C50.3418 8.72396 50.3158 8.79883 50.2637 8.85742C50.2116 8.90951 50.1497 8.95508 50.0781 8.99414C50.0065 9.02669 49.9284 9.05273 49.8438 9.07227C49.7656 9.08529 49.6973 9.09505 49.6387 9.10156H49.5996C49.5345 9.10807 49.4271 9.11458 49.2773 9.12109C49.1341 9.1276 48.9811 9.13411 48.8184 9.14062C48.6621 9.14062 48.5124 9.14388 48.3691 9.15039C48.2324 9.15039 48.138 9.15039 48.0859 9.15039C48.0143 9.18294 47.9492 9.20247 47.8906 9.20898C47.8385 9.21549 47.7832 9.21875 47.7246 9.21875L47.0312 9.15039C46.901 9.15039 46.7643 9.17318 46.6211 9.21875C46.4844 9.26432 46.3509 9.28711 46.2207 9.28711C46.1361 9.28711 46.0514 9.25781 45.9668 9.19922C45.8887 9.13411 45.8008 9.10156 45.7031 9.10156C45.6901 9.10156 45.6543 9.11784 45.5957 9.15039C45.5436 9.17643 45.5046 9.18945 45.4785 9.18945L44.7363 9.14062C44.6322 9.14062 44.5345 9.16016 44.4434 9.19922C44.3522 9.23828 44.248 9.30664 44.1309 9.4043C44.1113 9.57357 44.0983 9.72331 44.0918 9.85352C44.0853 9.97721 44.082 10.1172 44.082 10.2734C44.082 10.4102 44.0885 10.5208 44.1016 10.6055C44.1211 10.6901 44.1471 10.7715 44.1797 10.8496C44.2122 10.9212 44.2513 10.9961 44.2969 11.0742C44.3424 11.1458 44.3945 11.237 44.4531 11.3477L44.5508 11.5332C44.7201 11.9043 44.9382 12.2038 45.2051 12.4316C45.472 12.6595 45.8171 12.8385 46.2402 12.9688C46.2402 13.0013 46.2858 13.0339 46.377 13.0664C46.4746 13.0924 46.582 13.112 46.6992 13.125C46.8359 13.151 46.9922 13.1673 47.168 13.1738C47.3828 13.1738 47.6042 13.1608 47.832 13.1348C48.0599 13.1087 48.2812 13.0664 48.4961 13.0078C48.7109 12.9492 48.9128 12.8711 49.1016 12.7734C49.2969 12.6758 49.4629 12.5553 49.5996 12.4121H49.7559C49.834 12.4121 49.8861 12.4251 49.9121 12.4512C49.9447 12.4707 49.9772 12.5326 50.0098 12.6367C49.9902 12.8255 49.9609 12.9948 49.9219 13.1445C49.8893 13.2878 49.8405 13.418 49.7754 13.5352C49.7168 13.6523 49.6387 13.763 49.541 13.8672C49.4434 13.9648 49.3164 14.0658 49.1602 14.1699C49.1081 14.209 49.0592 14.2383 49.0137 14.2578C48.9681 14.2708 48.9258 14.2839 48.8867 14.2969C48.8477 14.3099 48.8053 14.3294 48.7598 14.3555C48.7207 14.3815 48.6751 14.4271 48.623 14.4922L47.5781 15.0195L47.4609 15L46.7285 15.1172C46.1816 15.1172 45.6901 15.0391 45.2539 14.8828C44.8177 14.7266 44.4271 14.5052 44.082 14.2188C43.7435 13.9258 43.4473 13.5775 43.1934 13.1738C42.946 12.7702 42.7344 12.3242 42.5586 11.8359C42.5 11.6602 42.4642 11.4811 42.4512 11.2988C42.4382 11.11 42.3958 10.918 42.3242 10.7227ZM44.248 8.05664C44.248 8.08919 44.2513 8.13802 44.2578 8.20312C44.2708 8.26823 44.2871 8.33333 44.3066 8.39844C44.3262 8.46354 44.349 8.52214 44.375 8.57422C44.401 8.6263 44.4271 8.6556 44.4531 8.66211H44.7559L46.0547 8.45703L46.8848 8.52539C47.028 8.52539 47.1549 8.51237 47.2656 8.48633C47.3828 8.46029 47.5098 8.43099 47.6465 8.39844C47.7702 8.37891 47.8743 8.36263 47.959 8.34961C48.0501 8.33008 48.1217 8.29753 48.1738 8.25195C48.2324 8.20638 48.2747 8.14779 48.3008 8.07617C48.3268 7.99805 48.3398 7.89062 48.3398 7.75391C48.3398 7.52604 48.278 7.32747 48.1543 7.1582C48.0306 6.98893 47.8743 6.84896 47.6855 6.73828C47.5033 6.62109 47.3014 6.53646 47.0801 6.48438C46.8652 6.42578 46.6634 6.39648 46.4746 6.39648C46.429 6.39648 46.3639 6.40951 46.2793 6.43555C46.1947 6.45508 46.097 6.48438 45.9863 6.52344C45.8822 6.55599 45.7715 6.59505 45.6543 6.64062C45.5436 6.67969 45.4395 6.72526 45.3418 6.77734C45.2507 6.82292 45.1693 6.86849 45.0977 6.91406C45.026 6.95312 44.9805 6.98893 44.9609 7.02148L44.7559 7.46094C44.7168 7.50651 44.668 7.54883 44.6094 7.58789C44.5508 7.62695 44.4922 7.66927 44.4336 7.71484C44.3815 7.76042 44.3359 7.8125 44.2969 7.87109C44.2643 7.92318 44.248 7.98503 44.248 8.05664ZM51.4746 14.4043C51.4746 14.3522 51.5072 14.3164 51.5723 14.2969C51.6439 14.2708 51.696 14.2415 51.7285 14.209C51.8001 14.1309 51.8815 14.0755 51.9727 14.043C52.0703 14.0104 52.1387 13.9844 52.1777 13.9648C52.2298 13.9323 52.2656 13.8932 52.2852 13.8477C52.3047 13.7956 52.3503 13.7565 52.4219 13.7305L52.6562 13.6523C52.6953 13.6523 52.7279 13.623 52.7539 13.5645C52.7799 13.5059 52.7962 13.4733 52.8027 13.4668C52.7962 13.4342 52.793 13.3789 52.793 13.3008C52.793 13.2227 52.793 13.1478 52.793 13.0762C52.793 12.985 52.793 12.9036 52.793 12.832C52.793 12.7539 52.7962 12.6888 52.8027 12.6367L52.8613 12.3438V10.8398C52.8613 10.8268 52.8646 10.7975 52.8711 10.752C52.8776 10.7064 52.8841 10.6576 52.8906 10.6055C52.8971 10.5534 52.9036 10.5046 52.9102 10.459C52.9167 10.4134 52.9232 10.3841 52.9297 10.3711V10.3027C52.9232 10.2637 52.9167 10.2051 52.9102 10.127C52.9036 10.0423 52.8971 9.96094 52.8906 9.88281C52.8841 9.79818 52.8776 9.72331 52.8711 9.6582C52.8646 9.5931 52.8613 9.55404 52.8613 9.54102C52.8548 9.52148 52.8483 9.48893 52.8418 9.44336C52.8353 9.39779 52.8288 9.34896 52.8223 9.29688C52.8158 9.24479 52.8092 9.19596 52.8027 9.15039C52.8027 9.10482 52.8027 9.07227 52.8027 9.05273C52.7832 8.96159 52.7507 8.8737 52.7051 8.78906C52.6595 8.70443 52.6074 8.6263 52.5488 8.55469C52.4902 8.47656 52.4284 8.40169 52.3633 8.33008C52.2982 8.25195 52.2363 8.17708 52.1777 8.10547C52.1712 8.10547 52.1484 8.08268 52.1094 8.03711C52.0703 7.98503 52.0508 7.95247 52.0508 7.93945L51.4746 7.40234L51.9434 6.92383C51.9564 6.91732 51.9824 6.9043 52.0215 6.88477C52.0671 6.86523 52.1126 6.8457 52.1582 6.82617C52.2103 6.80013 52.2591 6.77734 52.3047 6.75781C52.3568 6.73828 52.3958 6.72526 52.4219 6.71875C52.4349 6.70573 52.4609 6.69596 52.5 6.68945C52.5456 6.67643 52.5911 6.66667 52.6367 6.66016C52.6888 6.65365 52.7344 6.65039 52.7734 6.65039C52.819 6.64388 52.8483 6.64062 52.8613 6.64062C52.985 6.60156 53.0957 6.54948 53.1934 6.48438C53.2975 6.41276 53.3984 6.3444 53.4961 6.2793C53.5938 6.20768 53.6914 6.14583 53.7891 6.09375C53.8932 6.04167 54.0104 6.01562 54.1406 6.01562H54.2969C54.3034 6.02214 54.3392 6.05794 54.4043 6.12305C54.4694 6.18164 54.5182 6.22396 54.5508 6.25C54.5964 6.32161 54.6191 6.41276 54.6191 6.52344C54.6191 6.6276 54.6224 6.73177 54.6289 6.83594C54.6354 6.93359 54.6582 7.01823 54.6973 7.08984C54.7363 7.16146 54.821 7.19727 54.9512 7.19727C54.9707 7.19727 54.9902 7.19727 55.0098 7.19727C55.0358 7.19727 55.0488 7.19076 55.0488 7.17773C55.0749 7.17122 55.1107 7.1582 55.1562 7.13867C55.2018 7.11263 55.2474 7.08333 55.293 7.05078C55.3451 7.01823 55.3906 6.98568 55.4297 6.95312C55.4753 6.92057 55.5078 6.89453 55.5273 6.875L55.9277 6.57227C55.9408 6.55924 55.9831 6.52995 56.0547 6.48438C56.1263 6.43229 56.1751 6.39323 56.2012 6.36719C56.2077 6.36719 56.2337 6.36719 56.2793 6.36719C56.3249 6.36068 56.3704 6.35742 56.416 6.35742C56.4681 6.35091 56.5169 6.3444 56.5625 6.33789C56.6081 6.33138 56.6406 6.32487 56.6602 6.31836C56.6667 6.31836 56.6862 6.31185 56.7188 6.29883C56.7578 6.28581 56.7969 6.27279 56.8359 6.25977C56.8815 6.24674 56.9206 6.23372 56.9531 6.2207C56.9857 6.20768 57.0052 6.20117 57.0117 6.20117H57.1191C57.2689 6.20117 57.3893 6.24674 57.4805 6.33789C57.5781 6.42904 57.666 6.52995 57.7441 6.64062C57.7897 6.69922 57.8158 6.78385 57.8223 6.89453C57.8353 6.9987 57.8581 7.07682 57.8906 7.12891C57.8906 7.14844 57.9004 7.16797 57.9199 7.1875L57.959 7.22656C57.959 7.53906 57.9134 7.81901 57.8223 8.06641C57.7376 8.30729 57.5911 8.5026 57.3828 8.65234C57.3242 8.66536 57.2559 8.67839 57.1777 8.69141C57.0996 8.69792 57.0345 8.70117 56.9824 8.70117C56.8457 8.70117 56.7448 8.69466 56.6797 8.68164C56.6146 8.66211 56.5658 8.63607 56.5332 8.60352C56.5007 8.57096 56.4714 8.52865 56.4453 8.47656C56.4258 8.42448 56.39 8.36263 56.3379 8.29102C56.2923 8.23242 56.237 8.18685 56.1719 8.1543C56.1133 8.11523 56.0547 8.08919 55.9961 8.07617C55.9375 8.05664 55.8822 8.04362 55.8301 8.03711C55.7845 8.0306 55.7552 8.02734 55.7422 8.02734L55.3223 7.95898L54.9707 8.05664L54.8535 8.21289C54.821 8.2194 54.7754 8.25195 54.7168 8.31055C54.6582 8.36263 54.5996 8.42448 54.541 8.49609C54.4889 8.5612 54.4434 8.63281 54.4043 8.71094C54.3652 8.78255 54.3457 8.84115 54.3457 8.88672L54.2969 9.58984L54.3457 9.86328V10.3711C54.3457 10.3841 54.349 10.4232 54.3555 10.4883C54.3685 10.5469 54.3815 10.5924 54.3945 10.625L54.3262 11.5039L54.3945 11.8359C54.3945 11.8815 54.3815 11.9271 54.3555 11.9727C54.3359 12.0182 54.3262 12.0768 54.3262 12.1484L54.3945 12.4805L54.3262 12.8418C54.3262 12.8483 54.3262 12.8581 54.3262 12.8711C54.3262 12.8841 54.3327 12.8906 54.3457 12.8906C54.3522 12.9297 54.3717 12.985 54.4043 13.0566C54.4434 13.1283 54.4824 13.2031 54.5215 13.2812C54.5671 13.3594 54.6061 13.4342 54.6387 13.5059C54.6777 13.571 54.7038 13.6198 54.7168 13.6523C54.7168 13.6589 54.7233 13.6719 54.7363 13.6914C54.7493 13.7109 54.7656 13.7207 54.7852 13.7207C54.8438 13.7533 54.8991 13.7956 54.9512 13.8477C55.0098 13.8997 55.0781 13.9388 55.1562 13.9648C55.2018 13.9844 55.2604 14.0039 55.332 14.0234C55.4036 14.0365 55.4785 14.0527 55.5566 14.0723C55.6413 14.0918 55.7227 14.1146 55.8008 14.1406C55.8854 14.1667 55.9635 14.1992 56.0352 14.2383C56.0742 14.2904 56.11 14.3522 56.1426 14.4238C56.1816 14.4954 56.2012 14.5736 56.2012 14.6582C56.2012 14.7298 56.1882 14.7819 56.1621 14.8145C56.1426 14.847 56.11 14.8796 56.0645 14.9121C56.0254 14.9382 55.9603 14.9512 55.8691 14.9512L55.5566 14.9805C55.446 14.9935 55.3451 15 55.2539 15C55.1693 15 55.0977 15 55.0391 15C54.987 15 54.9284 14.9935 54.8633 14.9805C54.8047 14.9609 54.7396 14.9512 54.668 14.9512C54.4857 14.9512 54.3132 14.974 54.1504 15.0195C53.9876 15.0716 53.8216 15.0977 53.6523 15.0977L53.2129 14.9512L52.5879 15.0977H52.4219L52.2852 15C52.2721 15 52.2363 14.9967 52.1777 14.9902C52.1191 14.9772 52.0345 14.9642 51.9238 14.9512C51.8978 14.9512 51.8717 14.9382 51.8457 14.9121C51.8262 14.9056 51.7936 14.8958 51.748 14.8828C51.709 14.8698 51.6439 14.8405 51.5527 14.7949C51.5007 14.7233 51.4746 14.6549 51.4746 14.5898V14.5605V14.4043ZM59.4434 19.6094C59.4434 19.5508 59.4434 19.4987 59.4434 19.4531C59.4499 19.4076 59.4694 19.349 59.502 19.2773C59.5345 19.1276 59.6029 19.0039 59.707 18.9062C59.8177 18.8086 59.9837 18.7272 60.2051 18.6621C60.2246 18.6556 60.2572 18.6458 60.3027 18.6328C60.3483 18.6263 60.3939 18.6198 60.4395 18.6133C60.485 18.6068 60.5241 18.6003 60.5566 18.5938C60.5957 18.5938 60.6185 18.5938 60.625 18.5938L60.9863 18.6621L61.2012 18.5938C61.2207 18.5938 61.25 18.5905 61.2891 18.584C61.3281 18.584 61.3835 18.584 61.4551 18.584C61.5723 18.584 61.6504 18.5807 61.6895 18.5742C61.735 18.5677 61.7708 18.5482 61.7969 18.5156C61.849 18.4375 61.8913 18.3691 61.9238 18.3105C61.9564 18.252 61.9824 18.1934 62.002 18.1348C62.028 18.0827 62.0475 18.0241 62.0605 17.959C62.0801 17.9004 62.0996 17.8255 62.1191 17.7344C62.1191 17.7279 62.1224 17.7051 62.1289 17.666C62.1354 17.6335 62.1419 17.5944 62.1484 17.5488C62.1549 17.5033 62.1615 17.4609 62.168 17.4219C62.1745 17.3828 62.181 17.3535 62.1875 17.334C62.1875 17.3079 62.2038 17.2591 62.2363 17.1875C62.2689 17.1159 62.3047 17.041 62.3438 16.9629C62.3828 16.8848 62.4186 16.8099 62.4512 16.7383C62.4902 16.6732 62.5195 16.6243 62.5391 16.5918L62.4707 16.1816C62.5423 16.0645 62.5977 15.957 62.6367 15.8594C62.6758 15.7617 62.6953 15.6445 62.6953 15.5078C62.6953 15.4883 62.6921 15.4622 62.6855 15.4297C62.679 15.4036 62.6758 15.3841 62.6758 15.3711C62.6758 15.319 62.6725 15.2539 62.666 15.1758C62.666 15.1042 62.6628 15.0358 62.6562 14.9707C62.6497 14.8991 62.6432 14.8372 62.6367 14.7852C62.6302 14.7331 62.627 14.7038 62.627 14.6973C62.627 14.6777 62.6139 14.6387 62.5879 14.5801C62.5618 14.515 62.5326 14.4466 62.5 14.375C62.474 14.3034 62.4447 14.235 62.4121 14.1699C62.3861 14.1048 62.373 14.0592 62.373 14.0332C62.3665 14.0202 62.3535 13.9811 62.334 13.916C62.3145 13.8509 62.2917 13.7826 62.2656 13.7109C62.2461 13.6328 62.2266 13.5612 62.207 13.4961C62.194 13.431 62.1875 13.3919 62.1875 13.3789L61.875 12.8516C61.875 12.8451 61.8717 12.819 61.8652 12.7734C61.8587 12.7279 61.8522 12.679 61.8457 12.627C61.8392 12.5749 61.8294 12.526 61.8164 12.4805C61.8099 12.4284 61.8034 12.3958 61.7969 12.3828C61.7969 12.3242 61.7904 12.2526 61.7773 12.168C61.7643 12.0768 61.7546 12.0312 61.748 12.0312C61.7415 12.0117 61.722 11.9857 61.6895 11.9531C61.6634 11.9206 61.6309 11.888 61.5918 11.8555C61.5592 11.8229 61.5267 11.7936 61.4941 11.7676C61.4616 11.7415 61.4453 11.7253 61.4453 11.7188L61.3086 11.3672L60.9863 10.9082L60.625 9.98047C60.6185 9.96745 60.599 9.93164 60.5664 9.87305C60.5404 9.80794 60.5273 9.77214 60.5273 9.76562C60.5143 9.7526 60.4948 9.73633 60.4688 9.7168C60.4427 9.69076 60.4297 9.67122 60.4297 9.6582C60.4232 9.65169 60.4167 9.6224 60.4102 9.57031C60.4036 9.51823 60.3971 9.46289 60.3906 9.4043C60.3906 9.3457 60.3874 9.29362 60.3809 9.24805C60.3809 9.19596 60.3809 9.16341 60.3809 9.15039C60.3548 9.04622 60.3158 8.93555 60.2637 8.81836C60.2116 8.69466 60.1562 8.57422 60.0977 8.45703C60.0391 8.33333 59.9772 8.21289 59.9121 8.0957C59.8535 7.97852 59.8014 7.87109 59.7559 7.77344C59.7559 7.76042 59.7493 7.72786 59.7363 7.67578C59.7233 7.61719 59.7103 7.58138 59.6973 7.56836C59.6973 7.54883 59.681 7.52279 59.6484 7.49023C59.6224 7.45117 59.5931 7.42513 59.5605 7.41211C59.3717 7.26237 59.1699 7.14518 58.9551 7.06055C58.7467 6.97591 58.5286 6.87826 58.3008 6.76758L58.2129 6.64062C58.1868 6.58854 58.1478 6.54948 58.0957 6.52344C58.0371 6.4974 58.0078 6.46159 58.0078 6.41602C58.0078 6.18815 58.0501 6.04167 58.1348 5.97656C58.2129 5.91146 58.3138 5.87891 58.4375 5.87891C58.5352 5.87891 58.6296 5.89518 58.7207 5.92773C58.8184 5.96029 58.9193 6.00586 59.0234 6.06445C59.043 6.06445 59.082 6.0612 59.1406 6.05469C59.1992 6.04818 59.2676 6.04492 59.3457 6.04492C59.4173 6.04492 59.4857 6.04818 59.5508 6.05469C59.6224 6.0612 59.6712 6.06445 59.6973 6.06445L59.9512 6.16211H60.2051C60.2116 6.16211 60.2376 6.15885 60.2832 6.15234C60.3353 6.13932 60.3874 6.12956 60.4395 6.12305C60.498 6.11003 60.5501 6.10026 60.5957 6.09375C60.6413 6.08073 60.6706 6.07096 60.6836 6.06445C60.7227 6.04492 60.7747 6.02865 60.8398 6.01562C60.9115 5.99609 60.9798 5.97982 61.0449 5.9668C61.11 5.95378 61.1654 5.94401 61.2109 5.9375C61.263 5.93099 61.2956 5.92773 61.3086 5.92773H61.748L62.0117 5.87891C62.0703 5.87891 62.1387 5.89193 62.2168 5.91797C62.3014 5.9375 62.3763 5.9668 62.4414 6.00586C62.513 6.04492 62.5716 6.09049 62.6172 6.14258C62.6693 6.18815 62.6953 6.23372 62.6953 6.2793C62.6953 6.33138 62.6888 6.40951 62.6758 6.51367C62.6628 6.61133 62.6335 6.6862 62.5879 6.73828C62.4837 6.84896 62.373 6.92708 62.2559 6.97266C62.1452 7.01823 62.0638 7.04753 62.0117 7.06055L61.8457 7.10938C61.8001 7.12891 61.748 7.13542 61.6895 7.12891C61.6374 7.11589 61.5885 7.13216 61.543 7.17773C61.5495 7.22982 61.5625 7.29492 61.582 7.37305C61.6016 7.44466 61.6243 7.51628 61.6504 7.58789C61.6764 7.65951 61.6992 7.72461 61.7188 7.7832C61.7383 7.83529 61.748 7.86458 61.748 7.87109C61.7546 7.9362 61.7708 7.99479 61.7969 8.04688C61.8294 8.09896 61.862 8.15104 61.8945 8.20312C61.9271 8.25521 61.9596 8.30729 61.9922 8.35938C62.0247 8.41146 62.0508 8.4668 62.0703 8.52539L62.1875 9.15039C62.2005 9.24154 62.2331 9.32943 62.2852 9.41406C62.3372 9.49219 62.3926 9.57031 62.4512 9.64844C62.5098 9.72005 62.5684 9.79818 62.627 9.88281C62.6855 9.96094 62.7246 10.0456 62.7441 10.1367C62.7441 10.1432 62.7441 10.1725 62.7441 10.2246C62.7507 10.2767 62.7539 10.332 62.7539 10.3906C62.7604 10.4492 62.7669 10.5046 62.7734 10.5566C62.7799 10.6087 62.7865 10.638 62.793 10.6445C62.793 10.651 62.8125 10.6836 62.8516 10.7422C62.8906 10.8008 62.9167 10.8333 62.9297 10.8398C62.9362 10.8529 62.9525 10.8887 62.9785 10.9473C63.0046 11.0059 63.0273 11.0449 63.0469 11.0645L63.1934 11.3672C63.2064 11.4128 63.2292 11.4714 63.2617 11.543C63.2943 11.6081 63.3236 11.6406 63.3496 11.6406C63.3952 11.7122 63.444 11.7643 63.4961 11.7969C63.5547 11.8229 63.6068 11.8359 63.6523 11.8359C63.6849 11.8359 63.7305 11.8229 63.7891 11.7969C63.8477 11.7643 63.8932 11.7122 63.9258 11.6406C63.9453 11.6146 63.9681 11.5885 63.9941 11.5625C64.0462 11.5104 64.0853 11.4746 64.1113 11.4551L64.1309 11.3965C64.1374 11.3835 64.1439 11.3704 64.1504 11.3574C64.1569 11.3444 64.1602 11.3314 64.1602 11.3184C64.2383 11.123 64.3132 10.9245 64.3848 10.7227C64.4564 10.5208 64.528 10.3092 64.5996 10.0879C64.5996 10.0684 64.6061 10.026 64.6191 9.96094C64.6322 9.88932 64.6549 9.84049 64.6875 9.81445C64.6875 9.80794 64.6875 9.78841 64.6875 9.75586C64.694 9.72331 64.6973 9.6875 64.6973 9.64844C64.7038 9.60286 64.7103 9.5638 64.7168 9.53125C64.7233 9.49219 64.7298 9.4694 64.7363 9.46289L64.8828 9.05273C64.8893 9.04622 64.8958 9.02669 64.9023 8.99414C64.9089 8.96159 64.9154 8.92904 64.9219 8.89648C64.9284 8.85742 64.9316 8.82487 64.9316 8.79883C64.9382 8.76628 64.9414 8.74349 64.9414 8.73047C64.9609 8.66536 64.9902 8.60026 65.0293 8.53516C65.0749 8.47005 65.1172 8.4082 65.1562 8.34961C65.1953 8.29102 65.2311 8.23242 65.2637 8.17383C65.2962 8.10872 65.3125 8.04036 65.3125 7.96875C65.2995 7.94271 65.2799 7.9069 65.2539 7.86133C65.2344 7.80924 65.2181 7.77995 65.2051 7.77344V7.36328C65.2051 7.35026 65.179 7.31445 65.127 7.25586C65.0814 7.19727 65.0456 7.16146 65.0195 7.14844C64.9935 7.13542 64.9544 7.11914 64.9023 7.09961C64.8568 7.07357 64.8047 7.05078 64.7461 7.03125C64.6875 7.01172 64.6289 6.99544 64.5703 6.98242C64.5182 6.96289 64.4759 6.94987 64.4434 6.94336C64.3783 6.94336 64.3294 6.93359 64.2969 6.91406C64.2708 6.88802 64.2546 6.875 64.248 6.875L63.9258 6.64062C63.8932 6.54948 63.877 6.47461 63.877 6.41602C63.877 6.33138 63.8932 6.25651 63.9258 6.19141C63.9583 6.11979 63.9974 6.04818 64.043 5.97656C64.1276 5.93099 64.2057 5.90169 64.2773 5.88867C64.3555 5.86914 64.4238 5.85938 64.4824 5.85938C64.541 5.85286 64.5964 5.84635 64.6484 5.83984C64.7005 5.83333 64.7461 5.81706 64.7852 5.79102L65.0195 5.76172C65.0326 5.76172 65.0684 5.76497 65.127 5.77148C65.1921 5.77148 65.2604 5.77474 65.332 5.78125C65.4036 5.78776 65.4688 5.79427 65.5273 5.80078C65.5924 5.80078 65.6315 5.80404 65.6445 5.81055L65.9668 5.87891C66.1165 5.87891 66.25 5.85612 66.3672 5.81055C66.4909 5.76497 66.6276 5.7194 66.7773 5.67383H67.002C67.002 5.66081 67.0312 5.65104 67.0898 5.64453C67.1484 5.63151 67.1908 5.625 67.2168 5.625C67.2168 5.61198 67.2233 5.60547 67.2363 5.60547C67.2559 5.60547 67.2721 5.60547 67.2852 5.60547C67.3438 5.60547 67.4219 5.61849 67.5195 5.64453C67.6237 5.67057 67.7246 5.70638 67.8223 5.75195C67.9199 5.79753 68.0046 5.84961 68.0762 5.9082C68.1478 5.9668 68.1836 6.02865 68.1836 6.09375C68.1836 6.17188 68.1608 6.22721 68.1152 6.25977C68.0697 6.29232 68.0241 6.33464 67.9785 6.38672L67.6074 6.68945C67.5293 6.76107 67.4512 6.81641 67.373 6.85547C67.2949 6.88802 67.2135 6.91406 67.1289 6.93359C67.0508 6.95312 66.9661 6.9694 66.875 6.98242C66.7839 6.99544 66.6895 7.01497 66.5918 7.04102C66.4811 7.21029 66.3867 7.38281 66.3086 7.55859C66.237 7.73438 66.1589 7.9069 66.0742 8.07617C66.0742 8.10872 66.0677 8.15104 66.0547 8.20312C66.0417 8.2487 66.0286 8.27799 66.0156 8.29102C66.0156 8.29753 66.0124 8.31706 66.0059 8.34961C66.0059 8.37565 66.0026 8.4082 65.9961 8.44727C65.9896 8.47982 65.9831 8.51237 65.9766 8.54492C65.9766 8.57747 65.9733 8.59375 65.9668 8.59375C65.9668 8.60677 65.9538 8.62956 65.9277 8.66211C65.9082 8.69466 65.8854 8.73372 65.8594 8.7793C65.8333 8.81836 65.8073 8.85742 65.7812 8.89648C65.7617 8.92904 65.752 8.94857 65.752 8.95508V9.46289C65.7454 9.4694 65.7324 9.49219 65.7129 9.53125C65.6934 9.5638 65.6706 9.60286 65.6445 9.64844C65.625 9.6875 65.6022 9.72331 65.5762 9.75586C65.5566 9.78841 65.5404 9.80794 65.5273 9.81445C65.4362 9.98372 65.3288 10.166 65.2051 10.3613C65.0814 10.5566 64.9935 10.7585 64.9414 10.9668V11.3184C64.9414 11.3314 64.9284 11.3672 64.9023 11.4258C64.8828 11.4779 64.8665 11.5039 64.8535 11.5039C64.7819 11.6406 64.7363 11.7676 64.7168 11.8848C64.6973 12.002 64.6582 12.1159 64.5996 12.2266L64.3164 12.8027C64.2904 12.9329 64.2741 13.0664 64.2676 13.2031C64.2611 13.3398 64.2578 13.4798 64.2578 13.623C64.2578 13.7598 64.2546 13.8965 64.248 14.0332C64.2415 14.1699 64.2285 14.3066 64.209 14.4434C64.196 14.6061 64.1439 14.7656 64.0527 14.9219C63.9616 15.0781 63.8802 15.2279 63.8086 15.3711C63.7956 15.3841 63.776 15.4004 63.75 15.4199C63.7305 15.446 63.7207 15.4622 63.7207 15.4688C63.6947 15.5078 63.6686 15.5697 63.6426 15.6543C63.6296 15.6934 63.6165 15.7357 63.6035 15.7812C63.597 15.8203 63.5905 15.8822 63.584 15.9668C63.5775 16.0514 63.571 16.1393 63.5645 16.2305C63.5645 16.3216 63.5612 16.4062 63.5547 16.4844C63.5547 16.569 63.5547 16.6276 63.5547 16.6602C63.4896 16.7122 63.4408 16.7871 63.4082 16.8848C63.3822 16.9824 63.3594 17.0898 63.3398 17.207C63.3268 17.3242 63.3138 17.4382 63.3008 17.5488C63.2943 17.666 63.278 17.7637 63.252 17.8418L62.9785 18.1934C62.9655 18.2064 62.9525 18.2487 62.9395 18.3203C62.9329 18.3984 62.9297 18.4473 62.9297 18.4668C62.9102 18.4863 62.8874 18.5189 62.8613 18.5645C62.8353 18.6035 62.8027 18.6589 62.7637 18.7305C62.7246 18.8021 62.679 18.8997 62.627 19.0234C62.627 19.0299 62.6204 19.0495 62.6074 19.082C62.5944 19.1211 62.5781 19.1602 62.5586 19.1992C62.5391 19.2448 62.5195 19.2871 62.5 19.3262C62.487 19.3652 62.4772 19.388 62.4707 19.3945C62.4447 19.4857 62.4056 19.5443 62.3535 19.5703C62.3079 19.5964 62.2526 19.6387 62.1875 19.6973C62.1484 19.7298 62.1191 19.7559 62.0996 19.7754C62.0801 19.8014 62.0638 19.8242 62.0508 19.8438C62.0378 19.8633 62.0215 19.8828 62.002 19.9023C61.9889 19.9284 61.9661 19.9609 61.9336 20C61.8424 20.1172 61.7383 20.1855 61.6211 20.2051C61.5039 20.2311 61.3802 20.2637 61.25 20.3027L61.0547 20.459C60.9766 20.485 60.9017 20.498 60.8301 20.498C60.7585 20.5046 60.6901 20.5078 60.625 20.5078C60.5013 20.5078 60.3711 20.485 60.2344 20.4395C60.0977 20.4004 59.9707 20.3418 59.8535 20.2637C59.7363 20.1855 59.6387 20.0911 59.5605 19.9805C59.4824 19.8698 59.4434 19.7461 59.4434 19.6094ZM73.0371 14.4043C73.0371 14.3522 73.0697 14.3164 73.1348 14.2969C73.2064 14.2708 73.2585 14.2415 73.291 14.209C73.3626 14.1309 73.444 14.0755 73.5352 14.043C73.6328 14.0104 73.7012 13.9844 73.7402 13.9648C73.7923 13.9323 73.8281 13.8932 73.8477 13.8477C73.8672 13.7956 73.9128 13.7565 73.9844 13.7305L74.2188 13.6523C74.2578 13.6523 74.2904 13.623 74.3164 13.5645C74.3424 13.5059 74.3587 13.4733 74.3652 13.4668C74.3587 13.4342 74.3555 13.3789 74.3555 13.3008C74.3555 13.2227 74.3555 13.1478 74.3555 13.0762C74.3555 12.985 74.3555 12.9036 74.3555 12.832C74.3555 12.7539 74.3587 12.6888 74.3652 12.6367L74.4238 12.3438V10.8398C74.4238 10.8268 74.4271 10.7975 74.4336 10.752C74.4401 10.7064 74.4466 10.6576 74.4531 10.6055C74.4596 10.5534 74.4661 10.5046 74.4727 10.459C74.4792 10.4134 74.4857 10.3841 74.4922 10.3711V10.3027C74.4857 10.2637 74.4792 10.2051 74.4727 10.127C74.4661 10.0423 74.4596 9.96094 74.4531 9.88281C74.4466 9.79818 74.4401 9.72331 74.4336 9.6582C74.4271 9.5931 74.4238 9.55404 74.4238 9.54102C74.4173 9.52148 74.4108 9.48893 74.4043 9.44336C74.3978 9.39779 74.3913 9.34896 74.3848 9.29688C74.3783 9.24479 74.3717 9.19596 74.3652 9.15039C74.3652 9.10482 74.3652 9.07227 74.3652 9.05273C74.3457 8.96159 74.3132 8.8737 74.2676 8.78906C74.222 8.70443 74.1699 8.6263 74.1113 8.55469C74.0527 8.47656 73.9909 8.40169 73.9258 8.33008C73.8607 8.25195 73.7988 8.17708 73.7402 8.10547C73.7337 8.10547 73.7109 8.08268 73.6719 8.03711C73.6328 7.98503 73.6133 7.95247 73.6133 7.93945L73.0371 7.40234L73.5059 6.92383C73.5189 6.91732 73.5449 6.9043 73.584 6.88477C73.6296 6.86523 73.6751 6.8457 73.7207 6.82617C73.7728 6.80013 73.8216 6.77734 73.8672 6.75781C73.9193 6.73828 73.9583 6.72526 73.9844 6.71875C73.9974 6.70573 74.0234 6.69596 74.0625 6.68945C74.1081 6.67643 74.1536 6.66667 74.1992 6.66016C74.2513 6.65365 74.2969 6.65039 74.3359 6.65039C74.3815 6.64388 74.4108 6.64062 74.4238 6.64062C74.5475 6.60156 74.6582 6.54948 74.7559 6.48438C74.86 6.41276 74.9609 6.3444 75.0586 6.2793C75.1562 6.20768 75.2539 6.14583 75.3516 6.09375C75.4557 6.04167 75.5729 6.01562 75.7031 6.01562H75.8594C75.8659 6.02214 75.9017 6.05794 75.9668 6.12305C76.0319 6.18164 76.0807 6.22396 76.1133 6.25C76.1589 6.32161 76.1816 6.41276 76.1816 6.52344C76.1816 6.6276 76.1849 6.73177 76.1914 6.83594C76.1979 6.93359 76.2207 7.01823 76.2598 7.08984C76.2988 7.16146 76.3835 7.19727 76.5137 7.19727C76.5332 7.19727 76.5527 7.19727 76.5723 7.19727C76.5983 7.19727 76.6113 7.19076 76.6113 7.17773C76.6374 7.17122 76.6732 7.1582 76.7188 7.13867C76.7643 7.11263 76.8099 7.08333 76.8555 7.05078C76.9076 7.01823 76.9531 6.98568 76.9922 6.95312C77.0378 6.92057 77.0703 6.89453 77.0898 6.875L77.4902 6.57227C77.5033 6.55924 77.5456 6.52995 77.6172 6.48438C77.6888 6.43229 77.7376 6.39323 77.7637 6.36719C77.7702 6.36719 77.7962 6.36719 77.8418 6.36719C77.8874 6.36068 77.9329 6.35742 77.9785 6.35742C78.0306 6.35091 78.0794 6.3444 78.125 6.33789C78.1706 6.33138 78.2031 6.32487 78.2227 6.31836C78.2292 6.31836 78.2487 6.31185 78.2812 6.29883C78.3203 6.28581 78.3594 6.27279 78.3984 6.25977C78.444 6.24674 78.4831 6.23372 78.5156 6.2207C78.5482 6.20768 78.5677 6.20117 78.5742 6.20117H78.6816C78.8314 6.20117 78.9518 6.24674 79.043 6.33789C79.1406 6.42904 79.2285 6.52995 79.3066 6.64062C79.3522 6.69922 79.3783 6.78385 79.3848 6.89453C79.3978 6.9987 79.4206 7.07682 79.4531 7.12891C79.4531 7.14844 79.4629 7.16797 79.4824 7.1875L79.5215 7.22656C79.5215 7.53906 79.4759 7.81901 79.3848 8.06641C79.3001 8.30729 79.1536 8.5026 78.9453 8.65234C78.8867 8.66536 78.8184 8.67839 78.7402 8.69141C78.6621 8.69792 78.597 8.70117 78.5449 8.70117C78.4082 8.70117 78.3073 8.69466 78.2422 8.68164C78.1771 8.66211 78.1283 8.63607 78.0957 8.60352C78.0632 8.57096 78.0339 8.52865 78.0078 8.47656C77.9883 8.42448 77.9525 8.36263 77.9004 8.29102C77.8548 8.23242 77.7995 8.18685 77.7344 8.1543C77.6758 8.11523 77.6172 8.08919 77.5586 8.07617C77.5 8.05664 77.4447 8.04362 77.3926 8.03711C77.347 8.0306 77.3177 8.02734 77.3047 8.02734L76.8848 7.95898L76.5332 8.05664L76.416 8.21289C76.3835 8.2194 76.3379 8.25195 76.2793 8.31055C76.2207 8.36263 76.1621 8.42448 76.1035 8.49609C76.0514 8.5612 76.0059 8.63281 75.9668 8.71094C75.9277 8.78255 75.9082 8.84115 75.9082 8.88672L75.8594 9.58984L75.9082 9.86328V10.3711C75.9082 10.3841 75.9115 10.4232 75.918 10.4883C75.931 10.5469 75.944 10.5924 75.957 10.625L75.8887 11.5039L75.957 11.8359C75.957 11.8815 75.944 11.9271 75.918 11.9727C75.8984 12.0182 75.8887 12.0768 75.8887 12.1484L75.957 12.4805L75.8887 12.8418C75.8887 12.8483 75.8887 12.8581 75.8887 12.8711C75.8887 12.8841 75.8952 12.8906 75.9082 12.8906C75.9147 12.9297 75.9342 12.985 75.9668 13.0566C76.0059 13.1283 76.0449 13.2031 76.084 13.2812C76.1296 13.3594 76.1686 13.4342 76.2012 13.5059C76.2402 13.571 76.2663 13.6198 76.2793 13.6523C76.2793 13.6589 76.2858 13.6719 76.2988 13.6914C76.3118 13.7109 76.3281 13.7207 76.3477 13.7207C76.4062 13.7533 76.4616 13.7956 76.5137 13.8477C76.5723 13.8997 76.6406 13.9388 76.7188 13.9648C76.7643 13.9844 76.8229 14.0039 76.8945 14.0234C76.9661 14.0365 77.041 14.0527 77.1191 14.0723C77.2038 14.0918 77.2852 14.1146 77.3633 14.1406C77.4479 14.1667 77.526 14.1992 77.5977 14.2383C77.6367 14.2904 77.6725 14.3522 77.7051 14.4238C77.7441 14.4954 77.7637 14.5736 77.7637 14.6582C77.7637 14.7298 77.7507 14.7819 77.7246 14.8145C77.7051 14.847 77.6725 14.8796 77.627 14.9121C77.5879 14.9382 77.5228 14.9512 77.4316 14.9512L77.1191 14.9805C77.0085 14.9935 76.9076 15 76.8164 15C76.7318 15 76.6602 15 76.6016 15C76.5495 15 76.4909 14.9935 76.4258 14.9805C76.3672 14.9609 76.3021 14.9512 76.2305 14.9512C76.0482 14.9512 75.8757 14.974 75.7129 15.0195C75.5501 15.0716 75.3841 15.0977 75.2148 15.0977L74.7754 14.9512L74.1504 15.0977H73.9844L73.8477 15C73.8346 15 73.7988 14.9967 73.7402 14.9902C73.6816 14.9772 73.597 14.9642 73.4863 14.9512C73.4603 14.9512 73.4342 14.9382 73.4082 14.9121C73.3887 14.9056 73.3561 14.8958 73.3105 14.8828C73.2715 14.8698 73.2064 14.8405 73.1152 14.7949C73.0632 14.7233 73.0371 14.6549 73.0371 14.5898V14.5605V14.4043ZM80.8594 15C80.7812 15 80.7194 15.013 80.6738 15.0391C80.6348 15.0716 80.5924 15.0879 80.5469 15.0879C80.5208 15.0879 80.4883 15.0749 80.4492 15.0488C80.4167 15.0228 80.3646 14.9902 80.293 14.9512C80.2799 14.9447 80.2702 14.9284 80.2637 14.9023C80.2637 14.8698 80.2572 14.834 80.2441 14.7949C80.2311 14.7559 80.2214 14.707 80.2148 14.6484C80.2148 14.6419 80.2214 14.6257 80.2344 14.5996C80.2539 14.5671 80.2734 14.5345 80.293 14.502C80.3125 14.4629 80.332 14.4271 80.3516 14.3945C80.3711 14.362 80.3874 14.3392 80.4004 14.3262L80.5859 14.2188H80.8008C80.9505 14.2188 81.084 14.209 81.2012 14.1895C81.3249 14.1634 81.4225 14.0885 81.4941 13.9648C81.5202 13.7435 81.5397 13.5319 81.5527 13.3301C81.5658 13.1283 81.5983 12.9297 81.6504 12.7344L81.7676 12.2754V11.3672L81.8164 10.4883V9.91211C81.8164 9.89909 81.8099 9.86654 81.7969 9.81445C81.7839 9.75586 81.7708 9.69401 81.7578 9.62891C81.7448 9.55729 81.7318 9.49219 81.7188 9.43359C81.7057 9.36849 81.6992 9.31966 81.6992 9.28711V8.35938C81.6732 8.28776 81.6309 8.19987 81.5723 8.0957C81.5137 7.99154 81.4551 7.91667 81.3965 7.87109L81.0938 7.77344C80.9831 7.69531 80.8822 7.61068 80.791 7.51953C80.7064 7.42839 80.638 7.31445 80.5859 7.17773C80.5859 7.10612 80.6022 7.05078 80.6348 7.01172C80.6673 6.97266 80.7096 6.94336 80.7617 6.92383C80.8138 6.9043 80.8691 6.88802 80.9277 6.875C80.9863 6.86198 81.0417 6.84896 81.0938 6.83594L81.8164 6.46484C81.875 6.4388 81.9238 6.41927 81.9629 6.40625C82.0085 6.38672 82.0508 6.36719 82.0898 6.34766C82.1289 6.32812 82.1647 6.30534 82.1973 6.2793C82.2363 6.25326 82.2786 6.21419 82.3242 6.16211L82.6074 6.14258C82.64 6.14258 82.6888 6.14583 82.7539 6.15234C82.8255 6.15885 82.8678 6.16211 82.8809 6.16211C82.9004 6.16211 82.9329 6.16536 82.9785 6.17188C83.0241 6.17839 83.0729 6.18815 83.125 6.20117C83.1771 6.21419 83.2259 6.22721 83.2715 6.24023C83.3171 6.25326 83.3496 6.26302 83.3691 6.26953C83.4277 6.29557 83.4635 6.35091 83.4766 6.43555C83.4961 6.51367 83.5059 6.58529 83.5059 6.65039V6.96289L83.4375 7.19727C83.4049 7.62044 83.3887 8.03711 83.3887 8.44727C83.3887 8.85742 83.3822 9.2806 83.3691 9.7168L83.3203 10.0684C83.3138 10.0749 83.3073 10.0977 83.3008 10.1367C83.3008 10.1758 83.3008 10.2214 83.3008 10.2734C83.3008 10.3255 83.3008 10.3776 83.3008 10.4297C83.3008 10.4753 83.3008 10.5111 83.3008 10.5371C83.3008 10.5827 83.3008 10.6348 83.3008 10.6934C83.3008 10.752 83.3008 10.8073 83.3008 10.8594C83.3008 10.9115 83.3008 10.957 83.3008 10.9961C83.3073 11.0286 83.3138 11.0449 83.3203 11.0449C83.3203 11.0645 83.3268 11.11 83.3398 11.1816C83.3529 11.2467 83.3626 11.2858 83.3691 11.2988V11.5039C83.3691 11.5234 83.3659 11.5755 83.3594 11.6602C83.3529 11.7448 83.3464 11.8424 83.3398 11.9531C83.3333 12.0573 83.3268 12.1615 83.3203 12.2656C83.3203 12.3633 83.3203 12.4349 83.3203 12.4805C83.3203 12.5391 83.3236 12.6335 83.3301 12.7637C83.3431 12.8874 83.3561 13.0208 83.3691 13.1641C83.3887 13.3073 83.4049 13.444 83.418 13.5742C83.431 13.6979 83.4375 13.7858 83.4375 13.8379C83.4375 13.9095 83.4733 13.9681 83.5449 14.0137C83.623 14.0527 83.6849 14.0788 83.7305 14.0918C83.75 14.0918 83.7891 14.0951 83.8477 14.1016C83.9128 14.1081 83.9811 14.1146 84.0527 14.1211C84.1243 14.1276 84.1895 14.1341 84.248 14.1406C84.3132 14.1406 84.3587 14.1406 84.3848 14.1406C84.4303 14.1927 84.4661 14.248 84.4922 14.3066C84.5247 14.3652 84.541 14.4401 84.541 14.5312C84.541 14.6224 84.5312 14.7103 84.5117 14.7949C84.4987 14.8796 84.4629 14.9382 84.4043 14.9707C84.3262 15.0358 84.2383 15.0716 84.1406 15.0781C84.0495 15.0911 83.9518 15.0977 83.8477 15.0977H83.6719L83.4375 15H82.2363C82.2298 15 82.1875 14.9935 82.1094 14.9805C82.0312 14.9609 81.9792 14.9512 81.9531 14.9512H81.6797L80.8594 15ZM81.1426 2.06055L81.4453 1.75781L81.7676 1.50391L81.8652 1.29883C81.9434 1.24023 82.0312 1.20768 82.1289 1.20117C82.2266 1.18815 82.3145 1.18164 82.3926 1.18164H82.4902C82.4967 1.18815 82.5163 1.19792 82.5488 1.21094C82.5814 1.22396 82.6139 1.23698 82.6465 1.25C82.679 1.26302 82.7083 1.27604 82.7344 1.28906C82.7669 1.29557 82.7897 1.29883 82.8027 1.29883C82.8288 1.31185 82.8678 1.32487 82.9199 1.33789C82.9785 1.3444 83.0371 1.35417 83.0957 1.36719C83.1543 1.3737 83.2096 1.38021 83.2617 1.38672C83.3138 1.38672 83.3496 1.38672 83.3691 1.38672C83.3952 1.39323 83.4245 1.43229 83.457 1.50391C83.4896 1.57552 83.5156 1.6569 83.5352 1.74805C83.5612 1.83268 83.5807 1.91732 83.5938 2.00195C83.6133 2.08008 83.623 2.13216 83.623 2.1582C83.623 2.32096 83.6035 2.47396 83.5645 2.61719C83.5319 2.75391 83.4505 2.8776 83.3203 2.98828C83.3138 2.99479 83.2943 3.00456 83.2617 3.01758C83.2357 3.02409 83.2064 3.03385 83.1738 3.04688C83.1413 3.05339 83.1087 3.06315 83.0762 3.07617C83.0501 3.08268 83.0371 3.08594 83.0371 3.08594C83.0306 3.09896 83.0143 3.12174 82.9883 3.1543C82.9622 3.18034 82.9329 3.20964 82.9004 3.24219C82.8678 3.26823 82.8353 3.29427 82.8027 3.32031C82.7702 3.33984 82.7507 3.35286 82.7441 3.35938C82.7051 3.40495 82.6465 3.43099 82.5684 3.4375C82.4967 3.44401 82.4284 3.44727 82.3633 3.44727H81.9824C81.9108 3.44727 81.849 3.44401 81.7969 3.4375C81.7448 3.42448 81.6732 3.38216 81.582 3.31055C81.4714 3.14779 81.3672 2.99805 81.2695 2.86133C81.1719 2.72461 81.123 2.55208 81.123 2.34375L81.1426 2.06055ZM91.6504 14.4043C91.4746 14.4564 91.3021 14.515 91.1328 14.5801C90.9635 14.6452 90.7943 14.707 90.625 14.7656C90.4557 14.8242 90.2832 14.8763 90.1074 14.9219C89.9316 14.9609 89.7526 14.9805 89.5703 14.9805H89.4531C89.3359 14.9805 89.196 14.9577 89.0332 14.9121C88.877 14.8665 88.7305 14.8047 88.5938 14.7266C88.0859 14.6549 87.6562 14.4922 87.3047 14.2383C86.9531 13.9844 86.6504 13.6816 86.3965 13.3301C86.3379 13.2389 86.2923 13.138 86.2598 13.0273C86.2337 12.9102 86.2044 12.7962 86.1719 12.6855L85.791 11.9629C85.791 11.9499 85.7878 11.9271 85.7812 11.8945C85.7747 11.862 85.765 11.8066 85.752 11.7285C85.7454 11.6439 85.7389 11.5267 85.7324 11.377C85.7259 11.2207 85.7227 11.0156 85.7227 10.7617C85.7812 10.6901 85.8171 10.625 85.8301 10.5664C85.8496 10.5013 85.8594 10.4297 85.8594 10.3516L85.8398 9.98047L85.8594 9.83398L85.9766 9.52148C85.9961 9.45638 86.0124 9.37174 86.0254 9.26758C86.0384 9.16341 86.0482 9.05599 86.0547 8.94531C86.0677 8.83464 86.0807 8.73047 86.0938 8.63281C86.1133 8.52865 86.1393 8.44401 86.1719 8.37891C86.2044 8.30078 86.2467 8.25195 86.2988 8.23242C86.3574 8.21289 86.4193 8.17708 86.4844 8.125L86.7383 7.82227C86.9271 7.54883 87.1126 7.32747 87.2949 7.1582C87.4837 6.98893 87.6823 6.85221 87.8906 6.74805C88.1055 6.63737 88.3366 6.54948 88.584 6.48438C88.8379 6.41276 89.1211 6.34115 89.4336 6.26953C89.6224 6.21745 89.8112 6.16536 90 6.11328C90.1953 6.05469 90.3906 6.02539 90.5859 6.02539C90.6706 6.02539 90.7454 6.04818 90.8105 6.09375C90.8822 6.13932 90.9473 6.16211 91.0059 6.16211C91.0579 6.16211 91.1361 6.1556 91.2402 6.14258C91.3444 6.12305 91.4518 6.10026 91.5625 6.07422C91.6732 6.04167 91.7708 6.00586 91.8555 5.9668C91.9466 5.92773 92.002 5.88542 92.0215 5.83984C92.1257 5.5013 92.2005 5.14648 92.2461 4.77539C92.2982 4.4043 92.3242 4.03971 92.3242 3.68164C92.3242 3.59049 92.3145 3.48633 92.2949 3.36914C92.2819 3.24544 92.2754 3.125 92.2754 3.00781C92.2754 2.9362 92.2819 2.87109 92.2949 2.8125C92.3145 2.7474 92.3242 2.67578 92.3242 2.59766C92.3242 2.5 92.3014 2.42188 92.2559 2.36328C92.2168 2.29818 92.1647 2.24284 92.0996 2.19727C92.0345 2.14518 91.9596 2.09635 91.875 2.05078C91.7904 1.9987 91.709 1.9401 91.6309 1.875C91.5853 1.84245 91.5462 1.8099 91.5137 1.77734C91.4811 1.74479 91.4453 1.71224 91.4062 1.67969C91.3737 1.64714 91.3314 1.61133 91.2793 1.57227C91.2337 1.5332 91.1719 1.48763 91.0938 1.43555C91.0677 1.38997 91.0384 1.3444 91.0059 1.29883C90.9733 1.24674 90.957 1.19466 90.957 1.14258C90.957 1.08398 90.9766 1.02865 91.0156 0.976562C91.0547 0.924479 91.097 0.885417 91.1426 0.859375C91.2402 0.794271 91.3574 0.738932 91.4941 0.693359C91.6309 0.641276 91.7676 0.595703 91.9043 0.556641C92.0475 0.517578 92.1777 0.485026 92.2949 0.458984C92.4186 0.432943 92.513 0.410156 92.5781 0.390625H93.7109C93.8216 0.390625 93.9225 0.416667 94.0137 0.46875C94.1048 0.520833 94.1829 0.585938 94.248 0.664062C94.3197 0.742188 94.375 0.830078 94.4141 0.927734C94.4531 1.02539 94.4727 1.11979 94.4727 1.21094C94.4727 1.4974 94.4401 1.76758 94.375 2.02148C94.3164 2.26888 94.2871 2.51628 94.2871 2.76367V3.64258L94.0332 4.54102C94.0332 4.69076 94.0527 4.83398 94.0918 4.9707C94.1309 5.10742 94.1504 5.23438 94.1504 5.35156C94.1504 5.48828 94.1211 5.61523 94.0625 5.73242C94.0104 5.8431 93.9844 5.96354 93.9844 6.09375L93.916 6.92383L94.0332 7.59766L93.916 8.63281L94.0332 10.5078L93.8281 11.8262V12.5488C93.8281 12.7246 93.8379 12.9069 93.8574 13.0957C93.8835 13.278 93.929 13.444 93.9941 13.5938C94.0658 13.737 94.1634 13.8574 94.2871 13.9551C94.4108 14.0462 94.5736 14.0918 94.7754 14.0918C94.9121 14.0918 95.0391 14.082 95.1562 14.0625C95.2799 14.043 95.3841 14.0332 95.4688 14.0332C95.5729 14.0332 95.6413 14.0723 95.6738 14.1504C95.7064 14.222 95.7227 14.3066 95.7227 14.4043C95.7227 14.5475 95.6901 14.6615 95.625 14.7461C95.5664 14.8307 95.485 14.8958 95.3809 14.9414C95.2832 14.987 95.166 15.0163 95.0293 15.0293C94.8991 15.0423 94.7624 15.0488 94.6191 15.0488L94.0332 15L93.457 15.0879C93.3659 15.0879 93.2747 15.1107 93.1836 15.1562C93.0924 15.2083 93.0046 15.2344 92.9199 15.2344C92.627 15.2344 92.4056 15.1595 92.2559 15.0098C92.1061 14.86 91.9889 14.6582 91.9043 14.4043H91.6504ZM87.5586 10.2051C87.5586 10.5957 87.5879 10.9603 87.6465 11.2988C87.7051 11.6374 87.8027 11.9499 87.9395 12.2363C88.0762 12.5163 88.2552 12.7669 88.4766 12.9883C88.6979 13.2031 88.9714 13.3822 89.2969 13.5254C89.4922 13.623 89.6875 13.724 89.8828 13.8281C90.0781 13.9323 90.2962 13.9844 90.5371 13.9844C90.5892 13.9844 90.6934 13.9746 90.8496 13.9551C91.0059 13.9355 91.1654 13.9062 91.3281 13.8672C91.4974 13.8216 91.6504 13.7663 91.7871 13.7012C91.9238 13.6361 92.002 13.5579 92.0215 13.4668C92.0345 13.4342 92.041 13.4082 92.041 13.3887C92.041 13.3691 92.041 13.3431 92.041 13.3105C92.041 13.278 92.0378 13.2552 92.0312 13.2422C92.0247 13.2227 92.0215 13.1999 92.0215 13.1738C92.0215 13.1087 92.0378 13.0371 92.0703 12.959C92.0833 12.946 92.1061 12.9199 92.1387 12.8809C92.1777 12.8353 92.2135 12.7865 92.2461 12.7344C92.2852 12.6758 92.3177 12.6172 92.3438 12.5586C92.3763 12.4935 92.3926 12.4349 92.3926 12.3828C92.3926 12.2461 92.373 12.1061 92.334 11.9629C92.2949 11.8197 92.2754 11.6667 92.2754 11.5039L92.2559 11.1621C92.2559 11.1035 92.2624 11.0449 92.2754 10.9863C92.2884 10.9212 92.3112 10.8691 92.3438 10.8301V8.73047L92.2754 8.54492L92.1191 7.82227C92.1061 7.76367 92.054 7.68555 91.9629 7.58789C91.8717 7.48372 91.7643 7.37956 91.6406 7.27539C91.5234 7.17122 91.403 7.08008 91.2793 7.00195C91.1621 6.91732 91.071 6.86849 91.0059 6.85547C90.9473 6.86849 90.8887 6.875 90.8301 6.875C90.778 6.875 90.7292 6.875 90.6836 6.875H89.6875C89.4661 6.875 89.2611 6.93359 89.0723 7.05078C88.8835 7.16797 88.7077 7.32422 88.5449 7.51953C88.3887 7.70833 88.2487 7.92318 88.125 8.16406C88.0013 8.40495 87.8971 8.64909 87.8125 8.89648C87.7344 9.14388 87.6725 9.38477 87.627 9.61914C87.5814 9.84701 87.5586 10.0423 87.5586 10.2051ZM96.3281 10.7227C96.3281 10.6901 96.3346 10.6283 96.3477 10.5371C96.3607 10.4395 96.3737 10.3385 96.3867 10.2344C96.4062 10.1237 96.4193 10.0195 96.4258 9.92188C96.4388 9.82422 96.4453 9.75911 96.4453 9.72656C96.4714 9.41406 96.5397 9.09505 96.6504 8.76953C96.7676 8.44401 96.9141 8.13151 97.0898 7.83203C97.2656 7.52604 97.4674 7.24609 97.6953 6.99219C97.9297 6.73828 98.1836 6.52344 98.457 6.34766C98.4635 6.33464 98.4961 6.31185 98.5547 6.2793C98.6198 6.24674 98.6882 6.21419 98.7598 6.18164C98.8314 6.14909 98.8997 6.11654 98.9648 6.08398C99.0299 6.05143 99.069 6.02865 99.082 6.01562C99.1276 5.99609 99.1862 5.96354 99.2578 5.91797C99.3359 5.86589 99.4141 5.81706 99.4922 5.77148C99.5703 5.7194 99.6484 5.67383 99.7266 5.63477C99.8047 5.5957 99.8763 5.57617 99.9414 5.57617C100 5.57617 100.046 5.58268 100.078 5.5957C100.117 5.60872 100.163 5.62826 100.215 5.6543C100.326 5.64128 100.43 5.63151 100.527 5.625C100.632 5.61198 100.736 5.60547 100.84 5.60547C100.951 5.60547 101.055 5.61198 101.152 5.625C101.25 5.63151 101.354 5.64128 101.465 5.6543C101.465 5.6543 101.478 5.66081 101.504 5.67383C101.53 5.68034 101.559 5.6901 101.592 5.70312C101.624 5.71615 101.657 5.72917 101.689 5.74219C101.722 5.75521 101.748 5.76497 101.768 5.77148C101.787 5.77799 101.826 5.79753 101.885 5.83008C101.943 5.85612 102.008 5.88867 102.08 5.92773C102.152 5.9668 102.22 6.0026 102.285 6.03516C102.35 6.0612 102.396 6.07747 102.422 6.08398C102.422 6.09049 102.445 6.10026 102.49 6.11328C102.536 6.1263 102.565 6.13281 102.578 6.13281L102.969 6.34766L103.848 7.14844C103.874 7.18099 103.913 7.26888 103.965 7.41211C104.023 7.54883 104.079 7.70182 104.131 7.87109C104.189 8.03385 104.238 8.1901 104.277 8.33984C104.323 8.48958 104.346 8.58724 104.346 8.63281C104.346 8.72396 104.32 8.79883 104.268 8.85742C104.215 8.90951 104.154 8.95508 104.082 8.99414C104.01 9.02669 103.932 9.05273 103.848 9.07227C103.77 9.08529 103.701 9.09505 103.643 9.10156H103.604C103.538 9.10807 103.431 9.11458 103.281 9.12109C103.138 9.1276 102.985 9.13411 102.822 9.14062C102.666 9.14062 102.516 9.14388 102.373 9.15039C102.236 9.15039 102.142 9.15039 102.09 9.15039C102.018 9.18294 101.953 9.20247 101.895 9.20898C101.842 9.21549 101.787 9.21875 101.729 9.21875L101.035 9.15039C100.905 9.15039 100.768 9.17318 100.625 9.21875C100.488 9.26432 100.355 9.28711 100.225 9.28711C100.14 9.28711 100.055 9.25781 99.9707 9.19922C99.8926 9.13411 99.8047 9.10156 99.707 9.10156C99.694 9.10156 99.6582 9.11784 99.5996 9.15039C99.5475 9.17643 99.5085 9.18945 99.4824 9.18945L98.7402 9.14062C98.6361 9.14062 98.5384 9.16016 98.4473 9.19922C98.3561 9.23828 98.252 9.30664 98.1348 9.4043C98.1152 9.57357 98.1022 9.72331 98.0957 9.85352C98.0892 9.97721 98.0859 10.1172 98.0859 10.2734C98.0859 10.4102 98.0924 10.5208 98.1055 10.6055C98.125 10.6901 98.151 10.7715 98.1836 10.8496C98.2161 10.9212 98.2552 10.9961 98.3008 11.0742C98.3464 11.1458 98.3984 11.237 98.457 11.3477L98.5547 11.5332C98.724 11.9043 98.9421 12.2038 99.209 12.4316C99.4759 12.6595 99.821 12.8385 100.244 12.9688C100.244 13.0013 100.29 13.0339 100.381 13.0664C100.479 13.0924 100.586 13.112 100.703 13.125C100.84 13.151 100.996 13.1673 101.172 13.1738C101.387 13.1738 101.608 13.1608 101.836 13.1348C102.064 13.1087 102.285 13.0664 102.5 13.0078C102.715 12.9492 102.917 12.8711 103.105 12.7734C103.301 12.6758 103.467 12.5553 103.604 12.4121H103.76C103.838 12.4121 103.89 12.4251 103.916 12.4512C103.949 12.4707 103.981 12.5326 104.014 12.6367C103.994 12.8255 103.965 12.9948 103.926 13.1445C103.893 13.2878 103.844 13.418 103.779 13.5352C103.721 13.6523 103.643 13.763 103.545 13.8672C103.447 13.9648 103.32 14.0658 103.164 14.1699C103.112 14.209 103.063 14.2383 103.018 14.2578C102.972 14.2708 102.93 14.2839 102.891 14.2969C102.852 14.3099 102.809 14.3294 102.764 14.3555C102.725 14.3815 102.679 14.4271 102.627 14.4922L101.582 15.0195L101.465 15L100.732 15.1172C100.186 15.1172 99.694 15.0391 99.2578 14.8828C98.8216 14.7266 98.431 14.5052 98.0859 14.2188C97.7474 13.9258 97.4512 13.5775 97.1973 13.1738C96.9499 12.7702 96.7383 12.3242 96.5625 11.8359C96.5039 11.6602 96.4681 11.4811 96.4551 11.2988C96.4421 11.11 96.3997 10.918 96.3281 10.7227ZM98.252 8.05664C98.252 8.08919 98.2552 8.13802 98.2617 8.20312C98.2747 8.26823 98.291 8.33333 98.3105 8.39844C98.3301 8.46354 98.3529 8.52214 98.3789 8.57422C98.4049 8.6263 98.431 8.6556 98.457 8.66211H98.7598L100.059 8.45703L100.889 8.52539C101.032 8.52539 101.159 8.51237 101.27 8.48633C101.387 8.46029 101.514 8.43099 101.65 8.39844C101.774 8.37891 101.878 8.36263 101.963 8.34961C102.054 8.33008 102.126 8.29753 102.178 8.25195C102.236 8.20638 102.279 8.14779 102.305 8.07617C102.331 7.99805 102.344 7.89062 102.344 7.75391C102.344 7.52604 102.282 7.32747 102.158 7.1582C102.035 6.98893 101.878 6.84896 101.689 6.73828C101.507 6.62109 101.305 6.53646 101.084 6.48438C100.869 6.42578 100.667 6.39648 100.479 6.39648C100.433 6.39648 100.368 6.40951 100.283 6.43555C100.199 6.45508 100.101 6.48438 99.9902 6.52344C99.8861 6.55599 99.7754 6.59505 99.6582 6.64062C99.5475 6.67969 99.4434 6.72526 99.3457 6.77734C99.2546 6.82292 99.1732 6.86849 99.1016 6.91406C99.0299 6.95312 98.9844 6.98893 98.9648 7.02148L98.7598 7.46094C98.7207 7.50651 98.6719 7.54883 98.6133 7.58789C98.5547 7.62695 98.4961 7.66927 98.4375 7.71484C98.3854 7.76042 98.3398 7.8125 98.3008 7.87109C98.2682 7.92318 98.252 7.98503 98.252 8.05664ZM105.479 14.4043C105.479 14.3522 105.511 14.3164 105.576 14.2969C105.648 14.2708 105.7 14.2415 105.732 14.209C105.804 14.1309 105.885 14.0755 105.977 14.043C106.074 14.0104 106.143 13.9844 106.182 13.9648C106.234 13.9323 106.27 13.8932 106.289 13.8477C106.309 13.7956 106.354 13.7565 106.426 13.7305L106.66 13.6523C106.699 13.6523 106.732 13.623 106.758 13.5645C106.784 13.5059 106.8 13.4733 106.807 13.4668C106.8 13.4342 106.797 13.3789 106.797 13.3008C106.797 13.2227 106.797 13.1478 106.797 13.0762C106.797 12.985 106.797 12.9036 106.797 12.832C106.797 12.7539 106.8 12.6888 106.807 12.6367L106.865 12.3438V10.8398C106.865 10.8268 106.868 10.7975 106.875 10.752C106.882 10.7064 106.888 10.6576 106.895 10.6055C106.901 10.5534 106.908 10.5046 106.914 10.459C106.921 10.4134 106.927 10.3841 106.934 10.3711V10.3027C106.927 10.2637 106.921 10.2051 106.914 10.127C106.908 10.0423 106.901 9.96094 106.895 9.88281C106.888 9.79818 106.882 9.72331 106.875 9.6582C106.868 9.5931 106.865 9.55404 106.865 9.54102C106.859 9.52148 106.852 9.48893 106.846 9.44336C106.839 9.39779 106.833 9.34896 106.826 9.29688C106.82 9.24479 106.813 9.19596 106.807 9.15039C106.807 9.10482 106.807 9.07227 106.807 9.05273C106.787 8.96159 106.755 8.8737 106.709 8.78906C106.663 8.70443 106.611 8.6263 106.553 8.55469C106.494 8.47656 106.432 8.40169 106.367 8.33008C106.302 8.25195 106.24 8.17708 106.182 8.10547C106.175 8.10547 106.152 8.08268 106.113 8.03711C106.074 7.98503 106.055 7.95247 106.055 7.93945L105.479 7.40234L105.947 6.92383C105.96 6.91732 105.986 6.9043 106.025 6.88477C106.071 6.86523 106.117 6.8457 106.162 6.82617C106.214 6.80013 106.263 6.77734 106.309 6.75781C106.361 6.73828 106.4 6.72526 106.426 6.71875C106.439 6.70573 106.465 6.69596 106.504 6.68945C106.549 6.67643 106.595 6.66667 106.641 6.66016C106.693 6.65365 106.738 6.65039 106.777 6.65039C106.823 6.64388 106.852 6.64062 106.865 6.64062C106.989 6.60156 107.1 6.54948 107.197 6.48438C107.301 6.41276 107.402 6.3444 107.5 6.2793C107.598 6.20768 107.695 6.14583 107.793 6.09375C107.897 6.04167 108.014 6.01562 108.145 6.01562H108.301C108.307 6.02214 108.343 6.05794 108.408 6.12305C108.473 6.18164 108.522 6.22396 108.555 6.25C108.6 6.32161 108.623 6.41276 108.623 6.52344C108.623 6.6276 108.626 6.73177 108.633 6.83594C108.639 6.93359 108.662 7.01823 108.701 7.08984C108.74 7.16146 108.825 7.19727 108.955 7.19727C108.975 7.19727 108.994 7.19727 109.014 7.19727C109.04 7.19727 109.053 7.19076 109.053 7.17773C109.079 7.17122 109.115 7.1582 109.16 7.13867C109.206 7.11263 109.251 7.08333 109.297 7.05078C109.349 7.01823 109.395 6.98568 109.434 6.95312C109.479 6.92057 109.512 6.89453 109.531 6.875L109.932 6.57227C109.945 6.55924 109.987 6.52995 110.059 6.48438C110.13 6.43229 110.179 6.39323 110.205 6.36719C110.212 6.36719 110.238 6.36719 110.283 6.36719C110.329 6.36068 110.374 6.35742 110.42 6.35742C110.472 6.35091 110.521 6.3444 110.566 6.33789C110.612 6.33138 110.645 6.32487 110.664 6.31836C110.671 6.31836 110.69 6.31185 110.723 6.29883C110.762 6.28581 110.801 6.27279 110.84 6.25977C110.885 6.24674 110.924 6.23372 110.957 6.2207C110.99 6.20768 111.009 6.20117 111.016 6.20117H111.123C111.273 6.20117 111.393 6.24674 111.484 6.33789C111.582 6.42904 111.67 6.52995 111.748 6.64062C111.794 6.69922 111.82 6.78385 111.826 6.89453C111.839 6.9987 111.862 7.07682 111.895 7.12891C111.895 7.14844 111.904 7.16797 111.924 7.1875L111.963 7.22656C111.963 7.53906 111.917 7.81901 111.826 8.06641C111.742 8.30729 111.595 8.5026 111.387 8.65234C111.328 8.66536 111.26 8.67839 111.182 8.69141C111.104 8.69792 111.038 8.70117 110.986 8.70117C110.85 8.70117 110.749 8.69466 110.684 8.68164C110.618 8.66211 110.57 8.63607 110.537 8.60352C110.505 8.57096 110.475 8.52865 110.449 8.47656C110.43 8.42448 110.394 8.36263 110.342 8.29102C110.296 8.23242 110.241 8.18685 110.176 8.1543C110.117 8.11523 110.059 8.08919 110 8.07617C109.941 8.05664 109.886 8.04362 109.834 8.03711C109.788 8.0306 109.759 8.02734 109.746 8.02734L109.326 7.95898L108.975 8.05664L108.857 8.21289C108.825 8.2194 108.779 8.25195 108.721 8.31055C108.662 8.36263 108.604 8.42448 108.545 8.49609C108.493 8.5612 108.447 8.63281 108.408 8.71094C108.369 8.78255 108.35 8.84115 108.35 8.88672L108.301 9.58984L108.35 9.86328V10.3711C108.35 10.3841 108.353 10.4232 108.359 10.4883C108.372 10.5469 108.385 10.5924 108.398 10.625L108.33 11.5039L108.398 11.8359C108.398 11.8815 108.385 11.9271 108.359 11.9727C108.34 12.0182 108.33 12.0768 108.33 12.1484L108.398 12.4805L108.33 12.8418C108.33 12.8483 108.33 12.8581 108.33 12.8711C108.33 12.8841 108.337 12.8906 108.35 12.8906C108.356 12.9297 108.376 12.985 108.408 13.0566C108.447 13.1283 108.486 13.2031 108.525 13.2812C108.571 13.3594 108.61 13.4342 108.643 13.5059C108.682 13.571 108.708 13.6198 108.721 13.6523C108.721 13.6589 108.727 13.6719 108.74 13.6914C108.753 13.7109 108.77 13.7207 108.789 13.7207C108.848 13.7533 108.903 13.7956 108.955 13.8477C109.014 13.8997 109.082 13.9388 109.16 13.9648C109.206 13.9844 109.264 14.0039 109.336 14.0234C109.408 14.0365 109.482 14.0527 109.561 14.0723C109.645 14.0918 109.727 14.1146 109.805 14.1406C109.889 14.1667 109.967 14.1992 110.039 14.2383C110.078 14.2904 110.114 14.3522 110.146 14.4238C110.186 14.4954 110.205 14.5736 110.205 14.6582C110.205 14.7298 110.192 14.7819 110.166 14.8145C110.146 14.847 110.114 14.8796 110.068 14.9121C110.029 14.9382 109.964 14.9512 109.873 14.9512L109.561 14.9805C109.45 14.9935 109.349 15 109.258 15C109.173 15 109.102 15 109.043 15C108.991 15 108.932 14.9935 108.867 14.9805C108.809 14.9609 108.743 14.9512 108.672 14.9512C108.49 14.9512 108.317 14.974 108.154 15.0195C107.992 15.0716 107.826 15.0977 107.656 15.0977L107.217 14.9512L106.592 15.0977H106.426L106.289 15C106.276 15 106.24 14.9967 106.182 14.9902C106.123 14.9772 106.038 14.9642 105.928 14.9512C105.902 14.9512 105.876 14.9382 105.85 14.9121C105.83 14.9056 105.798 14.8958 105.752 14.8828C105.713 14.8698 105.648 14.8405 105.557 14.7949C105.505 14.7233 105.479 14.6549 105.479 14.5898V14.5605V14.4043Z" fill="#D21E6A"/>
</svg>
