<svg width="56" height="20" viewBox="0 0 56 20" fill="none" xmlns="http://www.w3.org/2000/svg">
<rect width="56" height="20" rx="10" fill="#D21E6A"/>
<rect x="4" y="2" width="16" height="16" rx="8" fill="white"/>
<path fill-rule="evenodd" clip-rule="evenodd" d="M12.0001 12.2849L11.3483 14.2193C11.084 15.0024 10.1609 15.2719 9.61475 14.6792C9.4989 14.709 9.37801 14.7126 9.26064 14.6897C9.14327 14.6669 9.0323 14.6182 8.93561 14.5471C8.83892 14.4759 8.75887 14.3841 8.70115 14.2782C8.64343 14.1722 8.60945 14.0547 8.60162 13.9339C7.87705 13.5911 7.84346 12.6186 8.49897 12.1224L10.115 10.8978L8.09655 10.8691C7.27866 10.857 6.74111 10.0508 7.12822 9.34218C7.06463 9.23973 7.02404 9.1244 7.00932 9.00432C6.9946 8.88424 7.00611 8.76236 7.04304 8.64728C7.07996 8.53221 7.1414 8.42675 7.22301 8.33836C7.30462 8.24997 7.40441 8.1808 7.51533 8.13576C7.6135 7.33185 8.51651 6.99963 9.18509 7.47699L10.8347 8.65468L10.2374 6.70218C9.99738 5.9134 10.5831 5.14086 11.3734 5.29809C11.4499 5.2051 11.5457 5.13028 11.654 5.07894C11.7623 5.02759 11.8804 5.00098 11.9999 5.00098C12.1195 5.00098 12.2376 5.02759 12.3459 5.07894C12.4542 5.13028 12.55 5.2051 12.6265 5.29809C13.416 5.14086 14.0021 5.9134 13.7625 6.70218L13.1652 8.65468L14.8148 7.47661C15.4834 6.99925 16.386 7.33147 16.4845 8.13576C16.5955 8.18071 16.6953 8.2498 16.777 8.33815C16.8586 8.4265 16.9201 8.53194 16.957 8.64701C16.9939 8.76207 17.0054 8.88395 16.9907 9.00402C16.9759 9.12409 16.9353 9.2394 16.8716 9.3418C17.2588 10.0508 16.7223 10.8566 15.9033 10.8687L13.8853 10.8978L15.5013 12.122C16.156 12.6179 16.1236 13.5907 15.3982 13.9335C15.3904 14.0543 15.3564 14.1718 15.2987 14.2778C15.241 14.3837 15.1609 14.4755 15.0643 14.5467C14.9676 14.6178 14.8566 14.6665 14.7392 14.6894C14.6219 14.7122 14.501 14.7086 14.3851 14.6789C13.8397 15.2711 12.9158 15.0024 12.6515 14.2185L12.0001 12.2849Z" fill="#FD8F9F"/>
<path fill-rule="evenodd" clip-rule="evenodd" d="M12.0001 12.2843V5H12.0356C12.1491 5.00495 12.2604 5.0339 12.3622 5.085C12.4641 5.1361 12.5542 5.20821 12.6269 5.29669C13.4048 5.14551 14.0044 5.90746 13.7617 6.70078L13.1644 8.65328L14.814 7.47521C15.4826 6.99785 16.3849 7.33007 16.4838 8.13436C16.5947 8.17931 16.6946 8.2484 16.7762 8.33675C16.8579 8.4251 16.9193 8.53054 16.9563 8.64561C16.9932 8.76067 17.0047 8.88255 16.99 9.00262C16.9752 9.12269 16.9346 9.238 16.8709 9.3404C17.2584 10.0494 16.7216 10.8552 15.9026 10.8673L13.8845 10.8964L15.5005 12.1206C16.1553 12.6165 16.1224 13.5893 15.3975 13.9321C15.3897 14.0529 15.3557 14.1704 15.298 14.2764C15.2402 14.3823 15.1602 14.4741 15.0635 14.5453C14.9668 14.6164 14.8559 14.6651 14.7385 14.688C14.6211 14.7108 14.5002 14.7072 14.3844 14.6775C13.839 15.2701 12.9151 15.001 12.6508 14.2171L12.0001 12.2843Z" fill="#FD697F"/>
<path d="M12.753 11.0267C13.1692 10.6053 13.1692 9.92206 12.753 9.50067C12.3368 9.07927 11.662 9.07927 11.2458 9.50067C10.8296 9.92206 10.8296 10.6053 11.2458 11.0267C11.662 11.4481 12.3368 11.4481 12.753 11.0267Z" fill="#FFDA44"/>
<path fill-rule="evenodd" clip-rule="evenodd" d="M11.9995 9.18408C12.2788 9.18937 12.5448 9.3054 12.7405 9.50723C12.9361 9.70905 13.0457 9.98054 13.0457 10.2633C13.0457 10.5461 12.9361 10.8176 12.7405 11.0194C12.5448 11.2212 12.2788 11.3373 11.9995 11.3426V9.18408Z" fill="#FFB655"/>
<path d="M28.4062 7.28125L28.2148 7.08203C28.1497 7.02474 28.0885 6.97786 28.0312 6.94141C27.9766 6.90495 27.9219 6.8763 27.8672 6.85547C27.8125 6.83203 27.7565 6.81641 27.6992 6.80859C27.6445 6.80078 27.5833 6.79688 27.5156 6.79688C27.4922 6.79688 27.4779 6.79948 27.4727 6.80469C27.4023 6.80469 27.3464 6.80469 27.3047 6.80469C27.2656 6.80469 27.2357 6.80469 27.2148 6.80469C27.194 6.80469 27.1797 6.80599 27.1719 6.80859C27.1667 6.80859 27.1641 6.80859 27.1641 6.80859H26.8633C26.819 6.82161 26.7734 6.82943 26.7266 6.83203C26.6797 6.83464 26.6341 6.83594 26.5898 6.83594C26.4909 6.83594 26.4154 6.83724 26.3633 6.83984C26.3138 6.84245 26.2734 6.85286 26.2422 6.87109C26.2135 6.88151 26.1966 6.89583 26.1914 6.91406C26.1862 6.92969 26.1836 6.94401 26.1836 6.95703C26.1836 7.01172 26.1758 7.05208 26.1602 7.07812C26.1471 7.10156 26.1185 7.1276 26.0742 7.15625C26.0664 7.16146 26.0599 7.17448 26.0547 7.19531C26.0521 7.21615 26.0482 7.23958 26.043 7.26562C26.0404 7.29167 26.0378 7.31771 26.0352 7.34375C26.0352 7.36979 26.0352 7.39062 26.0352 7.40625C26.0352 7.46615 26.0443 7.52344 26.0625 7.57812C26.0807 7.63281 26.0898 7.69401 26.0898 7.76172L26.0547 8.00781C26.0547 8.06771 26.0677 8.1276 26.0938 8.1875C26.1224 8.2474 26.1367 8.3125 26.1367 8.38281L26.0742 8.96484C26.0742 8.98828 26.0846 9.01562 26.1055 9.04688C26.1263 9.07552 26.1432 9.09766 26.1562 9.11328C26.237 9.1237 26.319 9.13932 26.4023 9.16016C26.4857 9.17839 26.5677 9.1875 26.6484 9.1875C26.6667 9.1875 26.6823 9.1862 26.6953 9.18359C26.7109 9.17839 26.7253 9.16146 26.7383 9.13281C26.7669 9.13021 26.8008 9.1276 26.8398 9.125C26.8815 9.1224 26.9284 9.12109 26.9805 9.12109C27.0508 9.12109 27.1263 9.12109 27.207 9.12109C27.2878 9.11849 27.3672 9.11458 27.4453 9.10938C27.5234 9.10156 27.5951 9.09115 27.6602 9.07812C27.7253 9.0625 27.776 9.04036 27.8125 9.01172C27.849 8.98828 27.8763 8.95443 27.8945 8.91016C27.9154 8.86589 27.931 8.81901 27.9414 8.76953C27.9518 8.71745 27.9609 8.66536 27.9688 8.61328C27.9766 8.5612 27.987 8.51432 28 8.47266C28.0156 8.42839 28.0365 8.39323 28.0625 8.36719C28.0911 8.33854 28.1315 8.32422 28.1836 8.32422C28.1992 8.32422 28.2135 8.32682 28.2266 8.33203C28.2422 8.33724 28.2565 8.35417 28.2695 8.38281V8.54688C28.2695 8.67188 28.2565 8.79167 28.2305 8.90625C28.2174 8.9974 28.2044 9.08073 28.1914 9.15625C28.181 9.22917 28.1758 9.30339 28.1758 9.37891C28.1758 9.44401 28.1849 9.50781 28.2031 9.57031C28.224 9.63021 28.2448 9.6901 28.2656 9.75C28.2891 9.80729 28.3099 9.86589 28.3281 9.92578C28.349 9.98568 28.3594 10.0469 28.3594 10.1094C28.3594 10.1484 28.3581 10.1784 28.3555 10.1992C28.3555 10.2174 28.3503 10.2292 28.3398 10.2344C28.3268 10.2552 28.3177 10.2708 28.3125 10.2812C28.3073 10.2917 28.293 10.2969 28.2695 10.2969C28.2305 10.2969 28.2005 10.2826 28.1797 10.2539C28.1615 10.2253 28.138 10.1966 28.1094 10.168L28.0547 10.0469C28.026 9.98438 27.9987 9.92448 27.9727 9.86719C27.9466 9.8099 27.9154 9.75651 27.8789 9.70703C27.8451 9.65495 27.8047 9.60677 27.7578 9.5625C27.7135 9.51562 27.6589 9.47396 27.5938 9.4375H27.418C27.3268 9.4375 27.2331 9.4362 27.1367 9.43359C27.0404 9.42839 26.957 9.41927 26.8867 9.40625L26.6484 9.36328C26.5807 9.36328 26.5065 9.375 26.4258 9.39844C26.3477 9.42188 26.2734 9.4349 26.2031 9.4375C26.1797 9.46615 26.1523 9.5026 26.1211 9.54688C26.0898 9.58854 26.0742 9.63411 26.0742 9.68359C26.1159 9.8763 26.151 10.0664 26.1797 10.2539C26.2083 10.4388 26.2227 10.625 26.2227 10.8125C26.2227 10.901 26.2201 10.9609 26.2148 10.9922C26.2122 11.0208 26.2083 11.0443 26.2031 11.0625C26.224 11.125 26.2526 11.181 26.2891 11.2305C26.3281 11.2773 26.3724 11.3203 26.4219 11.3594C26.4714 11.3958 26.5234 11.4297 26.5781 11.4609C26.6328 11.4922 26.6862 11.5208 26.7383 11.5469C26.7409 11.5469 26.7487 11.5547 26.7617 11.5703C26.7773 11.5859 26.7852 11.5964 26.7852 11.6016C26.7956 11.6068 26.819 11.612 26.8555 11.6172C26.8919 11.6198 26.9154 11.6211 26.9258 11.6211C26.9466 11.6211 26.9635 11.6211 26.9766 11.6211C26.9922 11.6211 27.0091 11.6185 27.0273 11.6133C27.0482 11.6107 27.0651 11.6094 27.0781 11.6094C27.0938 11.6094 27.1107 11.6094 27.1289 11.6094C27.1471 11.6094 27.1667 11.6094 27.1875 11.6094C27.2083 11.6094 27.2266 11.6107 27.2422 11.6133C27.2604 11.6185 27.2773 11.6211 27.293 11.6211C27.3112 11.6211 27.3281 11.6211 27.3438 11.6211C27.3568 11.6341 27.3724 11.6471 27.3906 11.6602C27.4115 11.6732 27.4297 11.6888 27.4453 11.707C27.4635 11.7253 27.4779 11.7448 27.4883 11.7656C27.5013 11.7865 27.5078 11.8099 27.5078 11.8359C27.5078 11.8646 27.5013 11.8945 27.4883 11.9258C27.4753 11.9544 27.457 11.9818 27.4336 12.0078C27.4128 12.0365 27.3893 12.0586 27.3633 12.0742C27.3372 12.0924 27.3112 12.1016 27.2852 12.1016H27.2773C27.2487 12.1068 27.2161 12.1094 27.1797 12.1094C27.1458 12.112 27.1159 12.1133 27.0898 12.1133C27.0534 12.1133 27.0182 12.112 26.9844 12.1094C26.9531 12.1094 26.9115 12.1068 26.8594 12.1016L26.7852 12.082C26.7409 12.0586 26.6914 12.0378 26.6367 12.0195C26.582 12.0013 26.5247 11.9857 26.4648 11.9727C26.4076 11.9596 26.349 11.9505 26.2891 11.9453C26.2318 11.9375 26.1784 11.9336 26.1289 11.9336C26.0742 11.9336 26.0273 11.9362 25.9883 11.9414C25.9492 11.944 25.8971 11.9544 25.832 11.9727C25.7721 11.9831 25.7096 11.9909 25.6445 11.9961C25.582 11.9987 25.5208 12 25.4609 12C25.3932 12 25.3294 11.9987 25.2695 11.9961C25.2122 11.9909 25.1497 11.9831 25.082 11.9727C25.0508 11.9831 25.0208 12 24.9922 12.0234C24.9661 12.0469 24.931 12.0638 24.8867 12.0742C24.8685 12.069 24.8516 12.0638 24.8359 12.0586C24.8229 12.056 24.8073 12.0547 24.7891 12.0547C24.776 12.0599 24.7565 12.0625 24.7305 12.0625H24.582C24.5221 12.0417 24.4727 12.0208 24.4336 12C24.3971 11.9792 24.3698 11.9388 24.3516 11.8789C24.3516 11.7956 24.3945 11.7253 24.4805 11.668C24.543 11.6628 24.6237 11.6458 24.7227 11.6172C24.8242 11.5885 24.9219 11.5508 25.0156 11.5039C25.1094 11.457 25.1901 11.401 25.2578 11.3359C25.3281 11.2708 25.3633 11.1992 25.3633 11.1211C25.3633 10.9831 25.3594 10.8646 25.3516 10.7656C25.3464 10.6641 25.3385 10.5664 25.3281 10.4727C25.3203 10.3789 25.3125 10.2812 25.3047 10.1797C25.2995 10.0755 25.2969 9.95052 25.2969 9.80469C25.2969 9.76042 25.3008 9.71745 25.3086 9.67578C25.319 9.63151 25.3281 9.58854 25.3359 9.54688C25.3464 9.5026 25.3555 9.45964 25.3633 9.41797C25.3737 9.3737 25.3789 9.32943 25.3789 9.28516C25.3789 9.27734 25.3776 9.26693 25.375 9.25391C25.375 9.24089 25.375 9.22786 25.375 9.21484C25.375 9.19922 25.3737 9.1862 25.3711 9.17578C25.3711 9.16276 25.3711 9.15625 25.3711 9.15625L25.3242 8.98438V8.68359C25.3242 8.63932 25.319 8.59505 25.3086 8.55078C25.2982 8.50651 25.2865 8.46224 25.2734 8.41797C25.263 8.3737 25.2526 8.33073 25.2422 8.28906C25.2344 8.24479 25.2305 8.20182 25.2305 8.16016C25.2305 8.14974 25.2318 8.13281 25.2344 8.10938C25.2396 8.08333 25.2448 8.0651 25.25 8.05469C25.2604 8.0026 25.2682 7.95052 25.2734 7.89844C25.2812 7.84375 25.2852 7.78906 25.2852 7.73438C25.2852 7.68229 25.2826 7.63151 25.2773 7.58203C25.2721 7.52995 25.263 7.47786 25.25 7.42578C25.25 7.37891 25.2383 7.33333 25.2148 7.28906C25.194 7.24219 25.1654 7.19792 25.1289 7.15625C25.0951 7.11458 25.0573 7.07812 25.0156 7.04688C24.974 7.01302 24.9349 6.98828 24.8984 6.97266C24.8516 6.95443 24.7878 6.94271 24.707 6.9375C24.6263 6.93229 24.5456 6.92318 24.4648 6.91016C24.3841 6.89453 24.3138 6.86979 24.2539 6.83594C24.1966 6.79948 24.168 6.74089 24.168 6.66016V6.60156C24.2096 6.57812 24.2604 6.55469 24.3203 6.53125C24.3828 6.50521 24.4362 6.49219 24.4805 6.49219H24.5742C24.6107 6.49219 24.6458 6.49609 24.6797 6.50391C24.7161 6.51172 24.7461 6.52995 24.7695 6.55859C24.8138 6.56641 24.8581 6.57292 24.9023 6.57812C24.9466 6.58333 24.9909 6.58594 25.0352 6.58594C25.0742 6.58594 25.1172 6.58333 25.1641 6.57812C25.2109 6.57292 25.2578 6.56641 25.3047 6.55859C25.3177 6.53776 25.3268 6.52604 25.332 6.52344C25.3398 6.52083 25.3529 6.51953 25.3711 6.51953C25.4258 6.51953 25.4792 6.52995 25.5312 6.55078C25.5833 6.57161 25.6432 6.58203 25.7109 6.58203H25.7969C25.8255 6.58203 25.8555 6.58203 25.8867 6.58203C25.918 6.57943 25.9518 6.57161 25.9883 6.55859C26.082 6.57422 26.1849 6.58203 26.2969 6.58203C26.401 6.58203 26.5065 6.57422 26.6133 6.55859C26.7096 6.52474 26.8112 6.50781 26.918 6.50781C27.0273 6.50781 27.1406 6.5026 27.2578 6.49219C27.3177 6.48698 27.3737 6.48307 27.4258 6.48047C27.4805 6.47526 27.5352 6.47266 27.5898 6.47266C27.6289 6.47266 27.6693 6.47526 27.7109 6.48047C27.7526 6.48307 27.7956 6.48698 27.8398 6.49219C27.8503 6.4974 27.8633 6.50651 27.8789 6.51953C27.8971 6.52995 27.9141 6.54167 27.9297 6.55469C27.9479 6.56771 27.9648 6.57943 27.9805 6.58984C27.9961 6.59766 28.0078 6.60156 28.0156 6.60156C28.0391 6.60156 28.0586 6.59766 28.0742 6.58984C28.0924 6.58203 28.1146 6.57161 28.1406 6.55859C28.1823 6.54818 28.2253 6.54167 28.2695 6.53906C28.3138 6.53385 28.3594 6.53125 28.4062 6.53125C28.487 6.53125 28.5677 6.54036 28.6484 6.55859C28.6536 6.55859 28.6654 6.56771 28.6836 6.58594C28.7044 6.60156 28.7253 6.61979 28.7461 6.64062C28.7695 6.65885 28.7904 6.67708 28.8086 6.69531C28.8268 6.71094 28.8372 6.72005 28.8398 6.72266V7.28125C28.8919 7.40885 28.918 7.53776 28.918 7.66797C28.918 7.69922 28.9167 7.73177 28.9141 7.76562C28.9141 7.79688 28.9089 7.82682 28.8984 7.85547C28.8906 7.88411 28.8763 7.90755 28.8555 7.92578C28.8346 7.94401 28.806 7.95312 28.7695 7.95312C28.7539 7.9349 28.7357 7.91276 28.7148 7.88672C28.694 7.86068 28.6719 7.83464 28.6484 7.80859C28.6276 7.77995 28.6068 7.7526 28.5859 7.72656C28.5677 7.70052 28.5521 7.67708 28.5391 7.65625C28.5391 7.65104 28.5339 7.63672 28.5234 7.61328C28.513 7.58724 28.5013 7.5612 28.4883 7.53516C28.4753 7.50651 28.4622 7.48047 28.4492 7.45703C28.4388 7.43099 28.431 7.41406 28.4258 7.40625C28.4206 7.40104 28.4154 7.38021 28.4102 7.34375C28.4076 7.30729 28.4062 7.28646 28.4062 7.28125ZM29.3008 12.0273C29.293 12.0273 29.2839 12.0273 29.2734 12.0273C29.263 12.0273 29.2513 12.0247 29.2383 12.0195H29.1562L29.1094 11.9805V11.7969L29.1992 11.6562C29.2227 11.6458 29.25 11.6406 29.2812 11.6406C29.3125 11.638 29.3294 11.6367 29.332 11.6367C29.3424 11.6367 29.3659 11.6354 29.4023 11.6328C29.4414 11.6276 29.4727 11.6198 29.4961 11.6094C29.556 11.6224 29.599 11.6289 29.625 11.6289C29.6562 11.6055 29.6862 11.5742 29.7148 11.5352C29.7435 11.4961 29.7682 11.4531 29.7891 11.4062C29.8125 11.3594 29.8294 11.3125 29.8398 11.2656C29.8529 11.2188 29.8594 11.1758 29.8594 11.1367V10.7031C29.8594 10.612 29.8594 10.5234 29.8594 10.4375C29.862 10.349 29.8672 10.2865 29.875 10.25C29.8672 10.1797 29.862 10.1107 29.8594 10.043C29.8568 9.97266 29.8529 9.90234 29.8477 9.83203L29.8203 9.42578C29.8125 9.30339 29.806 9.18099 29.8008 9.05859C29.7956 8.9362 29.793 8.8125 29.793 8.6875C29.793 8.67448 29.7943 8.66536 29.7969 8.66016C29.7995 8.65234 29.8112 8.64193 29.832 8.62891C29.8216 8.58724 29.8151 8.54948 29.8125 8.51562C29.8125 8.48177 29.8125 8.44531 29.8125 8.40625C29.8125 8.36979 29.8125 8.33333 29.8125 8.29688C29.8151 8.25781 29.8216 8.21745 29.832 8.17578C29.8112 8.16276 29.7943 8.14323 29.7812 8.11719C29.7708 8.09115 29.7656 8.05599 29.7656 8.01172C29.7656 7.97786 29.776 7.95052 29.7969 7.92969C29.8177 7.90885 29.8281 7.8776 29.8281 7.83594C29.8281 7.77865 29.8268 7.71745 29.8242 7.65234C29.8216 7.58724 29.8112 7.52083 29.793 7.45312C29.7747 7.36198 29.7656 7.28906 29.7656 7.23438C29.7656 7.17969 29.763 7.12109 29.7578 7.05859C29.7422 7.03516 29.7148 7.01172 29.6758 6.98828C29.6393 6.96484 29.599 6.94141 29.5547 6.91797C29.513 6.89193 29.4727 6.86589 29.4336 6.83984C29.3945 6.8112 29.3672 6.78125 29.3516 6.75C29.3307 6.70833 29.3164 6.68359 29.3086 6.67578C29.3034 6.66536 29.2982 6.65365 29.293 6.64062C29.293 6.6224 29.2982 6.59635 29.3086 6.5625C29.319 6.52604 29.3385 6.50521 29.3672 6.5C29.4219 6.48698 29.4779 6.47135 29.5352 6.45312C29.5924 6.4349 29.6354 6.42318 29.6641 6.41797C29.6693 6.41797 29.6823 6.41406 29.7031 6.40625C29.7266 6.39583 29.75 6.38542 29.7734 6.375C29.7995 6.36198 29.8229 6.35026 29.8438 6.33984C29.8672 6.32682 29.8815 6.31641 29.8867 6.30859C29.9362 6.29557 29.9818 6.28125 30.0234 6.26562C30.0677 6.25 30.1107 6.23568 30.1523 6.22266C30.194 6.20964 30.237 6.19792 30.2812 6.1875C30.3281 6.17708 30.3776 6.17057 30.4297 6.16797C30.4557 6.16797 30.4779 6.16927 30.4961 6.17188C30.5143 6.17448 30.5234 6.1849 30.5234 6.20312C30.5339 6.27083 30.5404 6.33724 30.543 6.40234C30.5482 6.46484 30.5508 6.52604 30.5508 6.58594C30.5508 6.64583 30.5482 6.70703 30.543 6.76953C30.5404 6.82943 30.5339 6.88802 30.5234 6.94531C30.5026 7 30.4896 7.05859 30.4844 7.12109C30.4792 7.18359 30.4766 7.24609 30.4766 7.30859L30.4805 7.51172L30.4688 7.78125C30.4792 7.80208 30.4857 7.82292 30.4883 7.84375C30.4935 7.86458 30.4961 7.89193 30.4961 7.92578C30.4961 7.97786 30.4948 8.01562 30.4922 8.03906C30.4922 8.0625 30.4883 8.08073 30.4805 8.09375L30.5078 8.34375C30.4974 8.38542 30.4805 8.42839 30.457 8.47266C30.4336 8.51432 30.4154 8.5612 30.4023 8.61328C30.4023 8.64193 30.4089 8.66797 30.4219 8.69141C30.4349 8.71224 30.444 8.74089 30.4492 8.77734C30.4596 8.87891 30.4648 8.97656 30.4648 9.07031C30.4674 9.16406 30.4714 9.26172 30.4766 9.36328C30.4635 9.42318 30.4479 9.47656 30.4297 9.52344C30.4141 9.56771 30.4062 9.61328 30.4062 9.66016V9.72266C30.4089 9.77734 30.4128 9.82812 30.418 9.875C30.4232 9.91927 30.4284 9.96354 30.4336 10.0078C30.4414 10.0521 30.4479 10.099 30.4531 10.1484C30.4583 10.1953 30.4635 10.25 30.4688 10.3125C30.4688 10.3802 30.4648 10.4388 30.457 10.4883C30.4518 10.5378 30.4466 10.5977 30.4414 10.668C30.4388 10.6836 30.4349 10.7057 30.4297 10.7344C30.4271 10.763 30.4232 10.793 30.418 10.8242C30.4154 10.8529 30.4128 10.8802 30.4102 10.9062C30.4076 10.9323 30.4062 10.9505 30.4062 10.9609V10.9648C30.4089 10.9779 30.4141 11.0039 30.4219 11.043C30.4297 11.082 30.4375 11.1224 30.4453 11.1641C30.4531 11.2057 30.4609 11.2448 30.4688 11.2812C30.4766 11.3177 30.4805 11.3411 30.4805 11.3516L30.5078 11.4102H30.5156C30.5234 11.4102 30.5286 11.4141 30.5312 11.4219C30.5339 11.4297 30.5378 11.4349 30.543 11.4375C30.5534 11.4479 30.5599 11.4596 30.5625 11.4727C30.5651 11.4831 30.5703 11.4948 30.5781 11.5078C30.5885 11.5182 30.6029 11.5299 30.6211 11.543C30.6419 11.5534 30.6745 11.5638 30.7188 11.5742C30.7682 11.6055 30.806 11.6211 30.832 11.6211C30.8398 11.6211 30.8464 11.6211 30.8516 11.6211C30.8568 11.6211 30.8659 11.6185 30.8789 11.6133C30.8997 11.6185 30.9245 11.6224 30.9531 11.625C30.9818 11.6276 31.0117 11.6328 31.043 11.6406C31.0742 11.6458 31.1055 11.6549 31.1367 11.668C31.168 11.681 31.1953 11.6992 31.2188 11.7227C31.2318 11.7331 31.2396 11.7474 31.2422 11.7656C31.2448 11.7812 31.2461 11.8034 31.2461 11.832V11.9648C31.2461 11.9831 31.2435 12 31.2383 12.0156C31.2331 12.0312 31.2227 12.0417 31.207 12.0469C31.1862 12.0417 31.1641 12.0391 31.1406 12.0391C31.1198 12.0391 31.099 12.0391 31.0781 12.0391C31.0599 12.0391 31.0404 12.0378 31.0195 12.0352C30.9987 12.0352 30.9727 12.0326 30.9414 12.0273L30.8203 12.0117C30.8151 12.0117 30.8034 12.0104 30.7852 12.0078C30.7695 12.0078 30.7513 12.0065 30.7305 12.0039C30.7122 12.0039 30.694 12.0026 30.6758 12C30.6602 12 30.6497 12 30.6445 12L30.4531 11.9883C30.4505 11.9883 30.4479 11.987 30.4453 11.9844C30.4427 11.9844 30.4401 11.9844 30.4375 11.9844C30.4375 11.9818 30.4362 11.9805 30.4336 11.9805C30.3763 11.9831 30.3242 11.987 30.2773 11.9922C30.2331 11.9974 30.1901 12.0026 30.1484 12.0078C30.1094 12.0156 30.069 12.0221 30.0273 12.0273C29.9883 12.0352 29.944 12.0391 29.8945 12.0391C29.8346 12.0339 29.7695 12.0273 29.6992 12.0195C29.6315 12.0117 29.5677 12.0078 29.5078 12.0078L29.3008 12.0273ZM31.5195 9.93359C31.556 9.79557 31.6016 9.66406 31.6562 9.53906C31.7109 9.41146 31.7734 9.28125 31.8438 9.14844L31.9531 9.01953L32 8.9375C32.0078 8.92448 32.0169 8.91276 32.0273 8.90234C32.0352 8.89193 32.043 8.88281 32.0508 8.875C32.0586 8.86458 32.0664 8.85677 32.0742 8.85156L32.3047 8.6875C32.3177 8.67188 32.332 8.66146 32.3477 8.65625C32.3633 8.64844 32.3776 8.64323 32.3906 8.64062C32.4062 8.63542 32.4219 8.63151 32.4375 8.62891C32.4531 8.6237 32.4674 8.61458 32.4805 8.60156L32.5547 8.52734L32.6172 8.5H32.6758L32.8867 8.41797C32.8971 8.41276 32.9115 8.40755 32.9297 8.40234C32.9505 8.39714 32.9714 8.39193 32.9922 8.38672C33.013 8.38151 33.0326 8.3776 33.0508 8.375C33.069 8.3724 33.082 8.37109 33.0898 8.37109H33.4883C33.5117 8.36068 33.5312 8.35547 33.5469 8.35547C33.5651 8.35286 33.5794 8.35156 33.5898 8.35156C33.6654 8.35156 33.7409 8.36458 33.8164 8.39062C33.8919 8.41406 33.9674 8.4362 34.043 8.45703H34.1914C34.1966 8.45703 34.2044 8.46224 34.2148 8.47266C34.2253 8.48047 34.237 8.49089 34.25 8.50391L34.293 8.54688C34.3581 8.58333 34.4219 8.61979 34.4844 8.65625C34.5469 8.6901 34.6094 8.72786 34.6719 8.76953C34.724 8.8112 34.7643 8.85807 34.793 8.91016C34.8242 8.95964 34.8594 9.00911 34.8984 9.05859C34.9036 9.0638 34.9128 9.07682 34.9258 9.09766C34.9414 9.11589 34.957 9.13672 34.9727 9.16016C34.9883 9.18359 35.0026 9.20703 35.0156 9.23047C35.0312 9.25391 35.0417 9.27214 35.0469 9.28516L35.0703 9.33203L35.2227 9.83203C35.2305 9.84766 35.237 9.86589 35.2422 9.88672C35.2474 9.90755 35.2526 9.92839 35.2578 9.94922C35.263 9.96745 35.2669 9.98568 35.2695 10.0039C35.2721 10.0195 35.2734 10.0299 35.2734 10.0352V10.1602L35.25 10.2578V10.5391L35.0469 11.1367C34.9948 11.207 34.9401 11.2799 34.8828 11.3555C34.8255 11.4284 34.7682 11.4974 34.7109 11.5625C34.7109 11.5651 34.7057 11.5716 34.6953 11.582C34.6797 11.6029 34.6615 11.625 34.6406 11.6484C34.6198 11.6719 34.5964 11.694 34.5703 11.7148C34.5651 11.7201 34.5495 11.724 34.5234 11.7266C34.5 11.7292 34.474 11.737 34.4453 11.75L34.2109 11.8867C34.2057 11.8867 34.194 11.8893 34.1758 11.8945C34.1602 11.8971 34.1419 11.901 34.1211 11.9062C34.1029 11.9089 34.0846 11.9115 34.0664 11.9141C34.0482 11.9167 34.0352 11.918 34.0273 11.918C33.9805 11.9284 33.9414 11.9427 33.9102 11.9609C33.8815 11.9792 33.8398 11.9883 33.7852 11.9883L33.3867 12C33.3763 12 33.3542 12 33.3203 12C33.2865 11.9974 33.25 11.9961 33.2109 11.9961C33.1719 11.9935 33.1341 11.9922 33.0977 11.9922C33.0612 11.9896 33.0339 11.9883 33.0156 11.9883L32.9062 11.9648L32.6562 11.9453L32.6172 11.9258L32.2305 11.6562L32.1367 11.6133C32.0898 11.5872 32.0508 11.5495 32.0195 11.5C31.9883 11.4479 31.957 11.3984 31.9258 11.3516C31.8971 11.2995 31.8672 11.2526 31.8359 11.2109C31.8073 11.1693 31.7786 11.1302 31.75 11.0938C31.7266 11.0521 31.7005 11.0117 31.6719 10.9727C31.6458 10.9336 31.6211 10.8932 31.5977 10.8516C31.5768 10.8099 31.5586 10.7682 31.543 10.7266C31.5273 10.6823 31.5195 10.6341 31.5195 10.582L31.4883 10.2773L31.5195 9.93359ZM32.3242 10.4844C32.3451 10.5078 32.3594 10.5286 32.3672 10.5469C32.3776 10.5651 32.3841 10.582 32.3867 10.5977C32.3919 10.6133 32.3945 10.6302 32.3945 10.6484C32.3971 10.6667 32.401 10.6888 32.4062 10.7148C32.4271 10.8008 32.4609 10.8906 32.5078 10.9844C32.5547 11.0781 32.6042 11.1576 32.6562 11.2227L32.8047 11.3633C32.8568 11.4284 32.9062 11.4935 32.9531 11.5586C33 11.6211 33.0586 11.6667 33.1289 11.6953H33.2852C33.3424 11.6953 33.4036 11.6888 33.4688 11.6758C33.5339 11.6602 33.599 11.6471 33.6641 11.6367C33.7005 11.6367 33.7331 11.6354 33.7617 11.6328C33.7904 11.6276 33.8255 11.612 33.8672 11.5859L33.9141 11.5352C34.0391 11.4674 34.1471 11.3841 34.2383 11.2852L34.5078 10.8594L34.4961 10.4531C34.5091 10.4323 34.5169 10.4128 34.5195 10.3945C34.5221 10.3763 34.5234 10.349 34.5234 10.3125C34.5234 10.2682 34.513 10.2279 34.4922 10.1914C34.4714 10.1549 34.4609 10.1107 34.4609 10.0586L34.4961 9.91016C34.4883 9.87891 34.4805 9.84245 34.4727 9.80078C34.4648 9.75911 34.4557 9.71745 34.4453 9.67578C34.4375 9.63151 34.4271 9.59115 34.4141 9.55469C34.4036 9.51562 34.3893 9.48438 34.3711 9.46094L34.1719 9.23047C34.1641 9.22526 34.1536 9.21354 34.1406 9.19531C34.1302 9.17708 34.1185 9.15625 34.1055 9.13281C34.0951 9.10938 34.0846 9.08724 34.0742 9.06641C34.0664 9.04557 34.0625 9.02995 34.0625 9.01953L33.9453 8.9375C33.8984 8.88542 33.8516 8.84115 33.8047 8.80469C33.7578 8.76562 33.7018 8.74089 33.6367 8.73047L33.4453 8.70703C33.3776 8.69661 33.3177 8.6849 33.2656 8.67188C33.2135 8.65625 33.1549 8.64844 33.0898 8.64844H33.0625L32.8242 8.78906L32.4453 9.23047C32.4349 9.25911 32.4258 9.28516 32.418 9.30859C32.4102 9.33203 32.4062 9.35547 32.4062 9.37891L32.3867 9.5L32.3242 9.66016V9.76172C32.3242 9.79818 32.3294 9.83203 32.3398 9.86328C32.3529 9.89453 32.3594 9.93099 32.3594 9.97266C32.3594 9.99349 32.3581 10.0104 32.3555 10.0234C32.3529 10.0339 32.3424 10.0456 32.3242 10.0586V10.4844ZM36.8516 11.418C36.7943 11.332 36.7552 11.25 36.7344 11.1719C36.7135 11.0911 36.6966 11.0117 36.6836 10.9336C36.6706 10.8555 36.6523 10.7786 36.6289 10.7031C36.6081 10.625 36.5664 10.5456 36.5039 10.4648L36.4258 10.1367V9.98438C36.4258 9.98438 36.4219 9.97786 36.4141 9.96484C36.4062 9.94922 36.3958 9.93229 36.3828 9.91406C36.3724 9.89323 36.362 9.8737 36.3516 9.85547C36.3411 9.83724 36.3333 9.82422 36.3281 9.81641L36.25 9.71484V9.51172C36.25 9.50391 36.2448 9.49219 36.2344 9.47656C36.2266 9.45833 36.2161 9.4401 36.2031 9.42188C36.1927 9.40104 36.1823 9.38281 36.1719 9.36719C36.1615 9.35156 36.1549 9.34115 36.1523 9.33594C36.1159 9.27344 36.0872 9.20312 36.0664 9.125C36.0456 9.04427 36.0208 8.97135 35.9922 8.90625C35.9766 8.8724 35.9622 8.84766 35.9492 8.83203C35.9362 8.8138 35.918 8.80078 35.8945 8.79297C35.8737 8.78255 35.8451 8.77604 35.8086 8.77344C35.7747 8.76823 35.7279 8.76042 35.668 8.75C35.6263 8.74219 35.5911 8.73047 35.5625 8.71484C35.5339 8.69661 35.5195 8.66927 35.5195 8.63281C35.5195 8.58073 35.5299 8.53516 35.5508 8.49609C35.5742 8.45703 35.5977 8.41927 35.6211 8.38281L35.8242 8.34375H35.9023C35.9779 8.3724 36.0573 8.39453 36.1406 8.41016C36.224 8.42578 36.3047 8.43359 36.3828 8.43359C36.4479 8.43359 36.5052 8.42448 36.5547 8.40625C36.6068 8.38802 36.6628 8.37891 36.7227 8.37891C36.7305 8.37891 36.7435 8.38021 36.7617 8.38281C36.7826 8.38281 36.8047 8.38411 36.8281 8.38672C36.8516 8.38932 36.8724 8.39193 36.8906 8.39453C36.9089 8.39453 36.9206 8.39583 36.9258 8.39844C36.9388 8.40885 36.9531 8.41797 36.9688 8.42578C36.987 8.43099 37.0039 8.4388 37.0195 8.44922C37.0352 8.45703 37.0482 8.46745 37.0586 8.48047C37.069 8.49089 37.0742 8.50651 37.0742 8.52734C37.0742 8.55599 37.0677 8.59115 37.0547 8.63281C37.0417 8.67188 37.0234 8.70833 37 8.74219C36.9818 8.76302 36.9518 8.78385 36.9102 8.80469C36.8685 8.82292 36.8411 8.84245 36.8281 8.86328V8.94531L36.8359 8.99219C36.8385 9.02344 36.8438 9.0599 36.8516 9.10156C36.8594 9.14323 36.8672 9.1862 36.875 9.23047C36.8828 9.27214 36.8906 9.3112 36.8984 9.34766C36.9089 9.38411 36.918 9.41016 36.9258 9.42578L37.0039 9.51172C37.0273 9.5612 37.0456 9.61458 37.0586 9.67188C37.0742 9.72656 37.0859 9.78255 37.0938 9.83984C37.1042 9.89453 37.1133 9.95052 37.1211 10.0078C37.1289 10.0651 37.1393 10.1185 37.1523 10.168L37.2812 10.3984C37.2891 10.4167 37.2956 10.4427 37.3008 10.4766C37.306 10.5104 37.3125 10.5443 37.3203 10.5781C37.3307 10.6094 37.3438 10.6367 37.3594 10.6602C37.375 10.6836 37.3971 10.6953 37.4258 10.6953C37.457 10.6953 37.4831 10.6836 37.5039 10.6602C37.5273 10.6367 37.5469 10.6094 37.5625 10.5781C37.5807 10.5469 37.5951 10.5156 37.6055 10.4844C37.6185 10.4531 37.6302 10.431 37.6406 10.418C37.6406 10.4128 37.651 10.3997 37.6719 10.3789C37.6927 10.3555 37.707 10.3411 37.7148 10.3359C37.7487 10.2943 37.7721 10.2461 37.7852 10.1914C37.7982 10.1341 37.8112 10.0781 37.8242 10.0234C37.8372 9.96615 37.8542 9.91146 37.875 9.85938C37.8984 9.80729 37.9375 9.76562 37.9922 9.73438L38 9.57422C38 9.5638 37.9987 9.54948 37.9961 9.53125C37.9961 9.51042 37.9961 9.49219 37.9961 9.47656C37.9961 9.45833 37.9948 9.44271 37.9922 9.42969C37.9922 9.41406 37.9922 9.40625 37.9922 9.40625L37.9375 9.28516C37.9271 9.25651 37.9206 9.22656 37.918 9.19531C37.918 9.16406 37.9154 9.13021 37.9102 9.09375C37.9049 9.0651 37.901 9.03776 37.8984 9.01172C37.8958 8.98307 37.8906 8.95443 37.8828 8.92578C37.862 8.8763 37.832 8.84635 37.793 8.83594C37.7539 8.82292 37.7135 8.8112 37.6719 8.80078C37.6302 8.79036 37.5898 8.77474 37.5508 8.75391C37.5117 8.73047 37.4805 8.68359 37.457 8.61328V8.57422C37.457 8.55078 37.4596 8.52474 37.4648 8.49609C37.4701 8.46484 37.4792 8.44531 37.4922 8.4375C37.5208 8.42188 37.5612 8.41276 37.6133 8.41016C37.6654 8.40755 37.7148 8.40625 37.7617 8.40625H37.8906C37.8932 8.40625 37.9036 8.40885 37.9219 8.41406C37.9401 8.41927 37.9609 8.42448 37.9844 8.42969C38.0104 8.4349 38.0365 8.4401 38.0625 8.44531C38.0885 8.45052 38.1094 8.45312 38.125 8.45312L38.4375 8.37891L38.7773 8.43359C38.8034 8.43359 38.8281 8.42969 38.8516 8.42188C38.875 8.41146 38.901 8.40625 38.9297 8.40625C38.9974 8.40625 39.0495 8.41927 39.0859 8.44531C39.1224 8.47135 39.1406 8.51823 39.1406 8.58594C39.1406 8.65625 39.1185 8.70443 39.0742 8.73047C39.0299 8.75651 38.9766 8.77474 38.9141 8.78516C38.8542 8.79297 38.793 8.80078 38.7305 8.80859C38.668 8.8138 38.6198 8.83203 38.5859 8.86328V8.91797C38.5859 8.94661 38.5898 8.97005 38.5977 8.98828C38.6081 9.00391 38.6185 9.01953 38.6289 9.03516C38.6419 9.05078 38.6536 9.06771 38.6641 9.08594C38.6745 9.10156 38.6823 9.125 38.6875 9.15625V9.40625C38.6901 9.41667 38.7005 9.45443 38.7188 9.51953C38.737 9.58203 38.7578 9.65755 38.7812 9.74609C38.8073 9.83464 38.8346 9.92969 38.8633 10.0312C38.8945 10.1302 38.9219 10.2227 38.9453 10.3086C38.9714 10.3945 38.9922 10.4661 39.0078 10.5234C39.026 10.5807 39.0365 10.6107 39.0391 10.6133C39.0573 10.6315 39.0703 10.6419 39.0781 10.6445C39.0859 10.6471 39.0951 10.6484 39.1055 10.6484C39.1237 10.6484 39.1393 10.6471 39.1523 10.6445C39.1654 10.6419 39.1823 10.6315 39.2031 10.6133C39.2031 10.6107 39.2044 10.6042 39.207 10.5938C39.2122 10.5833 39.2174 10.5729 39.2227 10.5625C39.2409 10.5078 39.2643 10.4557 39.293 10.4062C39.3242 10.3542 39.3555 10.3034 39.3867 10.2539C39.418 10.2018 39.4479 10.151 39.4766 10.1016C39.5052 10.0521 39.5286 10 39.5469 9.94531C39.5495 9.94271 39.5508 9.9349 39.5508 9.92188C39.5534 9.90885 39.556 9.89583 39.5586 9.88281C39.5612 9.86719 39.5625 9.85417 39.5625 9.84375C39.5651 9.83073 39.5664 9.82161 39.5664 9.81641C39.5898 9.7513 39.612 9.69792 39.6328 9.65625C39.6562 9.61458 39.6745 9.56641 39.6875 9.51172L39.707 9.33594C39.7253 9.30469 39.7448 9.27474 39.7656 9.24609C39.7891 9.21745 39.8099 9.1888 39.8281 9.16016C39.849 9.12891 39.8659 9.09766 39.8789 9.06641C39.8919 9.03516 39.8984 9.00391 39.8984 8.97266V8.9375C39.8932 8.8776 39.875 8.83333 39.8438 8.80469C39.8125 8.77604 39.776 8.75521 39.7344 8.74219C39.6953 8.72656 39.6549 8.71354 39.6133 8.70312C39.5742 8.69271 39.5456 8.67448 39.5273 8.64844L39.5039 8.55859C39.5039 8.51172 39.5221 8.47656 39.5586 8.45312L39.5742 8.43359C39.5768 8.42057 39.5859 8.41146 39.6016 8.40625C39.6172 8.40104 39.6549 8.39844 39.7148 8.39844C39.7383 8.39844 39.7565 8.39844 39.7695 8.39844C39.7852 8.39844 39.7995 8.39974 39.8125 8.40234C39.8281 8.40234 39.8438 8.40365 39.8594 8.40625C39.8776 8.40625 39.901 8.40755 39.9297 8.41016C40.0156 8.41016 40.0872 8.40755 40.1445 8.40234C40.2018 8.39453 40.2565 8.38802 40.3086 8.38281H40.3242C40.3372 8.38281 40.3607 8.38542 40.3945 8.39062C40.431 8.39583 40.4518 8.39844 40.457 8.39844L40.668 8.39062C40.6888 8.39062 40.7083 8.39323 40.7266 8.39844C40.7448 8.40104 40.7565 8.40495 40.7617 8.41016C40.7721 8.42318 40.7839 8.43229 40.7969 8.4375C40.8099 8.4401 40.819 8.44922 40.8242 8.46484V8.51172C40.8242 8.5638 40.8177 8.60286 40.8047 8.62891C40.7917 8.65495 40.7799 8.67448 40.7695 8.6875C40.7487 8.70833 40.7161 8.72656 40.6719 8.74219C40.6302 8.75781 40.5846 8.77474 40.5352 8.79297C40.4857 8.8112 40.4388 8.83333 40.3945 8.85938C40.3503 8.88281 40.3177 8.91146 40.2969 8.94531C40.2448 9.02344 40.2005 9.09896 40.1641 9.17188C40.1302 9.24219 40.0977 9.3138 40.0664 9.38672C40.0378 9.45703 40.0078 9.52865 39.9766 9.60156C39.9453 9.67188 39.9076 9.74609 39.8633 9.82422C39.8424 9.86849 39.8203 9.91146 39.7969 9.95312C39.7734 9.99219 39.7513 10.0326 39.7305 10.0742C39.7122 10.1159 39.6966 10.1602 39.6836 10.207C39.6732 10.2539 39.668 10.3047 39.668 10.3594L39.6055 10.4336C39.6055 10.4492 39.6029 10.4701 39.5977 10.4961C39.5924 10.5221 39.5859 10.5495 39.5781 10.5781C39.5703 10.6068 39.5599 10.6341 39.5469 10.6602C39.5365 10.6836 39.5247 10.7005 39.5117 10.7109L39.457 10.8516L39.3281 11.1289C39.3021 11.181 39.2826 11.2253 39.2695 11.2617C39.2591 11.2982 39.2474 11.3333 39.2344 11.3672C39.2214 11.401 39.2057 11.4362 39.1875 11.4727C39.1693 11.5091 39.1419 11.5521 39.1055 11.6016C39.0794 11.6432 39.0612 11.6836 39.0508 11.7227C39.043 11.7617 39.0326 11.7969 39.0195 11.8281C39.0091 11.8568 38.9896 11.8802 38.9609 11.8984C38.9349 11.9167 38.8906 11.9258 38.8281 11.9258C38.7786 11.9258 38.7409 11.9219 38.7148 11.9141C38.6914 11.9062 38.6719 11.8945 38.6562 11.8789C38.6432 11.8633 38.6302 11.8438 38.6172 11.8203C38.6042 11.7943 38.5846 11.7643 38.5586 11.7305C38.5638 11.7096 38.5664 11.6914 38.5664 11.6758C38.5664 11.6576 38.5664 11.6393 38.5664 11.6211C38.5664 11.5612 38.5599 11.5039 38.5469 11.4492C38.5339 11.3945 38.5182 11.3411 38.5 11.2891C38.4818 11.237 38.4648 11.1849 38.4492 11.1328C38.4336 11.0781 38.4232 11.0208 38.418 10.9609L38.3906 10.668C38.3854 10.6419 38.3724 10.6016 38.3516 10.5469C38.3307 10.4896 38.306 10.4323 38.2773 10.375C38.2513 10.3177 38.224 10.2682 38.1953 10.2266C38.1667 10.1823 38.1419 10.1602 38.1211 10.1602C38.0898 10.1602 38.0612 10.1693 38.0352 10.1875C38.0117 10.2031 37.9974 10.2188 37.9922 10.2344C37.987 10.2422 37.9766 10.263 37.9609 10.2969C37.9453 10.3307 37.9375 10.3529 37.9375 10.3633C37.9089 10.4831 37.8711 10.5885 37.8242 10.6797C37.7799 10.7682 37.7318 10.862 37.6797 10.9609L37.6055 11.0664C37.6055 11.0716 37.6029 11.082 37.5977 11.0977C37.5951 11.1133 37.5911 11.1237 37.5859 11.1289C37.5859 11.1315 37.5846 11.1419 37.582 11.1602C37.5794 11.1758 37.5755 11.194 37.5703 11.2148C37.5677 11.2331 37.5638 11.2513 37.5586 11.2695C37.556 11.2852 37.5534 11.2943 37.5508 11.2969C37.5508 11.2995 37.5469 11.306 37.5391 11.3164C37.5339 11.3268 37.526 11.3385 37.5156 11.3516C37.5078 11.362 37.5 11.3724 37.4922 11.3828C37.4844 11.3906 37.4792 11.3958 37.4766 11.3984C37.4505 11.4583 37.4323 11.5234 37.4219 11.5938C37.4141 11.6641 37.3997 11.7292 37.3789 11.7891C37.3607 11.849 37.3294 11.8997 37.2852 11.9414C37.2409 11.9805 37.1719 12 37.0781 12C37.0339 12 36.9961 11.9935 36.9648 11.9805C36.9362 11.9674 36.918 11.931 36.9102 11.8711L36.8516 11.418ZM40.9297 10.2891C40.9297 10.276 40.9323 10.2513 40.9375 10.2148C40.9427 10.1758 40.9479 10.1354 40.9531 10.0938C40.9609 10.0495 40.9661 10.0078 40.9688 9.96875C40.974 9.92969 40.9766 9.90365 40.9766 9.89062C40.987 9.76562 41.0143 9.63802 41.0586 9.50781C41.1055 9.3776 41.1641 9.2526 41.2344 9.13281C41.3047 9.01042 41.3854 8.89844 41.4766 8.79688C41.5703 8.69531 41.6719 8.60938 41.7812 8.53906C41.7839 8.53385 41.7969 8.52474 41.8203 8.51172C41.8464 8.4987 41.8737 8.48568 41.9023 8.47266C41.931 8.45964 41.9583 8.44661 41.9844 8.43359C42.0104 8.42057 42.026 8.41146 42.0312 8.40625C42.0495 8.39844 42.0729 8.38542 42.1016 8.36719C42.1328 8.34635 42.1641 8.32682 42.1953 8.30859C42.2266 8.28776 42.2578 8.26953 42.2891 8.25391C42.3203 8.23828 42.349 8.23047 42.375 8.23047C42.3984 8.23047 42.4167 8.23307 42.4297 8.23828C42.4453 8.24349 42.4635 8.2513 42.4844 8.26172C42.5286 8.25651 42.5703 8.2526 42.6094 8.25C42.651 8.24479 42.6927 8.24219 42.7344 8.24219C42.7786 8.24219 42.8203 8.24479 42.8594 8.25C42.8984 8.2526 42.9401 8.25651 42.9844 8.26172C42.9844 8.26172 42.9896 8.26432 43 8.26953C43.0104 8.27214 43.0221 8.27604 43.0352 8.28125C43.0482 8.28646 43.0612 8.29167 43.0742 8.29688C43.0872 8.30208 43.0977 8.30599 43.1055 8.30859C43.1133 8.3112 43.1289 8.31901 43.1523 8.33203C43.1758 8.34245 43.2018 8.35547 43.2305 8.37109C43.2591 8.38672 43.2865 8.40104 43.3125 8.41406C43.3385 8.42448 43.3568 8.43099 43.3672 8.43359C43.3672 8.4362 43.3763 8.4401 43.3945 8.44531C43.4128 8.45052 43.4245 8.45312 43.4297 8.45312L43.5859 8.53906L43.9375 8.85938C43.9479 8.8724 43.9635 8.90755 43.9844 8.96484C44.0078 9.01953 44.0299 9.08073 44.0508 9.14844C44.0742 9.21354 44.0938 9.27604 44.1094 9.33594C44.1276 9.39583 44.1367 9.4349 44.1367 9.45312C44.1367 9.48958 44.1263 9.51953 44.1055 9.54297C44.0846 9.5638 44.0599 9.58203 44.0312 9.59766C44.0026 9.61068 43.9714 9.62109 43.9375 9.62891C43.9062 9.63411 43.8789 9.63802 43.8555 9.64062H43.8398C43.8138 9.64323 43.7708 9.64583 43.7109 9.64844C43.6536 9.65104 43.5924 9.65365 43.5273 9.65625C43.4648 9.65625 43.4049 9.65755 43.3477 9.66016C43.293 9.66016 43.2552 9.66016 43.2344 9.66016C43.2057 9.67318 43.1797 9.68099 43.1562 9.68359C43.1354 9.6862 43.1133 9.6875 43.0898 9.6875L42.8125 9.66016C42.7604 9.66016 42.7057 9.66927 42.6484 9.6875C42.5938 9.70573 42.5404 9.71484 42.4883 9.71484C42.4544 9.71484 42.4206 9.70312 42.3867 9.67969C42.3555 9.65365 42.3203 9.64062 42.2812 9.64062C42.276 9.64062 42.2617 9.64714 42.2383 9.66016C42.2174 9.67057 42.2018 9.67578 42.1914 9.67578L41.8945 9.65625C41.8529 9.65625 41.8138 9.66406 41.7773 9.67969C41.7409 9.69531 41.6992 9.72266 41.6523 9.76172C41.6445 9.82943 41.6393 9.88932 41.6367 9.94141C41.6341 9.99089 41.6328 10.0469 41.6328 10.1094C41.6328 10.1641 41.6354 10.2083 41.6406 10.2422C41.6484 10.276 41.6589 10.3086 41.6719 10.3398C41.6849 10.3685 41.7005 10.3984 41.7188 10.4297C41.737 10.4583 41.7578 10.4948 41.7812 10.5391L41.8203 10.6133C41.888 10.7617 41.9753 10.8815 42.082 10.9727C42.1888 11.0638 42.3268 11.1354 42.4961 11.1875C42.4961 11.2005 42.5143 11.2135 42.5508 11.2266C42.5898 11.237 42.6328 11.2448 42.6797 11.25C42.7344 11.2604 42.7969 11.2669 42.8672 11.2695C42.9531 11.2695 43.0417 11.2643 43.1328 11.2539C43.224 11.2435 43.3125 11.2266 43.3984 11.2031C43.4844 11.1797 43.5651 11.1484 43.6406 11.1094C43.7188 11.0703 43.7852 11.0221 43.8398 10.9648H43.9023C43.9336 10.9648 43.9544 10.9701 43.9648 10.9805C43.9779 10.9883 43.9909 11.013 44.0039 11.0547C43.9961 11.1302 43.9844 11.1979 43.9688 11.2578C43.9557 11.3151 43.9362 11.3672 43.9102 11.4141C43.8867 11.4609 43.8555 11.5052 43.8164 11.5469C43.7773 11.5859 43.7266 11.6263 43.6641 11.668C43.6432 11.6836 43.6237 11.6953 43.6055 11.7031C43.5872 11.7083 43.5703 11.7135 43.5547 11.7188C43.5391 11.724 43.5221 11.7318 43.5039 11.7422C43.4883 11.7526 43.4701 11.7708 43.4492 11.7969L43.0312 12.0078L42.9844 12L42.6914 12.0469C42.4727 12.0469 42.276 12.0156 42.1016 11.9531C41.9271 11.8906 41.7708 11.8021 41.6328 11.6875C41.4974 11.5703 41.3789 11.431 41.2773 11.2695C41.1784 11.1081 41.0938 10.9297 41.0234 10.7344C41 10.6641 40.9857 10.5924 40.9805 10.5195C40.9753 10.444 40.9583 10.3672 40.9297 10.2891ZM41.6992 9.22266C41.6992 9.23568 41.7005 9.25521 41.7031 9.28125C41.7083 9.30729 41.7148 9.33333 41.7227 9.35938C41.7305 9.38542 41.7396 9.40885 41.75 9.42969C41.7604 9.45052 41.7708 9.46224 41.7812 9.46484H41.9023L42.4219 9.38281L42.7539 9.41016C42.8112 9.41016 42.862 9.40495 42.9062 9.39453C42.9531 9.38411 43.0039 9.3724 43.0586 9.35938C43.1081 9.35156 43.1497 9.34505 43.1836 9.33984C43.2201 9.33203 43.2487 9.31901 43.2695 9.30078C43.293 9.28255 43.3099 9.25911 43.3203 9.23047C43.3307 9.19922 43.3359 9.15625 43.3359 9.10156C43.3359 9.01042 43.3112 8.93099 43.2617 8.86328C43.2122 8.79557 43.1497 8.73958 43.0742 8.69531C43.0013 8.64844 42.9206 8.61458 42.832 8.59375C42.7461 8.57031 42.6654 8.55859 42.5898 8.55859C42.5716 8.55859 42.5456 8.5638 42.5117 8.57422C42.4779 8.58203 42.4388 8.59375 42.3945 8.60938C42.3529 8.6224 42.3086 8.63802 42.2617 8.65625C42.2174 8.67188 42.1758 8.6901 42.1367 8.71094C42.1003 8.72917 42.0677 8.7474 42.0391 8.76562C42.0104 8.78125 41.9922 8.79557 41.9844 8.80859L41.9023 8.98438C41.8867 9.0026 41.8672 9.01953 41.8438 9.03516C41.8203 9.05078 41.7969 9.06771 41.7734 9.08594C41.7526 9.10417 41.7344 9.125 41.7188 9.14844C41.7057 9.16927 41.6992 9.19401 41.6992 9.22266ZM44.5898 11.7617C44.5898 11.7409 44.6029 11.7266 44.6289 11.7188C44.6576 11.7083 44.6784 11.6966 44.6914 11.6836C44.7201 11.6523 44.7526 11.6302 44.7891 11.6172C44.8281 11.6042 44.8555 11.5938 44.8711 11.5859C44.8919 11.5729 44.9062 11.5573 44.9141 11.5391C44.9219 11.5182 44.9401 11.5026 44.9688 11.4922L45.0625 11.4609C45.0781 11.4609 45.0911 11.4492 45.1016 11.4258C45.112 11.4023 45.1185 11.3893 45.1211 11.3867C45.1185 11.3737 45.1172 11.3516 45.1172 11.3203C45.1172 11.2891 45.1172 11.2591 45.1172 11.2305C45.1172 11.194 45.1172 11.1615 45.1172 11.1328C45.1172 11.1016 45.1185 11.0755 45.1211 11.0547L45.1445 10.9375V10.3359C45.1445 10.3307 45.1458 10.319 45.1484 10.3008C45.151 10.2826 45.1536 10.263 45.1562 10.2422C45.1589 10.2214 45.1615 10.2018 45.1641 10.1836C45.1667 10.1654 45.1693 10.1536 45.1719 10.1484V10.1211C45.1693 10.1055 45.1667 10.082 45.1641 10.0508C45.1615 10.0169 45.1589 9.98438 45.1562 9.95312C45.1536 9.91927 45.151 9.88932 45.1484 9.86328C45.1458 9.83724 45.1445 9.82161 45.1445 9.81641C45.1419 9.80859 45.1393 9.79557 45.1367 9.77734C45.1341 9.75911 45.1315 9.73958 45.1289 9.71875C45.1263 9.69792 45.1237 9.67839 45.1211 9.66016C45.1211 9.64193 45.1211 9.62891 45.1211 9.62109C45.1133 9.58464 45.1003 9.54948 45.082 9.51562C45.0638 9.48177 45.043 9.45052 45.0195 9.42188C44.9961 9.39062 44.9714 9.36068 44.9453 9.33203C44.9193 9.30078 44.8945 9.27083 44.8711 9.24219C44.8685 9.24219 44.8594 9.23307 44.8438 9.21484C44.8281 9.19401 44.8203 9.18099 44.8203 9.17578L44.5898 8.96094L44.7773 8.76953C44.7826 8.76693 44.793 8.76172 44.8086 8.75391C44.8268 8.74609 44.8451 8.73828 44.8633 8.73047C44.8841 8.72005 44.9036 8.71094 44.9219 8.70312C44.9427 8.69531 44.9583 8.6901 44.9688 8.6875C44.974 8.68229 44.9844 8.67839 45 8.67578C45.0182 8.67057 45.0365 8.66667 45.0547 8.66406C45.0755 8.66146 45.0938 8.66016 45.1094 8.66016C45.1276 8.65755 45.1393 8.65625 45.1445 8.65625C45.194 8.64062 45.2383 8.61979 45.2773 8.59375C45.319 8.5651 45.3594 8.53776 45.3984 8.51172C45.4375 8.48307 45.4766 8.45833 45.5156 8.4375C45.5573 8.41667 45.6042 8.40625 45.6562 8.40625H45.7188C45.7214 8.40885 45.7357 8.42318 45.7617 8.44922C45.7878 8.47266 45.8073 8.48958 45.8203 8.5C45.8385 8.52865 45.8477 8.5651 45.8477 8.60938C45.8477 8.65104 45.849 8.69271 45.8516 8.73438C45.8542 8.77344 45.8633 8.80729 45.8789 8.83594C45.8945 8.86458 45.9284 8.87891 45.9805 8.87891C45.9883 8.87891 45.9961 8.87891 46.0039 8.87891C46.0143 8.87891 46.0195 8.8763 46.0195 8.87109C46.0299 8.86849 46.0443 8.86328 46.0625 8.85547C46.0807 8.84505 46.099 8.83333 46.1172 8.82031C46.138 8.80729 46.1562 8.79427 46.1719 8.78125C46.1901 8.76823 46.2031 8.75781 46.2109 8.75L46.3711 8.62891C46.3763 8.6237 46.3932 8.61198 46.4219 8.59375C46.4505 8.57292 46.4701 8.55729 46.4805 8.54688C46.4831 8.54688 46.4935 8.54688 46.5117 8.54688C46.5299 8.54427 46.5482 8.54297 46.5664 8.54297C46.5872 8.54036 46.6068 8.53776 46.625 8.53516C46.6432 8.53255 46.6562 8.52995 46.6641 8.52734C46.6667 8.52734 46.6745 8.52474 46.6875 8.51953C46.7031 8.51432 46.7188 8.50911 46.7344 8.50391C46.7526 8.4987 46.7682 8.49349 46.7812 8.48828C46.7943 8.48307 46.8021 8.48047 46.8047 8.48047H46.8477C46.9076 8.48047 46.9557 8.4987 46.9922 8.53516C47.0312 8.57161 47.0664 8.61198 47.0977 8.65625C47.1159 8.67969 47.1263 8.71354 47.1289 8.75781C47.1341 8.79948 47.1432 8.83073 47.1562 8.85156C47.1562 8.85938 47.1602 8.86719 47.168 8.875L47.1836 8.89062C47.1836 9.01562 47.1654 9.1276 47.1289 9.22656C47.0951 9.32292 47.0365 9.40104 46.9531 9.46094C46.9297 9.46615 46.9023 9.47135 46.8711 9.47656C46.8398 9.47917 46.8138 9.48047 46.793 9.48047C46.7383 9.48047 46.6979 9.47786 46.6719 9.47266C46.6458 9.46484 46.6263 9.45443 46.6133 9.44141C46.6003 9.42839 46.5885 9.41146 46.5781 9.39062C46.5703 9.36979 46.556 9.34505 46.5352 9.31641C46.5169 9.29297 46.4948 9.27474 46.4688 9.26172C46.4453 9.24609 46.4219 9.23568 46.3984 9.23047C46.375 9.22266 46.3529 9.21745 46.332 9.21484C46.3138 9.21224 46.3021 9.21094 46.2969 9.21094L46.1289 9.18359L45.9883 9.22266L45.9414 9.28516C45.9284 9.28776 45.9102 9.30078 45.8867 9.32422C45.8633 9.34505 45.8398 9.36979 45.8164 9.39844C45.7956 9.42448 45.7773 9.45312 45.7617 9.48438C45.7461 9.51302 45.7383 9.53646 45.7383 9.55469L45.7188 9.83594L45.7383 9.94531V10.1484C45.7383 10.1536 45.7396 10.1693 45.7422 10.1953C45.7474 10.2188 45.7526 10.237 45.7578 10.25L45.7305 10.6016L45.7578 10.7344C45.7578 10.7526 45.7526 10.7708 45.7422 10.7891C45.7344 10.8073 45.7305 10.8307 45.7305 10.8594L45.7578 10.9922L45.7305 11.1367C45.7305 11.1393 45.7305 11.1432 45.7305 11.1484C45.7305 11.1536 45.7331 11.1562 45.7383 11.1562C45.7409 11.1719 45.7487 11.194 45.7617 11.2227C45.7773 11.2513 45.793 11.2812 45.8086 11.3125C45.8268 11.3438 45.8424 11.3737 45.8555 11.4023C45.8711 11.4284 45.8815 11.4479 45.8867 11.4609C45.8867 11.4635 45.8893 11.4688 45.8945 11.4766C45.8997 11.4844 45.9062 11.4883 45.9141 11.4883C45.9375 11.5013 45.9596 11.5182 45.9805 11.5391C46.0039 11.5599 46.0312 11.5755 46.0625 11.5859C46.0807 11.5938 46.1042 11.6016 46.1328 11.6094C46.1615 11.6146 46.1914 11.6211 46.2227 11.6289C46.2565 11.6367 46.2891 11.6458 46.3203 11.6562C46.3542 11.6667 46.3854 11.6797 46.4141 11.6953C46.4297 11.7161 46.444 11.7409 46.457 11.7695C46.4727 11.7982 46.4805 11.8294 46.4805 11.8633C46.4805 11.8919 46.4753 11.9128 46.4648 11.9258C46.457 11.9388 46.444 11.9518 46.4258 11.9648C46.4102 11.9753 46.3841 11.9805 46.3477 11.9805L46.2227 11.9922C46.1784 11.9974 46.138 12 46.1016 12C46.0677 12 46.0391 12 46.0156 12C45.9948 12 45.9714 11.9974 45.9453 11.9922C45.9219 11.9844 45.8958 11.9805 45.8672 11.9805C45.7943 11.9805 45.7253 11.9896 45.6602 12.0078C45.5951 12.0286 45.5286 12.0391 45.4609 12.0391L45.2852 11.9805L45.0352 12.0391H44.9688L44.9141 12C44.9089 12 44.8945 11.9987 44.8711 11.9961C44.8477 11.9909 44.8138 11.9857 44.7695 11.9805C44.7591 11.9805 44.7487 11.9753 44.7383 11.9648C44.7305 11.9622 44.7174 11.9583 44.6992 11.9531C44.6836 11.9479 44.6576 11.9362 44.6211 11.918C44.6003 11.8893 44.5898 11.862 44.5898 11.8359V11.8242V11.7617ZM47.7773 13.8438C47.7773 13.8203 47.7773 13.7995 47.7773 13.7812C47.7799 13.763 47.7878 13.7396 47.8008 13.7109C47.8138 13.651 47.8411 13.6016 47.8828 13.5625C47.9271 13.5234 47.9935 13.4909 48.082 13.4648C48.0898 13.4622 48.1029 13.4583 48.1211 13.4531C48.1393 13.4505 48.1576 13.4479 48.1758 13.4453C48.194 13.4427 48.2096 13.4401 48.2227 13.4375C48.2383 13.4375 48.2474 13.4375 48.25 13.4375L48.3945 13.4648L48.4805 13.4375C48.4883 13.4375 48.5 13.4362 48.5156 13.4336C48.5312 13.4336 48.5534 13.4336 48.582 13.4336C48.6289 13.4336 48.6602 13.4323 48.6758 13.4297C48.694 13.4271 48.7083 13.4193 48.7188 13.4062C48.7396 13.375 48.7565 13.3477 48.7695 13.3242C48.7826 13.3008 48.793 13.2773 48.8008 13.2539C48.8112 13.2331 48.819 13.2096 48.8242 13.1836C48.832 13.1602 48.8398 13.1302 48.8477 13.0938C48.8477 13.0911 48.849 13.082 48.8516 13.0664C48.8542 13.0534 48.8568 13.0378 48.8594 13.0195C48.862 13.0013 48.8646 12.9844 48.8672 12.9688C48.8698 12.9531 48.8724 12.9414 48.875 12.9336C48.875 12.9232 48.8815 12.9036 48.8945 12.875C48.9076 12.8464 48.9219 12.8164 48.9375 12.7852C48.9531 12.7539 48.9674 12.724 48.9805 12.6953C48.9961 12.6693 49.0078 12.6497 49.0156 12.6367L48.9883 12.4727C49.0169 12.4258 49.0391 12.3828 49.0547 12.3438C49.0703 12.3047 49.0781 12.2578 49.0781 12.2031C49.0781 12.1953 49.0768 12.1849 49.0742 12.1719C49.0716 12.1615 49.0703 12.1536 49.0703 12.1484C49.0703 12.1276 49.069 12.1016 49.0664 12.0703C49.0664 12.0417 49.0651 12.0143 49.0625 11.9883C49.0599 11.9596 49.0573 11.9349 49.0547 11.9141C49.0521 11.8932 49.0508 11.8815 49.0508 11.8789C49.0508 11.8711 49.0456 11.8555 49.0352 11.832C49.0247 11.806 49.013 11.7786 49 11.75C48.9896 11.7214 48.9779 11.694 48.9648 11.668C48.9544 11.6419 48.9492 11.6237 48.9492 11.6133C48.9466 11.6081 48.9414 11.5924 48.9336 11.5664C48.9258 11.5404 48.9167 11.513 48.9062 11.4844C48.8984 11.4531 48.8906 11.4245 48.8828 11.3984C48.8776 11.3724 48.875 11.3568 48.875 11.3516L48.75 11.1406C48.75 11.138 48.7487 11.1276 48.7461 11.1094C48.7435 11.0911 48.7409 11.0716 48.7383 11.0508C48.7357 11.0299 48.7318 11.0104 48.7266 10.9922C48.724 10.9714 48.7214 10.9583 48.7188 10.9531C48.7188 10.9297 48.7161 10.901 48.7109 10.8672C48.7057 10.8307 48.7018 10.8125 48.6992 10.8125C48.6966 10.8047 48.6888 10.7943 48.6758 10.7812C48.6654 10.7682 48.6523 10.7552 48.6367 10.7422C48.6237 10.7292 48.6107 10.7174 48.5977 10.707C48.5846 10.6966 48.5781 10.6901 48.5781 10.6875L48.5234 10.5469L48.3945 10.3633L48.25 9.99219C48.2474 9.98698 48.2396 9.97266 48.2266 9.94922C48.2161 9.92318 48.2109 9.90885 48.2109 9.90625C48.2057 9.90104 48.1979 9.89453 48.1875 9.88672C48.1771 9.8763 48.1719 9.86849 48.1719 9.86328C48.1693 9.86068 48.1667 9.84896 48.1641 9.82812C48.1615 9.80729 48.1589 9.78516 48.1562 9.76172C48.1562 9.73828 48.1549 9.71745 48.1523 9.69922C48.1523 9.67839 48.1523 9.66536 48.1523 9.66016C48.1419 9.61849 48.1263 9.57422 48.1055 9.52734C48.0846 9.47786 48.0625 9.42969 48.0391 9.38281C48.0156 9.33333 47.9909 9.28516 47.9648 9.23828C47.9414 9.19141 47.9206 9.14844 47.9023 9.10938C47.9023 9.10417 47.8997 9.09115 47.8945 9.07031C47.8893 9.04688 47.8841 9.03255 47.8789 9.02734C47.8789 9.01953 47.8724 9.00911 47.8594 8.99609C47.849 8.98047 47.8372 8.97005 47.8242 8.96484C47.7487 8.90495 47.668 8.85807 47.582 8.82422C47.4987 8.79036 47.4115 8.7513 47.3203 8.70703L47.2852 8.65625C47.2747 8.63542 47.2591 8.61979 47.2383 8.60938C47.2148 8.59896 47.2031 8.58464 47.2031 8.56641C47.2031 8.47526 47.2201 8.41667 47.2539 8.39062C47.2852 8.36458 47.3255 8.35156 47.375 8.35156C47.4141 8.35156 47.4518 8.35807 47.4883 8.37109C47.5273 8.38411 47.5677 8.40234 47.6094 8.42578C47.6172 8.42578 47.6328 8.42448 47.6562 8.42188C47.6797 8.41927 47.707 8.41797 47.7383 8.41797C47.7669 8.41797 47.7943 8.41927 47.8203 8.42188C47.849 8.42448 47.8685 8.42578 47.8789 8.42578L47.9805 8.46484H48.082C48.0846 8.46484 48.0951 8.46354 48.1133 8.46094C48.1341 8.45573 48.1549 8.45182 48.1758 8.44922C48.1992 8.44401 48.2201 8.4401 48.2383 8.4375C48.2565 8.43229 48.2682 8.42839 48.2734 8.42578C48.2891 8.41797 48.3099 8.41146 48.3359 8.40625C48.3646 8.39844 48.3919 8.39193 48.418 8.38672C48.444 8.38151 48.4661 8.3776 48.4844 8.375C48.5052 8.3724 48.5182 8.37109 48.5234 8.37109H48.6992L48.8047 8.35156C48.8281 8.35156 48.8555 8.35677 48.8867 8.36719C48.9206 8.375 48.9505 8.38672 48.9766 8.40234C49.0052 8.41797 49.0286 8.4362 49.0469 8.45703C49.0677 8.47526 49.0781 8.49349 49.0781 8.51172C49.0781 8.53255 49.0755 8.5638 49.0703 8.60547C49.0651 8.64453 49.0534 8.67448 49.0352 8.69531C48.9935 8.73958 48.9492 8.77083 48.9023 8.78906C48.8581 8.80729 48.8255 8.81901 48.8047 8.82422L48.7383 8.84375C48.7201 8.85156 48.6992 8.85417 48.6758 8.85156C48.6549 8.84635 48.6354 8.85286 48.6172 8.87109C48.6198 8.89193 48.625 8.91797 48.6328 8.94922C48.6406 8.97786 48.6497 9.00651 48.6602 9.03516C48.6706 9.0638 48.6797 9.08984 48.6875 9.11328C48.6953 9.13411 48.6992 9.14583 48.6992 9.14844C48.7018 9.17448 48.7083 9.19792 48.7188 9.21875C48.7318 9.23958 48.7448 9.26042 48.7578 9.28125C48.7708 9.30208 48.7839 9.32292 48.7969 9.34375C48.8099 9.36458 48.8203 9.38672 48.8281 9.41016L48.875 9.66016C48.8802 9.69661 48.8932 9.73177 48.9141 9.76562C48.9349 9.79688 48.957 9.82812 48.9805 9.85938C49.0039 9.88802 49.0273 9.91927 49.0508 9.95312C49.0742 9.98438 49.0898 10.0182 49.0977 10.0547C49.0977 10.0573 49.0977 10.069 49.0977 10.0898C49.1003 10.1107 49.1016 10.1328 49.1016 10.1562C49.1042 10.1797 49.1068 10.2018 49.1094 10.2227C49.112 10.2435 49.1146 10.2552 49.1172 10.2578C49.1172 10.2604 49.125 10.2734 49.1406 10.2969C49.1562 10.3203 49.1667 10.3333 49.1719 10.3359C49.1745 10.3411 49.181 10.3555 49.1914 10.3789C49.2018 10.4023 49.2109 10.418 49.2188 10.4258L49.2773 10.5469C49.2826 10.5651 49.2917 10.5885 49.3047 10.6172C49.3177 10.6432 49.3294 10.6562 49.3398 10.6562C49.3581 10.6849 49.3776 10.7057 49.3984 10.7188C49.4219 10.7292 49.4427 10.7344 49.4609 10.7344C49.474 10.7344 49.4922 10.7292 49.5156 10.7188C49.5391 10.7057 49.5573 10.6849 49.5703 10.6562C49.5781 10.6458 49.5872 10.6354 49.5977 10.625C49.6185 10.6042 49.6341 10.5898 49.6445 10.582L49.6523 10.5586C49.6549 10.5534 49.6576 10.5482 49.6602 10.543C49.6628 10.5378 49.6641 10.5326 49.6641 10.5273C49.6953 10.4492 49.7253 10.3698 49.7539 10.2891C49.7826 10.2083 49.8112 10.1237 49.8398 10.0352C49.8398 10.0273 49.8424 10.0104 49.8477 9.98438C49.8529 9.95573 49.862 9.9362 49.875 9.92578C49.875 9.92318 49.875 9.91536 49.875 9.90234C49.8776 9.88932 49.8789 9.875 49.8789 9.85938C49.8815 9.84115 49.8841 9.82552 49.8867 9.8125C49.8893 9.79688 49.8919 9.78776 49.8945 9.78516L49.9531 9.62109C49.9557 9.61849 49.9583 9.61068 49.9609 9.59766C49.9635 9.58464 49.9661 9.57161 49.9688 9.55859C49.9714 9.54297 49.9727 9.52995 49.9727 9.51953C49.9753 9.50651 49.9766 9.4974 49.9766 9.49219C49.9844 9.46615 49.9961 9.4401 50.0117 9.41406C50.0299 9.38802 50.0469 9.36328 50.0625 9.33984C50.0781 9.31641 50.0924 9.29297 50.1055 9.26953C50.1185 9.24349 50.125 9.21615 50.125 9.1875C50.1198 9.17708 50.112 9.16276 50.1016 9.14453C50.0938 9.1237 50.0872 9.11198 50.082 9.10938V8.94531C50.082 8.9401 50.0716 8.92578 50.0508 8.90234C50.0326 8.87891 50.0182 8.86458 50.0078 8.85938C49.9974 8.85417 49.9818 8.84766 49.9609 8.83984C49.9427 8.82943 49.9219 8.82031 49.8984 8.8125C49.875 8.80469 49.8516 8.79818 49.8281 8.79297C49.8073 8.78516 49.7904 8.77995 49.7773 8.77734C49.7513 8.77734 49.7318 8.77344 49.7188 8.76562C49.7083 8.75521 49.7018 8.75 49.6992 8.75L49.5703 8.65625C49.5573 8.61979 49.5508 8.58984 49.5508 8.56641C49.5508 8.53255 49.5573 8.5026 49.5703 8.47656C49.5833 8.44792 49.599 8.41927 49.6172 8.39062C49.651 8.3724 49.6823 8.36068 49.7109 8.35547C49.7422 8.34766 49.7695 8.34375 49.793 8.34375C49.8164 8.34115 49.8385 8.33854 49.8594 8.33594C49.8802 8.33333 49.8984 8.32682 49.9141 8.31641L50.0078 8.30469C50.013 8.30469 50.0273 8.30599 50.0508 8.30859C50.0768 8.30859 50.1042 8.3099 50.1328 8.3125C50.1615 8.3151 50.1875 8.31771 50.2109 8.32031C50.237 8.32031 50.2526 8.32161 50.2578 8.32422L50.3867 8.35156C50.4466 8.35156 50.5 8.34245 50.5469 8.32422C50.5964 8.30599 50.651 8.28776 50.7109 8.26953H50.8008C50.8008 8.26432 50.8125 8.26042 50.8359 8.25781C50.8594 8.2526 50.8763 8.25 50.8867 8.25C50.8867 8.24479 50.8893 8.24219 50.8945 8.24219C50.9023 8.24219 50.9089 8.24219 50.9141 8.24219C50.9375 8.24219 50.9688 8.2474 51.0078 8.25781C51.0495 8.26823 51.0898 8.28255 51.1289 8.30078C51.168 8.31901 51.2018 8.33984 51.2305 8.36328C51.2591 8.38672 51.2734 8.41146 51.2734 8.4375C51.2734 8.46875 51.2643 8.49089 51.2461 8.50391C51.2279 8.51693 51.2096 8.53385 51.1914 8.55469L51.043 8.67578C51.0117 8.70443 50.9805 8.72656 50.9492 8.74219C50.918 8.75521 50.8854 8.76562 50.8516 8.77344C50.8203 8.78125 50.7865 8.78776 50.75 8.79297C50.7135 8.79818 50.6758 8.80599 50.6367 8.81641C50.5924 8.88411 50.5547 8.95312 50.5234 9.02344C50.4948 9.09375 50.4635 9.16276 50.4297 9.23047C50.4297 9.24349 50.4271 9.26042 50.4219 9.28125C50.4167 9.29948 50.4115 9.3112 50.4062 9.31641C50.4062 9.31901 50.4049 9.32682 50.4023 9.33984C50.4023 9.35026 50.401 9.36328 50.3984 9.37891C50.3958 9.39193 50.3932 9.40495 50.3906 9.41797C50.3906 9.43099 50.3893 9.4375 50.3867 9.4375C50.3867 9.44271 50.3815 9.45182 50.3711 9.46484C50.3633 9.47786 50.3542 9.49349 50.3438 9.51172C50.3333 9.52734 50.3229 9.54297 50.3125 9.55859C50.3047 9.57161 50.3008 9.57943 50.3008 9.58203V9.78516C50.2982 9.78776 50.293 9.79688 50.2852 9.8125C50.2773 9.82552 50.2682 9.84115 50.2578 9.85938C50.25 9.875 50.2409 9.88932 50.2305 9.90234C50.2227 9.91536 50.2161 9.92318 50.2109 9.92578C50.1745 9.99349 50.1315 10.0664 50.082 10.1445C50.0326 10.2227 49.9974 10.3034 49.9766 10.3867V10.5273C49.9766 10.5326 49.9714 10.5469 49.9609 10.5703C49.9531 10.5911 49.9466 10.6016 49.9414 10.6016C49.9128 10.6562 49.8945 10.707 49.8867 10.7539C49.8789 10.8008 49.8633 10.8464 49.8398 10.8906L49.7266 11.1211C49.7161 11.1732 49.7096 11.2266 49.707 11.2812C49.7044 11.3359 49.7031 11.3919 49.7031 11.4492C49.7031 11.5039 49.7018 11.5586 49.6992 11.6133C49.6966 11.668 49.6914 11.7227 49.6836 11.7773C49.6784 11.8424 49.6576 11.9062 49.6211 11.9688C49.5846 12.0312 49.5521 12.0911 49.5234 12.1484C49.5182 12.1536 49.5104 12.1602 49.5 12.168C49.4922 12.1784 49.4883 12.1849 49.4883 12.1875C49.4779 12.2031 49.4674 12.2279 49.457 12.2617C49.4518 12.2773 49.4466 12.2943 49.4414 12.3125C49.4388 12.3281 49.4362 12.3529 49.4336 12.3867C49.431 12.4206 49.4284 12.4557 49.4258 12.4922C49.4258 12.5286 49.4245 12.5625 49.4219 12.5938C49.4219 12.6276 49.4219 12.651 49.4219 12.6641C49.3958 12.6849 49.3763 12.7148 49.3633 12.7539C49.3529 12.793 49.3438 12.8359 49.3359 12.8828C49.3307 12.9297 49.3255 12.9753 49.3203 13.0195C49.3177 13.0664 49.3112 13.1055 49.3008 13.1367L49.1914 13.2773C49.1862 13.2826 49.181 13.2995 49.1758 13.3281C49.1732 13.3594 49.1719 13.3789 49.1719 13.3867C49.1641 13.3945 49.1549 13.4076 49.1445 13.4258C49.1341 13.4414 49.1211 13.4635 49.1055 13.4922C49.0898 13.5208 49.0716 13.5599 49.0508 13.6094C49.0508 13.612 49.0482 13.6198 49.043 13.6328C49.0378 13.6484 49.0312 13.6641 49.0234 13.6797C49.0156 13.6979 49.0078 13.7148 49 13.7305C48.9948 13.7461 48.9909 13.7552 48.9883 13.7578C48.9779 13.7943 48.9622 13.8177 48.9414 13.8281C48.9232 13.8385 48.901 13.8555 48.875 13.8789C48.8594 13.8919 48.8477 13.9023 48.8398 13.9102C48.832 13.9206 48.8255 13.9297 48.8203 13.9375C48.8151 13.9453 48.8086 13.9531 48.8008 13.9609C48.7956 13.9714 48.7865 13.9844 48.7734 14C48.737 14.0469 48.6953 14.0742 48.6484 14.082C48.6016 14.0924 48.5521 14.1055 48.5 14.1211L48.4219 14.1836C48.3906 14.194 48.3607 14.1992 48.332 14.1992C48.3034 14.2018 48.276 14.2031 48.25 14.2031C48.2005 14.2031 48.1484 14.194 48.0938 14.1758C48.0391 14.1602 47.9883 14.1367 47.9414 14.1055C47.8945 14.0742 47.8555 14.0365 47.8242 13.9922C47.793 13.9479 47.7773 13.8984 47.7773 13.8438Z" fill="white"/>
</svg>
