<svg width="90" height="20" viewBox="0 0 90 20" fill="none" xmlns="http://www.w3.org/2000/svg">
<rect width="90" height="20" rx="10" fill="#D21E6A"/>
<rect x="4" y="2" width="16" height="16" rx="8" fill="white"/>
<path d="M12 10.0002C12.2291 10.0002 12.4253 9.91857 12.5885 9.75537C12.7517 9.59218 12.8333 9.396 12.8333 9.16683C12.8333 8.93766 12.7517 8.74148 12.5885 8.57829C12.4253 8.41509 12.2291 8.3335 12 8.3335C11.7708 8.3335 11.5746 8.41509 11.4114 8.57829C11.2482 8.74148 11.1666 8.93766 11.1666 9.16683C11.1666 9.396 11.2482 9.59218 11.4114 9.75537C11.5746 9.91857 11.7708 10.0002 12 10.0002ZM12 13.0627C12.8472 12.2849 13.4757 11.5783 13.8854 10.9429C14.2951 10.3075 14.5 9.74322 14.5 9.25016C14.5 8.49322 14.2586 7.87343 13.776 7.39079C13.2934 6.90815 12.7013 6.66683 12 6.66683C11.2986 6.66683 10.7066 6.90815 10.2239 7.39079C9.74128 7.87343 9.49996 8.49322 9.49996 9.25016C9.49996 9.74322 9.70482 10.3075 10.1145 10.9429C10.5243 11.5783 11.1527 12.2849 12 13.0627ZM12 14.1668C10.8819 13.2154 10.0468 12.3318 9.49475 11.5158C8.94267 10.6998 8.66663 9.94461 8.66663 9.25016C8.66663 8.2085 9.0017 7.37864 9.67183 6.76058C10.342 6.14252 11.118 5.8335 12 5.8335C12.8819 5.8335 13.6579 6.14252 14.3281 6.76058C14.9982 7.37864 15.3333 8.2085 15.3333 9.25016C15.3333 9.94461 15.0573 10.6998 14.5052 11.5158C13.9531 12.3318 13.118 13.2154 12 14.1668Z" fill="#D21E6A"/>
<path d="M24.2557 6.72727H25.2642L27.2812 10.1222H27.3665L29.3835 6.72727H30.392L27.7642 11.0028V14H26.8835V11.0028L24.2557 6.72727ZM32.8619 14.1136C32.3694 14.1136 31.9374 13.9964 31.5657 13.7621C31.1964 13.5277 30.9076 13.1998 30.6992 12.7784C30.4933 12.357 30.3903 11.8646 30.3903 11.3011C30.3903 10.733 30.4933 10.237 30.6992 9.81321C30.9076 9.38944 31.1964 9.06037 31.5657 8.82599C31.9374 8.59162 32.3694 8.47443 32.8619 8.47443C33.3543 8.47443 33.7852 8.59162 34.1545 8.82599C34.5262 9.06037 34.815 9.38944 35.021 9.81321C35.2293 10.237 35.3335 10.733 35.3335 11.3011C35.3335 11.8646 35.2293 12.357 35.021 12.7784C34.815 13.1998 34.5262 13.5277 34.1545 13.7621C33.7852 13.9964 33.3543 14.1136 32.8619 14.1136ZM32.8619 13.3608C33.2359 13.3608 33.5437 13.2649 33.7852 13.0732C34.0266 12.8814 34.2054 12.6293 34.3214 12.3168C34.4374 12.0043 34.4954 11.6657 34.4954 11.3011C34.4954 10.9366 34.4374 10.5968 34.3214 10.282C34.2054 9.96709 34.0266 9.71259 33.7852 9.51847C33.5437 9.32434 33.2359 9.22727 32.8619 9.22727C32.4878 9.22727 32.18 9.32434 31.9386 9.51847C31.6971 9.71259 31.5183 9.96709 31.4023 10.282C31.2863 10.5968 31.2283 10.9366 31.2283 11.3011C31.2283 11.6657 31.2863 12.0043 31.4023 12.3168C31.5183 12.6293 31.6971 12.8814 31.9386 13.0732C32.18 13.2649 32.4878 13.3608 32.8619 13.3608ZM40.0502 11.7699V8.54545H40.8883V14H40.0502V13.0767H39.9934C39.8656 13.3537 39.6667 13.5893 39.3968 13.7834C39.127 13.9751 38.786 14.071 38.3741 14.071C38.0332 14.071 37.7302 13.9964 37.465 13.8473C37.1999 13.6958 36.9915 13.4685 36.84 13.1655C36.6885 12.8601 36.6127 12.4754 36.6127 12.0114V8.54545H37.4508V11.9545C37.4508 12.3523 37.5621 12.6695 37.7846 12.9062C38.0095 13.143 38.296 13.2614 38.644 13.2614C38.8523 13.2614 39.0642 13.2081 39.2797 13.1016C39.4975 12.995 39.6797 12.8317 39.8265 12.6115C39.9757 12.3913 40.0502 12.1108 40.0502 11.7699ZM42.4233 14V8.54545H43.233V9.36932H43.2898C43.3892 9.09943 43.5691 8.88045 43.8295 8.71236C44.09 8.54427 44.3835 8.46023 44.7102 8.46023C44.7718 8.46023 44.8487 8.46141 44.9411 8.46378C45.0334 8.46615 45.1032 8.4697 45.1506 8.47443V9.3267C45.1222 9.3196 45.0571 9.30895 44.9553 9.29474C44.8558 9.27817 44.7505 9.26989 44.6392 9.26989C44.3741 9.26989 44.1373 9.32552 43.929 9.43679C43.723 9.54569 43.5597 9.69721 43.4389 9.89134C43.3205 10.0831 43.2614 10.3021 43.2614 10.5483V14H42.4233ZM49.7946 6.72727V14H48.9565V6.72727H49.7946ZM53.5455 14.1136C53.053 14.1136 52.621 13.9964 52.2493 13.7621C51.88 13.5277 51.5911 13.1998 51.3828 12.7784C51.1768 12.357 51.0739 11.8646 51.0739 11.3011C51.0739 10.733 51.1768 10.237 51.3828 9.81321C51.5911 9.38944 51.88 9.06037 52.2493 8.82599C52.621 8.59162 53.053 8.47443 53.5455 8.47443C54.0379 8.47443 54.4688 8.59162 54.8381 8.82599C55.2098 9.06037 55.4986 9.38944 55.7045 9.81321C55.9129 10.237 56.017 10.733 56.017 11.3011C56.017 11.8646 55.9129 12.357 55.7045 12.7784C55.4986 13.1998 55.2098 13.5277 54.8381 13.7621C54.4688 13.9964 54.0379 14.1136 53.5455 14.1136ZM53.5455 13.3608C53.9195 13.3608 54.2273 13.2649 54.4688 13.0732C54.7102 12.8814 54.889 12.6293 55.005 12.3168C55.121 12.0043 55.179 11.6657 55.179 11.3011C55.179 10.9366 55.121 10.5968 55.005 10.282C54.889 9.96709 54.7102 9.71259 54.4688 9.51847C54.2273 9.32434 53.9195 9.22727 53.5455 9.22727C53.1714 9.22727 52.8636 9.32434 52.6222 9.51847C52.3807 9.71259 52.2019 9.96709 52.0859 10.282C51.9699 10.5968 51.9119 10.9366 51.9119 11.3011C51.9119 11.6657 51.9699 12.0043 52.0859 12.3168C52.2019 12.6293 52.3807 12.8814 52.6222 13.0732C52.8636 13.2649 53.1714 13.3608 53.5455 13.3608ZM59.5123 14.1136C59.0009 14.1136 58.5605 13.9929 58.1912 13.7514C57.8219 13.5099 57.5378 13.1773 57.339 12.7536C57.1401 12.3298 57.0407 11.8456 57.0407 11.3011C57.0407 10.7472 57.1425 10.2583 57.3461 9.83452C57.552 9.40838 57.8385 9.07576 58.2054 8.83665C58.5748 8.59517 59.0056 8.47443 59.498 8.47443C59.8816 8.47443 60.2272 8.54545 60.535 8.6875C60.8427 8.82955 61.0949 9.02841 61.2914 9.28409C61.4879 9.53977 61.6098 9.83807 61.6571 10.179H60.8191C60.7551 9.9304 60.6131 9.71023 60.3929 9.51847C60.1751 9.32434 59.8816 9.22727 59.5123 9.22727C59.1855 9.22727 58.8991 9.3125 58.6529 9.48295C58.409 9.65104 58.2185 9.88897 58.0811 10.1967C57.9462 10.5021 57.8787 10.8608 57.8787 11.2727C57.8787 11.6941 57.945 12.0611 58.0776 12.3736C58.2125 12.6861 58.4019 12.9287 58.6458 13.1016C58.892 13.2744 59.1808 13.3608 59.5123 13.3608C59.7301 13.3608 59.9277 13.3229 60.1053 13.2472C60.2828 13.1714 60.4332 13.0625 60.5563 12.9205C60.6794 12.7784 60.767 12.608 60.8191 12.4091H61.6571C61.6098 12.7311 61.4926 13.0211 61.3056 13.2791C61.1209 13.5348 60.8759 13.7384 60.5705 13.8899C60.2675 14.0391 59.9147 14.1136 59.5123 14.1136ZM64.4874 14.1278C64.1417 14.1278 63.8281 14.0627 63.5463 13.9325C63.2646 13.8 63.0409 13.6094 62.8752 13.3608C62.7095 13.1098 62.6266 12.8068 62.6266 12.4517C62.6266 12.1392 62.6882 11.8859 62.8113 11.6918C62.9344 11.4953 63.0989 11.3414 63.3049 11.2301C63.5108 11.1188 63.7381 11.036 63.9867 10.9815C64.2376 10.9247 64.4898 10.8797 64.7431 10.8466C65.0745 10.804 65.3432 10.772 65.5492 10.7507C65.7575 10.727 65.909 10.688 66.0037 10.6335C66.1008 10.5791 66.1493 10.4844 66.1493 10.3494V10.321C66.1493 9.97064 66.0534 9.69839 65.8617 9.50426C65.6723 9.31013 65.3846 9.21307 64.9988 9.21307C64.5987 9.21307 64.285 9.30066 64.0577 9.47585C63.8304 9.65104 63.6706 9.83807 63.5783 10.0369L62.7828 9.75284C62.9249 9.4214 63.1143 9.16335 63.351 8.97869C63.5901 8.79167 63.8506 8.66146 64.1323 8.58807C64.4164 8.51231 64.6957 8.47443 64.9703 8.47443C65.1455 8.47443 65.3468 8.49574 65.574 8.53835C65.8037 8.5786 66.025 8.66264 66.2381 8.79048C66.4535 8.91832 66.6323 9.11127 66.7743 9.36932C66.9164 9.62737 66.9874 9.97301 66.9874 10.4062V14H66.1493V13.2614H66.1067C66.0499 13.3797 65.9552 13.5064 65.8226 13.6413C65.69 13.7763 65.5137 13.8911 65.2935 13.9858C65.0733 14.0805 64.8046 14.1278 64.4874 14.1278ZM64.6152 13.375C64.9467 13.375 65.226 13.3099 65.4533 13.1797C65.6829 13.0495 65.8558 12.8814 65.9718 12.6754C66.0901 12.4695 66.1493 12.2528 66.1493 12.0256V11.2585C66.1138 11.3011 66.0357 11.3402 65.915 11.3757C65.7966 11.4089 65.6593 11.4384 65.503 11.4645C65.3491 11.4882 65.1988 11.5095 65.052 11.5284C64.9076 11.545 64.7904 11.5592 64.7005 11.571C64.4827 11.5994 64.2791 11.6456 64.0897 11.7095C63.9026 11.7711 63.7511 11.8646 63.6351 11.9901C63.5215 12.1132 63.4647 12.2812 63.4647 12.4943C63.4647 12.7855 63.5724 13.0057 63.7878 13.1548C64.0056 13.3016 64.2814 13.375 64.6152 13.375ZM70.8892 8.54545V9.25568H68.0625V8.54545H70.8892ZM68.8864 7.23864H69.7244V12.4375C69.7244 12.6742 69.7588 12.8518 69.8274 12.9702C69.8984 13.0862 69.9884 13.1643 70.0973 13.2045C70.2086 13.2424 70.3258 13.2614 70.4489 13.2614C70.5412 13.2614 70.617 13.2566 70.6761 13.2472C70.7353 13.2353 70.7827 13.2259 70.8182 13.2188L70.9886 13.9716C70.9318 13.9929 70.8525 14.0142 70.7507 14.0355C70.6489 14.0592 70.5199 14.071 70.3636 14.071C70.1269 14.071 69.8949 14.0201 69.6676 13.9183C69.4427 13.8165 69.2557 13.6615 69.1065 13.4531C68.9598 13.2448 68.8864 12.982 68.8864 12.6648V7.23864ZM72.1499 14V8.54545H72.9879V14H72.1499ZM72.576 7.63636C72.4126 7.63636 72.2718 7.58073 72.1534 7.46946C72.0374 7.35819 71.9794 7.22443 71.9794 7.06818C71.9794 6.91193 72.0374 6.77817 72.1534 6.6669C72.2718 6.55563 72.4126 6.5 72.576 6.5C72.7393 6.5 72.879 6.55563 72.995 6.6669C73.1134 6.77817 73.1726 6.91193 73.1726 7.06818C73.1726 7.22443 73.1134 7.35819 72.995 7.46946C72.879 7.58073 72.7393 7.63636 72.576 7.63636ZM76.7388 14.1136C76.2464 14.1136 75.8143 13.9964 75.4426 13.7621C75.0733 13.5277 74.7845 13.1998 74.5762 12.7784C74.3702 12.357 74.2672 11.8646 74.2672 11.3011C74.2672 10.733 74.3702 10.237 74.5762 9.81321C74.7845 9.38944 75.0733 9.06037 75.4426 8.82599C75.8143 8.59162 76.2464 8.47443 76.7388 8.47443C77.2312 8.47443 77.6621 8.59162 78.0314 8.82599C78.4031 9.06037 78.6919 9.38944 78.8979 9.81321C79.1062 10.237 79.2104 10.733 79.2104 11.3011C79.2104 11.8646 79.1062 12.357 78.8979 12.7784C78.6919 13.1998 78.4031 13.5277 78.0314 13.7621C77.6621 13.9964 77.2312 14.1136 76.7388 14.1136ZM76.7388 13.3608C77.1129 13.3608 77.4206 13.2649 77.6621 13.0732C77.9036 12.8814 78.0823 12.6293 78.1983 12.3168C78.3143 12.0043 78.3723 11.6657 78.3723 11.3011C78.3723 10.9366 78.3143 10.5968 78.1983 10.282C78.0823 9.96709 77.9036 9.71259 77.6621 9.51847C77.4206 9.32434 77.1129 9.22727 76.7388 9.22727C76.3648 9.22727 76.057 9.32434 75.8155 9.51847C75.574 9.71259 75.3953 9.96709 75.2793 10.282C75.1633 10.5968 75.1053 10.9366 75.1053 11.3011C75.1053 11.6657 75.1633 12.0043 75.2793 12.3168C75.3953 12.6293 75.574 12.8814 75.8155 13.0732C76.057 13.2649 76.3648 13.3608 76.7388 13.3608ZM81.3278 10.7188V14H80.4897V8.54545H81.2994V9.39773H81.3704C81.4982 9.12074 81.6924 8.8982 81.9528 8.73011C82.2132 8.55966 82.5494 8.47443 82.9613 8.47443C83.3306 8.47443 83.6538 8.55019 83.9308 8.7017C84.2077 8.85085 84.4232 9.07812 84.5771 9.38352C84.7309 9.68655 84.8079 10.0701 84.8079 10.5341V14H83.9698V10.5909C83.9698 10.1624 83.8585 9.8286 83.636 9.58949C83.4135 9.34801 83.1081 9.22727 82.7198 9.22727C82.4523 9.22727 82.2132 9.28527 82.0025 9.40128C81.7942 9.51728 81.6296 9.68655 81.5089 9.90909C81.3881 10.1316 81.3278 10.4015 81.3278 10.7188Z" fill="white"/>
</svg>
