<svg width="298" height="295" viewBox="0 0 298 295" fill="none" xmlns="http://www.w3.org/2000/svg">
<path d="M164.839 77.2296C161.407 63.9898 151.712 51.8154 139.257 46.0109C129.613 41.5165 118.332 40.6348 108.105 43.5762C100.232 45.8407 92.8501 50.4868 88.3987 57.3579C80.4477 69.6308 86.7992 83.0422 90.5127 95.5752C92.6659 102.842 93.7897 110.913 90.6686 117.821C84.1447 132.26 65.1684 135.001 55.8713 147.086C43.8481 162.715 34.0971 183.912 49.9688 200.966C64.8749 216.983 87.7111 211.631 102.227 198.38C113.324 188.251 128.995 181.024 144.271 183.463C159.228 185.851 170.512 197.064 182.199 205.724C198.905 218.103 223.414 213.055 236.856 198.205C250.818 182.782 252.441 150.457 235.028 136.792C227.628 130.985 218.721 130.183 209.812 128.651C197.32 126.503 176.741 121.673 170.214 109.521C164.979 99.7744 167.525 88.2336 164.991 77.8326C164.942 77.6314 164.891 77.4305 164.839 77.2296Z" fill="#EEB8CF"/>
<path d="M176.191 69.2445C176.191 67.7488 174.978 66.5364 173.481 66.5364C171.983 66.5364 170.77 67.7488 170.77 69.2445C170.77 70.7403 171.983 71.9526 173.481 71.9526C174.978 71.9526 176.191 70.7403 176.191 69.2445Z" fill="#EEB8CF"/>
<path d="M70.654 82.1507C70.654 79.0853 68.1668 76.6007 65.0984 76.6007C62.0299 76.6007 59.5427 79.0853 59.5427 82.1507C59.5427 85.216 62.0299 87.7007 65.0984 87.7007C68.1668 87.7007 70.654 85.216 70.654 82.1507Z" fill="#EEB8CF"/>
<path d="M219.791 114.896C219.791 112.208 217.609 110.029 214.918 110.029C212.228 110.029 210.046 112.208 210.046 114.896C210.046 117.584 212.228 119.763 214.918 119.763C217.609 119.763 219.791 117.584 219.791 114.896Z" fill="#EEB8CF"/>
<path d="M116.234 57.0125C116.234 55.517 115.02 54.3044 113.523 54.3044C112.026 54.3044 110.812 55.517 110.812 57.0125C110.812 58.5082 112.026 59.7206 113.523 59.7206C115.02 59.7206 116.234 58.5082 116.234 57.0125Z" fill="#FDE6F0"/>
<path d="M158.252 92.6939C158.252 91.5598 157.332 90.6407 156.197 90.6407C155.062 90.6407 154.142 91.5598 154.142 92.6939C154.142 93.8277 155.062 94.7471 156.197 94.7471C157.332 94.7471 158.252 93.8277 158.252 92.6939Z" fill="#FDE6F0"/>
<path d="M103.75 101.815C103.75 100.681 102.83 99.7623 101.694 99.7623C100.559 99.7623 99.6389 100.681 99.6389 101.815C99.6389 102.949 100.559 103.869 101.694 103.869C102.83 103.869 103.75 102.949 103.75 101.815Z" fill="#FDE6F0"/>
<mask id="mask0_7016_4542" style="mask-type:alpha" maskUnits="userSpaceOnUse" x="0" y="19" width="291" height="249">
<path d="M290.532 19.6223V267.682H0.385498V19.6223H290.532Z" fill="black"/>
</mask>
<g mask="url(#mask0_7016_4542)">
<path d="M273.163 98.6864H324.417C324.343 95.649 324.728 92.8917 321.977 90.9497C319.818 89.4256 316.837 88.9093 315.268 91.3538C313.014 88.2487 312.15 84.1813 308.628 81.845C304.586 79.1629 298.779 79.8592 296.124 83.9916C295.006 82.9431 294.453 81.2572 293.164 80.2751C290.723 78.416 287.082 79.2282 284.748 81.0563C281.553 83.5598 281.731 88.4705 281.572 92.1442C277.476 88.4762 272.405 93.1401 273.163 98.6864Z" fill="#C05D86"/>
<path d="M112.338 119.254H163.591C163.517 116.217 163.903 113.459 161.152 111.517C158.993 109.993 156.012 109.477 154.443 111.922C152.188 108.816 151.324 104.749 147.803 102.413C143.76 99.7305 137.954 100.427 135.299 104.559C134.181 103.511 133.628 101.825 132.339 100.843C129.898 98.9837 126.257 99.7959 123.923 101.624C120.727 104.128 120.905 109.038 120.747 112.712C116.65 109.044 111.58 113.708 112.338 119.254Z" fill="#C05D86"/>
<path d="M-42.6243 98.6864H8.62946C8.55557 95.649 8.94086 92.8917 6.18986 90.9497C4.03097 89.4256 1.04988 88.9093 -0.518932 91.3538C-2.77364 88.2487 -3.63767 84.1813 -7.15924 81.845C-11.2017 79.1629 -17.0084 79.8592 -19.6629 83.9916C-20.7813 82.9431 -21.3339 81.2572 -22.6234 80.2751C-25.064 78.416 -28.7053 79.2282 -31.039 81.0563C-34.2346 83.5598 -34.0565 88.4705 -34.2151 92.1442C-38.3115 88.4762 -43.3824 93.1401 -42.6243 98.6864Z" fill="#C05D86"/>
</g>
<mask id="mask1_7016_4542" style="mask-type:alpha" maskUnits="userSpaceOnUse" x="0" y="19" width="291" height="249">
<path d="M290.532 19.6223V267.682H0.385498V19.6223H290.532Z" fill="black"/>
</mask>
<g mask="url(#mask1_7016_4542)">
<path d="M216.244 210.686H203.232C204.174 210.168 204.82 209.18 204.82 208.03V185.522C204.82 183.842 203.456 182.48 201.774 182.48H185.409C183.727 182.48 182.364 181.117 182.364 179.437V161.68C182.364 159.999 181 158.637 179.318 158.637H171.203C169.52 158.637 168.157 159.999 168.157 161.68V169.081C168.157 170.762 166.793 172.124 165.111 172.124H150.084C148.402 172.124 147.038 173.486 147.038 175.167V208.03C147.038 209.18 147.684 210.168 148.626 210.686H145.449C146.391 210.168 147.036 209.18 147.036 208.03V190.999C147.036 189.318 145.673 187.956 143.991 187.956H130.793C129.11 187.956 127.747 186.593 127.747 184.913V167.012C127.747 165.332 126.383 163.97 124.701 163.97H107.751C106.069 163.97 104.705 165.332 104.705 167.012V173.351C104.705 175.032 103.341 176.394 101.659 176.394H98.3701C96.688 176.394 95.3243 177.756 95.3243 179.437C95.3243 181.117 93.9606 182.48 92.2784 182.48H75.9145C74.2323 182.48 72.8686 181.117 72.8686 179.437V161.68C72.8686 159.999 71.5049 158.637 69.8228 158.637H61.7074C60.0252 158.637 58.6616 159.999 58.6616 161.68V169.081C58.6616 170.762 57.2982 172.124 55.616 172.124H40.5888C38.9066 172.124 37.5429 173.486 37.5429 175.167V208.03C37.5429 209.18 38.1887 210.168 39.1303 210.686H35.9539C36.8955 210.168 37.5412 209.18 37.5412 208.03V190.999C37.5412 189.318 36.1775 187.956 34.4954 187.956H21.2974C19.6152 187.956 18.2516 186.593 18.2516 184.913V167.012C18.2516 165.332 16.8879 163.97 15.2057 163.97H-1.74427C-3.42645 163.97 -4.79014 165.332 -4.79014 167.012V173.351C-4.79014 175.032 -6.15382 176.394 -7.836 176.394H-11.1251C-12.8073 176.394 -14.171 177.756 -14.171 179.437V208.03C-14.171 209.18 -13.5249 210.168 -12.5833 210.686H-23.9192C-24.292 210.686 -24.594 210.987 -24.594 211.36C-24.594 211.732 -24.292 212.034 -23.9192 212.034H216.244C216.617 212.034 216.919 211.732 216.919 211.36C216.919 210.987 216.617 210.686 216.244 210.686Z" fill="#C05D86"/>
<path d="M484.461 210.686H471.449C472.391 210.168 473.037 209.18 473.037 208.03V185.522C473.037 183.842 471.673 182.48 469.991 182.48H453.626C451.944 182.48 450.581 181.117 450.581 179.437V161.68C450.581 159.999 449.217 158.637 447.535 158.637H439.42C437.738 158.637 436.374 159.999 436.374 161.68V169.081C436.374 170.762 435.01 172.124 433.328 172.124H418.301C416.619 172.124 415.255 173.486 415.255 175.167V208.03C415.255 209.18 415.901 210.168 416.843 210.686H413.666C414.608 210.168 415.254 209.18 415.254 208.03V190.999C415.254 189.318 413.89 187.956 412.208 187.956H399.01C397.328 187.956 395.964 186.593 395.964 184.913V167.012C395.964 165.332 394.6 163.97 392.918 163.97H375.968C374.286 163.97 372.922 165.332 372.922 167.012V173.351C372.922 175.032 371.558 176.394 369.876 176.394H366.587C364.905 176.394 363.541 177.756 363.541 179.437C363.541 181.117 362.178 182.48 360.495 182.48H344.132C342.449 182.48 341.086 181.117 341.086 179.437V161.68C341.086 159.999 339.722 158.637 338.04 158.637H329.924C328.242 158.637 326.879 159.999 326.879 161.68V169.081C326.879 170.762 325.515 172.124 323.833 172.124H308.806C307.124 172.124 305.76 173.486 305.76 175.167V208.03C305.76 209.18 306.406 210.168 307.347 210.686H304.171C305.113 210.168 305.758 209.18 305.758 208.03V190.999C305.758 189.318 304.395 187.956 302.712 187.956H289.514C287.832 187.956 286.469 186.593 286.469 184.913V167.012C286.469 165.332 285.105 163.97 283.423 163.97H266.473C264.791 163.97 263.427 165.332 263.427 167.012V173.351C263.427 175.032 262.063 176.394 260.381 176.394H257.092C255.41 176.394 254.046 177.756 254.046 179.437V208.03C254.046 209.18 254.692 210.168 255.634 210.686H244.298C243.925 210.686 243.623 210.987 243.623 211.36C243.623 211.732 243.925 212.034 244.298 212.034H484.461C484.834 212.034 485.136 211.732 485.136 211.36C485.136 210.987 484.834 210.686 484.461 210.686Z" fill="#C05D86"/>
</g>
<mask id="mask2_7016_4542" style="mask-type:alpha" maskUnits="userSpaceOnUse" x="0" y="0" width="298" height="294">
<path d="M297.28 0.748169V293.296H0.385498V0.748169H297.28Z" fill="black"/>
</mask>
<g mask="url(#mask2_7016_4542)">
<path d="M185.851 268.761C185.851 270.415 147.479 271.755 100.144 271.755C52.8099 271.755 14.438 270.415 14.438 268.761C14.438 267.108 52.8099 265.768 100.144 265.768C147.479 265.768 185.851 267.108 185.851 268.761Z" fill="#CDB1BC"/>
<path d="M404.135 268.761C404.135 270.415 365.763 271.755 318.429 271.755C271.095 271.755 232.723 270.415 232.723 268.761C232.723 267.108 271.095 265.768 318.429 265.768C365.763 265.768 404.135 267.108 404.135 268.761Z" fill="#CDB1BC"/>
</g>
<path d="M73.018 222.143C85.5202 219.965 97.4454 228.343 99.6309 240.838C101.816 253.334 93.44 265.247 80.9378 267.424C68.4356 269.601 56.5103 261.224 54.3249 248.729C52.1394 236.233 60.5158 224.32 73.018 222.143Z" fill="#612D43"/>
<path d="M74.3247 229.614C82.7012 228.155 90.6911 233.768 92.1554 242.14C93.6196 250.512 88.0074 258.494 79.631 259.953C71.2545 261.411 63.2646 255.798 61.8003 247.427C60.3361 239.055 65.9483 231.073 74.3247 229.614Z" fill="#FDE6F0"/>
<path d="M75.7898 237.991C79.5405 237.338 83.118 239.851 83.7737 243.6C84.4293 247.348 81.9164 250.922 78.1657 251.576C74.4151 252.229 70.8375 249.716 70.1819 245.967C69.5262 242.218 72.0391 238.644 75.7898 237.991Z" fill="#612D43"/>
<g opacity="0.6">
<path d="M82.7414 261.519C73.5006 264.692 63.4152 259.768 60.2344 250.531C57.0535 241.295 61.9736 231.22 71.2144 228.047C80.4551 224.875 90.5405 229.799 93.7214 239.035C96.9022 248.272 91.9821 258.347 82.7414 261.519Z" stroke="white" stroke-opacity="0.95" stroke-width="3.8885" stroke-linecap="round" stroke-linejoin="round" stroke-dasharray="28.77 28.77"/>
</g>
<path d="M200.88 222.249C213.382 220.072 225.307 228.45 227.492 240.945C229.678 253.44 221.302 265.353 208.799 267.531C196.297 269.708 184.372 261.331 182.186 248.835C180.001 236.34 188.377 224.427 200.88 222.249Z" fill="#612D43"/>
<path d="M202.186 229.721C210.563 228.262 218.553 233.875 220.017 242.247C221.481 250.619 215.869 258.601 207.493 260.059C199.116 261.518 191.126 255.905 189.662 247.533C188.198 239.161 193.81 231.18 202.186 229.721Z" fill="#FDE6F0"/>
<path d="M203.651 238.098C207.402 237.445 210.98 239.958 211.635 243.707C212.291 247.455 209.778 251.029 206.027 251.682C202.277 252.335 198.699 249.822 198.043 246.074C197.388 242.325 199.901 238.751 203.651 238.098Z" fill="#612D43"/>
<g opacity="0.6">
<path d="M210.603 261.626C201.362 264.799 191.277 259.875 188.096 250.638C184.915 241.402 189.835 231.326 199.076 228.154C208.317 224.982 218.402 229.905 221.583 239.142C224.764 248.379 219.844 258.454 210.603 261.626Z" stroke="white" stroke-width="3.8885" stroke-linecap="round" stroke-linejoin="round" stroke-dasharray="28.77 28.77"/>
</g>
<path d="M158.208 219.167L160.027 226.533L158.464 229.37C157.795 230.592 156.554 231.253 155.293 231.274C154.391 231.289 153.484 230.984 152.755 230.317L150.864 228.603L149.994 224.711L149.994 224.702L151.118 221.087L158.208 219.167Z" fill="#F664A1"/>
<path d="M161.806 226.117C161.207 225.7 160.376 225.888 160.028 226.534L158.464 229.37C157.795 230.593 156.554 231.253 155.294 231.274C154.392 231.289 153.484 230.984 152.755 230.317L150.864 228.604L149.899 227.728L148.3 233.144L148.3 233.153L155.341 232.97L159.152 232.878C161.723 232.816 164.038 231.421 165.312 229.258C165.407 229.101 165.492 228.955 165.586 228.798L161.806 226.117Z" fill="#743D54"/>
<path d="M159.897 192.775L162.303 218.054L158.208 219.168L151.119 221.087L159.897 192.775Z" fill="#71314C"/>
<path d="M158.688 180.07L158.913 182.47C157.103 179.805 154.093 177.945 150.52 177.81L117.264 176.984L118.939 174.906C119.463 174.296 121.051 174.164 121.856 174.112L149.103 172.472L149.762 172.432C154.308 172.164 158.255 175.54 158.688 180.07Z" fill="#71314C"/>
<path d="M190.916 199.777C190.284 199.627 189.738 199.244 189.365 198.723C185.706 193.528 183.022 187.704 181.451 181.552L177.849 167.478C176.471 166.151 175.612 164.306 175.596 162.261C175.584 160.653 176.087 159.175 176.96 157.957C176.96 157.957 169.589 158.305 167.381 162.519C165.989 164.452 165.921 166.9 167.137 168.533C168.069 169.785 170.076 170.987 171.874 170.181C173.546 169.432 173.911 167.447 173.947 167.236L182.949 194.479L183.084 195.699C183.961 203.679 183.248 211.768 180.979 219.471L179.864 223.269L177.014 229.824L175.88 232.44C173.545 237.808 165.075 242.364 158.653 242.142L157.898 242.148C157.61 242.169 161.105 241.804 160.177 242.131L157.149 243.191C154.333 244.182 151.349 244.632 148.36 244.529C148 244.512 147.651 244.495 147.292 244.459L131.235 243.168C130.284 243.088 130.833 243.608 130.409 242.807L130.16 243.399L130.076 243.399C129.859 242.994 129.92 242.781 129.945 242.296C130.214 237.022 131.311 232.474 131.311 232.474L134.427 235.166L134.748 232.149C133.124 231.628 129.782 230.46 128.281 229.619C122.591 226.426 119.577 220.653 119.531 214.79C119.515 212.735 119.858 210.668 120.59 208.714C121.464 206.353 122.883 204.141 124.876 202.255L134.613 193.031L110.316 193.742C110.316 193.742 107.864 194.013 105.262 193.839L77.1407 195.559C76.9758 195.57 76.8113 195.59 76.6563 195.611C74.2436 195.998 72.4262 198.096 72.4456 200.586C72.4456 200.586 66.6955 202.24 60.0927 207.728C58.772 208.833 57.414 210.085 56.057 211.51C54.0842 213.59 52.1145 216.047 50.2839 218.921C47.1113 223.888 44.3463 230.122 42.6216 237.899L45.909 232.679C52.9144 221.556 62.5927 212.361 74.0685 205.934C78.5216 203.447 83.4692 202.168 88.4362 202.13C92.5784 202.098 96.7469 202.929 100.641 204.633C109.246 208.395 114.123 216.683 114.189 225.202C114.227 230.057 112.694 235.002 109.399 239.224L105.066 244.782L105.067 244.782L104.952 247.507L148.429 249.274L155.805 249.576C164.258 249.917 172.101 245.427 176.109 238.117C176.453 237.504 176.759 236.862 177.045 236.211L179.805 231.876C182.786 227.211 184.725 222.039 185.566 216.702C188.68 214.149 192.401 212.298 196.478 211.413L196.478 211.404C197.042 210.227 197.294 209.003 197.284 207.792C197.256 204.128 194.775 200.707 190.916 199.777Z" fill="#FF1476"/>
<path d="M183.084 195.699L182.949 194.479L173.947 167.236C173.86 166.85 173.498 165.471 172.167 164.45C170.722 163.342 169.152 163.434 168.785 163.465C168.328 163.662 168.007 163.912 167.778 164.147C166.594 165.362 166.528 167.569 167.448 169.787C169.586 174.067 171.725 178.348 173.863 182.628C180.059 194.676 179.075 209.153 171.323 220.262L167.293 226.04C166.727 226.849 166.229 227.706 165.722 228.563C165.626 228.719 165.54 228.865 165.444 229.02C164.151 231.172 161.824 232.548 159.253 232.587L155.441 232.645L148.399 232.767L141.14 232.655L145.556 234.555L160.45 239.265C161.345 239.626 161.217 240.284 161.223 240.794C161.23 241.297 160.77 241.661 160.771 241.739C160.538 241.85 160.539 241.934 160.175 242.045L161.521 242.14C166.709 240.918 173.545 237.807 175.881 232.439L177.014 229.823L179.864 223.268L180.979 219.47C183.248 211.767 183.961 203.678 183.084 195.699Z" fill="#D11D6A"/>
<path d="M114.189 225.202C114.227 230.057 112.693 235.002 109.398 239.224L105.066 244.783L104.952 247.507L100.4 247.319C100.435 246.795 100.45 246.263 100.446 245.729C100.345 232.752 89.7376 222.318 76.748 222.419C63.9814 222.517 53.6799 232.745 53.4292 245.414L48.6159 245.219C44.7453 245.249 41.7877 241.686 42.6216 237.899L45.9087 232.679C52.914 221.556 62.5926 212.361 74.0681 205.934C78.5212 203.447 83.4688 202.168 88.4358 202.13C92.5784 202.098 96.7465 202.929 100.64 204.633C109.246 208.395 114.123 216.683 114.189 225.202Z" fill="#D11D6A"/>
<path d="M76.7474 222.418C63.9807 222.517 53.6796 232.745 53.4289 245.414L61.5423 245.749L69.9269 246.081L83.9019 246.651L92.2964 246.994L100.4 247.319C100.435 246.795 100.45 246.262 100.446 245.729C100.345 232.752 89.737 222.318 76.7474 222.418Z" fill="#FF84B7"/>
<path d="M83.4242 240.916C83.4151 240.917 83.4063 240.917 83.3972 240.916L62.4117 239.931C62.144 239.919 61.9371 239.691 61.9499 239.424C61.962 239.156 62.1964 238.936 62.4571 238.963L83.4426 239.948C83.7103 239.96 83.9172 240.188 83.9044 240.455C83.8926 240.713 83.6799 240.914 83.4242 240.916Z" fill="white"/>
<path d="M85.3353 238.978C85.3262 238.978 85.3174 238.978 85.3083 238.977L64.3228 237.992C64.0551 237.98 63.8482 237.753 63.861 237.485C63.8731 237.217 64.1045 237 64.3682 237.024L85.3538 238.01C85.6214 238.022 85.828 238.249 85.8155 238.516C85.8037 238.774 85.591 238.976 85.3353 238.978Z" fill="white"/>
<path d="M87.2467 237.039C87.2376 237.039 87.2288 237.039 87.2197 237.038L66.2342 236.053C65.9665 236.041 65.7596 235.813 65.7724 235.546C65.7845 235.278 66.0132 235.064 66.2796 235.085L87.2651 236.07C87.5328 236.082 87.7397 236.31 87.7269 236.577C87.7151 236.836 87.5024 237.037 87.2467 237.039Z" fill="white"/>
<path d="M89.043 235.215C89.0345 235.215 89.0258 235.215 89.0163 235.214L68.0305 234.23C67.7628 234.218 67.5563 233.991 67.569 233.724C67.5811 233.456 67.8109 233.24 68.0762 233.263L89.0618 234.247C89.3291 234.259 89.5366 234.486 89.5235 234.753C89.5114 235.012 89.2987 235.213 89.043 235.215Z" fill="white"/>
<path d="M100.643 204.634C104.368 206.139 107.709 208.689 110.125 211.959C111.377 213.567 112.292 215.403 113.101 217.274C113.781 219.194 114.332 221.181 114.485 223.223C114.865 227.281 114.253 231.489 112.448 235.183C111.551 237.02 110.376 238.742 109.13 240.314L105.402 245.045L105.065 244.364C108.868 244.338 112.672 244.404 116.476 244.42C120.279 244.448 124.083 244.517 127.887 244.609C124.085 244.761 120.283 244.888 116.48 244.975C112.677 245.049 108.875 245.174 105.072 245.207C104.838 245.21 104.648 245.022 104.646 244.789C104.645 244.691 104.679 244.598 104.735 244.526L108.416 239.759C109.647 238.171 110.723 236.551 111.576 234.769C113.323 231.242 113.962 227.216 113.633 223.303C113.506 221.333 112.98 219.421 112.396 217.537C111.666 215.707 110.834 213.894 109.66 212.293C107.386 209.049 104.274 206.373 100.643 204.634Z" fill="#542A3C"/>
<path d="M134.613 193.031L124.876 202.256C122.883 204.142 121.464 206.353 120.59 208.715C110.118 205.714 105.262 193.839 105.262 193.839C107.863 194.013 110.316 193.742 110.316 193.742L134.613 193.031Z" fill="#D11D6A"/>
<path d="M201.858 210.807C200.015 210.822 198.212 211.03 196.479 211.402L196.479 211.411C192.401 212.296 188.681 214.147 185.567 216.7C184.725 222.037 182.787 227.209 179.806 231.874L177.045 236.209C176.759 236.86 176.454 237.502 176.109 238.115C176.213 240.237 176.568 242.28 177.156 244.223L181.19 242.796L190.14 239.635L212.509 231.718L221.458 228.548L226.111 226.903C222.186 217.386 212.791 210.723 201.858 210.807Z" fill="#FF84B7"/>
<path d="M188.317 154.865L188.43 169.45L184.812 169.478C185.295 162.991 184.689 154.893 184.689 154.893L188.317 154.865Z" fill="#FF84B7"/>
<path d="M177.85 167.478C176.472 166.151 175.613 164.306 175.597 162.261C175.585 160.653 176.088 159.176 176.961 157.957C177.182 157.646 177.422 157.353 177.691 157.08C179.01 155.751 180.828 154.923 182.836 154.908L184.689 154.893C184.689 154.893 185.295 162.991 184.812 169.478L182.949 169.493C180.98 169.508 179.179 168.737 177.85 167.478Z" fill="#D11D6A"/>
<path d="M169.82 166.286C170.863 166.278 171.717 167.118 171.725 168.16C171.734 169.203 170.893 170.056 169.849 170.064C168.806 170.072 167.952 169.232 167.944 168.19C167.936 167.147 168.776 166.294 169.82 166.286Z" fill="black"/>
<path d="M84.9481 159.706L52.6659 160.824L52.0652 143.57L84.3473 142.453L84.9481 159.706Z" fill="#FF006A"/>
<path d="M70.452 152.108L66.5987 152.241L66.2798 143.079L70.1331 142.946L70.452 152.108Z" fill="#A22459"/>
<path d="M82.759 148.195L75.3676 148.451L75.2615 145.403L82.6529 145.147L82.759 148.195Z" fill="#FFCCE1"/>
<path d="M94.1189 191.96L94.1959 194.173L76.8687 195.715L76.1235 195.894L65.5266 192.95L94.1189 191.96Z" fill="#393134"/>
<path d="M93.7149 180.379L94.119 191.965L65.5293 192.953L50.1053 193.486L48.9705 160.947L92.9841 159.425L93.7149 180.379Z" fill="#FF1476"/>
<path d="M90.5349 173.716L51.9183 175.054L51.8386 172.764L90.4552 171.427L90.5349 173.716Z" fill="#D11D6A"/>
<path d="M90.7696 180.463L52.153 181.8L52.0732 179.511L90.6899 178.173L90.7696 180.463Z" fill="#D11D6A"/>
<path d="M91.0039 187.21L52.3873 188.547L52.3076 186.257L90.9242 184.92L91.0039 187.21Z" fill="#D11D6A"/>
<path d="M76.8173 167.041L64.525 167.466C63.5421 167.5 62.7177 166.732 62.6834 165.749L62.5671 162.414L78.4185 161.866L78.5348 165.201C78.5691 166.183 77.8001 167.007 76.8173 167.041Z" fill="#D11D6A"/>
<path d="M50.6812 162.827C53.96 162.514 57.2422 162.306 60.5252 162.115C63.8079 161.912 67.093 161.786 70.3783 161.66C73.6645 161.557 76.9503 161.456 80.2392 161.43L85.1724 161.394C86.8179 161.418 88.4626 161.408 90.1092 161.461C88.4703 161.628 86.8289 161.732 85.1889 161.87L80.2651 162.176C76.9824 162.378 73.6974 162.504 70.412 162.629C67.1258 162.731 63.8399 162.832 60.5511 162.857C57.2626 162.894 53.9739 162.914 50.6812 162.827Z" fill="#542A3C"/>
<path d="M144.087 126.949C142.716 127.111 139.593 130.195 139.022 131.04C138.423 131.926 138.126 132.731 137.67 133.278C136.622 134.538 134.993 132.715 134.277 132.147C132.031 130.368 129.416 127.322 129.733 126.523C130.169 125.425 130.468 125.536 130.907 125.292L130.909 125.282L134 123.095C135.654 121.918 138.084 119.047 139.143 117.711C139.143 117.711 139.947 118.23 140.53 121.399C141.052 124.24 144.12 126.971 144.087 126.949Z" fill="#FF99C3"/>
<path d="M131.973 155.881C131.589 157.526 131.204 159.171 130.819 160.816C130.496 162.462 130.172 164.109 129.848 165.755C129.848 165.755 128.405 172.729 125.709 176.275C124.908 176.183 124.113 176.416 123.49 176.922L121.414 177.977C120.76 177.83 124.732 180.143 124.749 183.064L120.002 189.967C119.061 190.667 115.253 191.86 114.133 192.216C114.133 192.216 110.534 193.59 108.727 193.272C102.888 193.983 98.8706 189.526 98.8706 189.526C98.1061 189.096 97.4911 188.474 97.072 187.738C96.6526 187.001 96.4276 186.159 96.4529 185.289C96.5041 183.068 96.7117 180.852 97.0706 178.671C97.5351 175.85 98.2481 173.069 99.2231 170.371L108.495 144.614C109.66 141.357 111.22 138.273 113.115 135.411C115.021 132.551 117.262 129.922 119.81 127.579C121.164 126.338 122.764 125.451 124.48 124.937C126.185 124.431 128.015 124.298 129.833 124.596C130.015 124.626 130.186 124.664 130.364 124.713C132.078 125.112 133.582 126.124 134.622 127.562L137.956 132.205C138.396 132.817 138.326 133.66 137.796 134.192L136.608 135.382C136.367 137.53 136.039 139.785 135.604 142.13C134.652 147.256 133.363 151.856 131.973 155.881Z" fill="#FF006A"/>
<path d="M106.831 176.746C107.969 176.397 109.093 176.021 110.186 175.564C111.29 175.14 112.371 174.661 113.429 174.139C115.544 173.097 117.586 171.911 119.459 170.494C121.383 169.14 123.039 167.456 124.541 165.661L125.613 164.262C125.945 163.778 126.224 163.259 126.536 162.759L127.005 162.007L127.382 161.207C127.628 160.67 127.884 160.134 128.147 159.598C127.434 161.857 126.454 164.088 124.984 166.001C123.538 167.916 121.826 169.646 119.893 171.077C117.941 172.477 115.86 173.696 113.662 174.644C111.463 175.583 109.181 176.345 106.831 176.746Z" fill="#952755"/>
<path d="M101.792 180.491C103.383 180.58 104.965 180.605 106.543 180.561C108.121 180.511 109.694 180.417 111.257 180.23C112.823 180.07 114.376 179.809 115.919 179.488C117.471 179.192 118.979 178.728 120.518 178.298C119.092 179.008 117.601 179.616 116.053 180.031C114.515 180.487 112.93 180.773 111.337 180.952C109.743 181.124 108.138 181.201 106.539 181.118C104.941 181.045 103.343 180.877 101.792 180.491Z" fill="#952755"/>
<path d="M130.873 127.056C131.68 127.394 132.414 127.904 133.066 128.494C133.721 129.084 134.303 129.757 134.795 130.49C135.268 131.234 135.705 132.008 135.991 132.842C136.163 133.247 136.258 133.679 136.379 134.099C136.474 134.526 136.546 134.958 136.607 135.389C136.303 134.569 136.006 133.764 135.635 132.992L135.359 132.414L135.049 131.854C134.851 131.477 134.615 131.122 134.384 130.766C133.918 130.054 133.375 129.396 132.796 128.77C132.208 128.152 131.583 127.56 130.873 127.056Z" fill="#952755"/>
<path d="M110.294 140.337C110.177 141.594 110.094 142.847 110.042 144.101C109.998 145.356 109.957 146.609 109.974 147.862C109.976 149.115 110.013 150.368 110.077 151.621C110.129 152.876 110.253 154.125 110.342 155.386C110.2 154.772 110.066 154.153 109.957 153.531C109.86 152.907 109.764 152.281 109.698 151.652C109.543 150.396 109.492 149.129 109.479 147.864C109.475 146.599 109.529 145.332 109.664 144.074C109.73 143.445 109.812 142.818 109.906 142.193C110.021 141.571 110.127 140.947 110.294 140.337Z" fill="#952755"/>
<path d="M146.215 126.215C146.013 126.167 145.822 126.109 145.641 126.032C145.574 126.009 145.508 125.987 145.441 125.954C144.103 126.294 143.182 126.851 142.639 127.243C140.871 128.517 136.191 120.919 137.012 119.058L137.877 117.072C138.167 117.29 138.53 117.424 138.917 117.443C139.45 117.47 139.945 117.281 140.302 116.939L139.727 118.162C139.456 118.731 139.694 119.422 140.263 119.703C140.405 119.768 140.558 119.805 140.713 119.812C141.188 119.836 141.648 119.577 141.846 119.111L141.868 119.054L142.241 119.169C142.083 119.618 142.475 119.937 142.624 120.459C142.939 121.561 143.014 122.603 143.603 123.642C143.826 124.033 143.949 124.369 144.248 124.75C144.897 125.577 145.7 126.001 146.215 126.215Z" fill="#FF99C3"/>
<path d="M149.674 109.885C147.499 110.079 144.737 109.739 141.264 108.482L127.85 116.567C127.85 116.567 127.3 122.586 133.507 123.958C133.511 123.955 133.514 123.951 133.518 123.947C135.031 124.561 136.742 123.274 137.033 121.798C137.179 121.059 137.234 120.405 137.565 119.699C137.835 119.121 137.782 118.649 137.773 118.048C137.769 117.717 137.835 117.41 137.853 117.095L137.868 117.059C137.863 117.055 137.86 117.051 137.855 117.047C137.857 117.005 137.861 116.963 137.86 116.921C137.806 116.912 137.751 116.919 137.697 116.917C137.302 116.549 137.065 116.017 137.094 115.429C137.146 114.374 138.041 113.564 139.097 113.616C140.153 113.668 140.964 114.562 140.912 115.617L140.293 116.926L139.718 118.149C139.447 118.718 139.685 119.409 140.254 119.69C140.396 119.755 140.55 119.791 140.705 119.799C141.18 119.822 141.639 119.563 141.837 119.098L141.859 119.041L143.087 115.025C143.457 113.83 144.48 112.988 145.714 112.777C146.694 112.602 148.009 112.123 149.599 111.007C149.613 110.328 149.673 109.895 149.673 109.895L149.674 109.885Z" fill="#B81D5E"/>
<path d="M143.608 122.853C143.574 122.851 143.54 122.835 143.518 122.806L139.067 117.118C139.026 117.066 139.035 116.99 139.088 116.948C139.14 116.907 139.217 116.916 139.259 116.97L143.709 122.657C143.75 122.71 143.741 122.786 143.689 122.827C143.665 122.846 143.636 122.854 143.608 122.853Z" fill="#3F3F3F"/>
<path d="M151.632 117.36C151.942 117.722 152.032 118.228 151.576 118.37L151.338 118.422C150.399 118.714 149.743 119.561 149.694 120.541L149.657 121.3L149.489 124.697C149.439 125.72 148.568 126.517 147.545 126.465C147.113 126.443 146.683 126.374 146.255 126.266L146.246 126.266C145.497 125.88 144.84 125.43 144.278 124.801C143.975 124.456 143.866 124.101 143.634 123.692C143.044 122.653 142.969 121.612 142.655 120.509C142.505 119.987 142.113 119.668 142.272 119.219C142.305 119.143 142.337 119.077 142.389 119.002C142.661 118.617 143.126 118.242 143.574 118.216C144.801 118.15 146.034 118.763 147.284 118.214C147.741 118.022 148.137 117.673 148.557 117.413C149.299 116.954 150.298 116.79 151.191 116.795C151.326 116.988 151.473 117.175 151.632 117.36Z" fill="#E1377E"/>
<path d="M143.324 124.308C143.788 124.841 144.316 125.329 144.943 125.656C145.132 125.755 145.326 125.844 145.523 125.922C145.523 125.922 144.192 126.138 142.721 127.211C139.506 124.821 140.539 121.109 140.539 121.109L143.324 124.308Z" fill="#F664A1"/>
<path d="M147.926 104.515L157.335 104.977C157.335 104.977 155.758 109.364 149.799 109.858C147.624 110.051 144.863 109.712 141.389 108.454L147.926 104.515Z" fill="#FF006A"/>
<path d="M147.926 104.514L141.389 108.453L127.975 116.538L127.574 116.78C123.875 110.465 125.412 106.28 127.337 103.891C128.465 102.481 130.959 100.953 132.643 100.289C144.699 95.5145 147.926 104.514 147.926 104.514Z" fill="#FF006A"/>
<path d="M133.953 100.983C134.883 101.103 135.783 101.416 136.634 101.826C137.487 102.236 138.271 102.793 138.962 103.449C139.653 104.104 140.235 104.883 140.634 105.747C141.074 106.592 141.279 107.531 141.389 108.453C141.081 107.571 140.794 106.695 140.304 105.922C139.847 105.137 139.29 104.414 138.626 103.798C137.323 102.535 135.702 101.618 133.953 100.983Z" fill="#A22459"/>
<path d="M144.569 120.536C145.014 120.632 145.466 120.66 145.913 120.667C146.361 120.666 146.809 120.647 147.249 120.569C148.137 120.445 148.988 120.153 149.833 119.811C149.452 120.059 149.05 120.286 148.618 120.447C148.192 120.626 147.738 120.722 147.286 120.809C146.376 120.926 145.416 120.9 144.569 120.536Z" fill="#3F3F3F"/>
<path d="M144.08 121.724C144.438 122.04 144.827 122.311 145.226 122.559C145.626 122.804 146.041 123.026 146.479 123.191C147.34 123.566 148.271 123.725 149.223 123.795C148.749 123.846 148.263 123.868 147.785 123.79C147.304 123.731 146.838 123.589 146.387 123.415C145.498 123.04 144.67 122.482 144.08 121.724Z" fill="#3F3F3F"/>
<path d="M149.623 111.06C149.604 112.437 149.806 114.825 151.176 116.784C150.283 116.779 149.284 116.944 148.543 117.402C148.122 117.663 147.726 118.012 147.27 118.203C146.019 118.753 144.786 118.139 143.559 118.205C143.111 118.232 142.646 118.607 142.375 118.991C142.322 119.067 142.29 119.133 142.257 119.209L141.884 119.093L143.112 115.078C143.481 113.883 144.504 113.04 145.738 112.829C146.718 112.654 148.034 112.176 149.623 111.06Z" fill="#FF99C3"/>
<path d="M143.738 118.665C143.708 118.664 143.678 118.651 143.657 118.628L140.507 115.317C140.461 115.269 140.463 115.192 140.511 115.146C140.562 115.101 140.638 115.102 140.682 115.151L143.832 118.461C143.878 118.509 143.876 118.586 143.828 118.632C143.802 118.656 143.77 118.667 143.738 118.665Z" fill="#3F3F3F"/>
<path d="M149.179 112.842C148.928 113.059 148.703 113.204 148.494 113.352C148.288 113.5 148.076 113.597 147.905 113.753C147.688 113.842 147.528 113.996 147.324 114.125C147.11 114.253 146.923 114.422 146.63 114.597L146.577 114.577C146.773 114.058 147.125 113.588 147.597 113.281C148.074 112.984 148.622 112.82 149.177 112.786L149.179 112.842Z" fill="#B81D5E"/>
<path d="M148.974 114.714C148.989 114.409 148.754 114.15 148.449 114.135C148.143 114.12 147.884 114.355 147.868 114.66C147.853 114.965 148.089 115.225 148.394 115.24C148.699 115.255 148.959 115.019 148.974 114.714Z" fill="#23000E"/>
<path d="M140.935 115.647L140.317 116.956C139.96 117.297 139.465 117.487 138.932 117.461C138.545 117.442 138.182 117.307 137.892 117.089C137.395 116.725 137.085 116.128 137.118 115.46C137.17 114.405 138.065 113.594 139.121 113.646C140.177 113.698 140.987 114.592 140.935 115.647Z" fill="#F664A1"/>
<path d="M159.453 182.177C157.666 179.497 154.673 177.61 151.101 177.444L127.301 176.256C124.18 176.111 122.282 176.697 119.837 178.753L113.873 185.957C111.15 189.001 109.108 189.748 107.666 190.045L100.765 191.668C102.212 192.966 102.768 193.684 105.263 193.839C107.864 194.013 110.317 193.742 110.317 193.742L134.614 193.031L143.663 192.767L132.709 230.088L133.575 230.324L142.762 232.85L142.782 232.86L147.467 232.775L150.166 224.342L150.166 224.332L151.322 220.727L160.348 192.492L160.727 191.297C161.768 188.042 161.161 184.742 159.453 182.177Z" fill="#833455"/>
<path d="M162.027 239.906C162.042 239.993 162.048 240.079 162.052 240.157C162.061 240.292 162.059 240.428 162.048 240.565C161.959 241.512 161.359 242.354 160.448 242.73L157.48 243.947C154.721 245.084 151.764 245.688 148.774 245.741C148.414 245.743 148.064 245.745 147.704 245.728L131.602 245.276C130.648 245.246 129.81 244.723 129.345 243.945C129.107 243.551 128.973 243.093 128.973 242.608C128.965 237.325 130.827 232.581 130.827 232.581L131.779 233.388L132.394 233.915C134.309 235.538 137.051 235.723 139.157 234.373L142.272 232.37L142.291 232.369L142.301 232.368L146.645 233.322L160.28 237.845C161.193 238.159 161.872 238.944 162.027 239.906Z" fill="#B04974"/>
<path d="M132.975 230.318L132.444 231.681L131.78 233.391L132.395 233.917C134.31 235.541 137.052 235.726 139.157 234.376L142.273 232.373L142.282 232.363L132.975 230.318Z" fill="#FF99C3"/>
<path d="M161.167 240.742C160.582 241.066 159.939 241.264 159.316 241.501L157.429 242.167L153.628 243.417C152.342 243.838 150.987 244.035 149.633 244.052C148.281 244.033 146.963 243.973 145.626 243.935C142.963 243.815 140.299 243.717 137.636 243.577L133.642 243.357C133.308 243.331 132.981 243.324 132.638 243.28C132.299 243.234 131.968 243.142 131.657 243.009C131.344 242.877 131.051 242.703 130.786 242.495C130.521 242.286 130.3 242.033 130.068 241.795C130.55 242.256 131.078 242.674 131.705 242.887C132.012 242.998 132.335 243.069 132.659 243.094C132.979 243.117 133.32 243.107 133.651 243.115L137.65 243.196C140.316 243.257 142.98 243.36 145.645 243.441C146.973 243.493 148.318 243.568 149.631 243.602C150.944 243.607 152.252 243.406 153.518 243.054L157.356 241.937L159.275 241.377L160.23 241.083C160.545 240.977 160.873 240.898 161.167 240.742Z" fill="#743D54"/>
<path d="M125.521 169.555C125.272 169.17 125.065 168.696 125.065 168.696C124.702 167.835 124.591 166.921 124.518 165.65C124.335 162.466 123.751 159.315 123.549 156.133C123.423 154.131 123.198 151.246 122.77 147.715C126.505 148.231 130.241 148.747 133.976 149.262C133.868 150.914 133.8 152.439 133.76 153.824C133.748 154.251 133.743 154.71 133.729 155.61C133.647 161.289 133.699 161.938 134.135 162.799C134.759 164.032 135.282 163.945 135.53 165.031C135.886 166.592 135.096 168.043 134.585 168.98C133.898 170.241 133.373 171.215 132.249 171.762C129.794 172.957 126.609 171.231 125.521 169.555Z" fill="#FF99C3"/>
<path d="M127.128 171.144C126.066 170.321 125.47 169.437 125.156 168.882C124.61 167.918 124.385 167.065 124.267 166.405C124.109 165.517 124.076 164.701 123.992 163.848C123.842 162.16 123.709 160.47 123.618 158.776C123.511 157.083 123.428 155.389 123.401 153.689C123.882 155.801 124.059 157.516 124.13 158.728C124.182 159.621 124.189 160.479 124.321 162.417C124.426 163.97 124.504 164.648 124.544 164.974C124.752 166.673 124.856 167.523 125.197 168.382C125.459 169.041 125.989 170.08 127.128 171.144Z" fill="#952755"/>
<path d="M121.54 128.243C122.444 127.386 124.491 126.608 125.173 126.507C126.2 126.356 127.785 125.989 129.614 126.633C132.018 127.48 132.761 128.631 133.788 130.398C135.126 132.699 135.672 134.968 135.883 136.747C135.234 141.986 134.585 147.225 133.936 152.465L123.2 151.616C121.032 151.427 118.864 151.238 116.696 151.049C117.575 145.536 118.262 141.17 118.674 138.569C118.883 137.247 119.042 136.257 119.193 134.836C119.387 133.005 119.278 132.786 119.501 131.743C119.828 130.209 120.533 129.198 121.54 128.243Z" fill="#FF006A"/>
<path d="M119.377 133.528C119.281 134.987 119.169 136.444 119.024 137.897C118.871 139.349 118.757 140.806 118.571 142.254L118.053 146.602L117.457 150.941L117.166 150.577C118.725 150.725 120.278 150.926 121.833 151.118C123.388 151.301 124.94 151.53 126.489 151.772C124.921 151.722 123.355 151.661 121.792 151.554C120.229 151.455 118.665 151.365 117.106 151.222L116.774 151.191L116.814 150.858L117.339 146.511L117.942 142.173C118.129 140.726 118.389 139.288 118.609 137.844C118.838 136.402 119.099 134.964 119.377 133.528Z" fill="#952755"/>
<path d="M131.502 127.633C132.247 128.092 132.893 128.709 133.447 129.392C134.003 130.076 134.474 130.83 134.847 131.631C135.2 132.438 135.512 133.271 135.666 134.139C135.774 134.565 135.8 135.007 135.856 135.44C135.884 135.877 135.888 136.315 135.882 136.75C135.708 135.894 135.539 135.052 135.291 134.232L135.107 133.618L134.888 133.018C134.75 132.615 134.572 132.227 134.398 131.84C134.048 131.065 133.613 130.331 133.138 129.623C132.652 128.922 132.126 128.241 131.502 127.633Z" fill="#952755"/>
<path d="M160.42 170.34C160.405 170.628 160.327 171.28 159.833 171.729C159.63 171.914 159.423 172.011 159.182 172.109C158.883 172.231 158.426 172.378 157.824 172.426L149.585 173.539C149.103 173.609 148.611 173.66 148.128 173.711C145.157 174.022 142.671 173.929 139.601 173.687C135.625 173.374 132.351 172.35 129.192 171.843C128.75 171.42 127.318 170.872 126.872 169.122C126.433 167.4 126.788 165.984 126.969 165.4C127.094 165 127.545 163.739 128.836 162.914C130.823 161.645 133.014 162.547 133.213 162.632C135.373 163.297 137.534 163.961 139.694 164.626C142.992 165.575 145.855 166.303 148.16 166.85C151.53 167.649 153.553 168.028 155.89 168.267C156.871 168.367 157.692 168.421 158.269 168.451C159.207 168.299 160.053 168.68 160.354 169.331C160.538 169.729 160.473 170.13 160.42 170.34Z" fill="#FF99C3"/>
<path d="M172.409 164.251C172.983 164.46 173.309 165.049 173.194 165.646L172.312 170.1C172.204 170.663 171.631 171.001 171.085 170.833C170.813 170.738 170.603 170.543 170.496 170.293C170.42 170.114 170.398 169.913 170.449 169.712L170.54 169.284C170.801 168.983 170.905 168.559 170.795 168.153L170.952 167.433C171.022 167.129 170.775 166.844 170.46 166.873L169.669 166.946C169.179 166.985 168.734 167.228 168.424 167.613L165.013 171.847C164.881 172.009 164.729 172.147 164.566 172.259C164.198 172.531 163.741 172.673 163.276 172.671L160.3 172.641C159.872 172.668 159.486 172.685 159.151 172.696C158.762 172.709 158.598 172.709 158.401 172.621C158.116 172.494 157.958 172.273 157.845 172.111C157.592 171.748 157.525 171.395 157.484 171.166C157.311 170.196 157.665 169.426 157.764 169.225C157.856 169.04 157.951 168.895 158.023 168.796C158.619 168.639 159.366 168.384 160.174 167.962C160.991 167.534 161.63 167.06 162.101 166.657L165.316 163.813L165.647 163.525C166.514 162.766 167.723 162.536 168.808 162.928L172.409 164.251Z" fill="#FF99C3"/>
<path d="M284.255 215.318L225.724 215.367C218.653 215.34 212.67 209.32 212.694 202.256L213.196 54.9909C213.22 47.9222 218.977 42.2121 226.053 42.2386L284.854 42.4615C291.926 42.4884 297.638 48.2355 297.614 55.3005L297.112 202.566C297.088 209.635 291.331 215.345 284.255 215.318Z" fill="#331924"/>
<path d="M265.647 150.629L265.018 141.624L285.171 139.02L285.173 140.573L282.742 148.855L265.647 150.629Z" fill="#EDEDED"/>
<path d="M284.916 45.9797L273.515 45.9365C271.987 45.931 270.743 47.2208 270.737 48.817L270.73 50.8827C270.725 52.4793 269.481 53.7692 267.952 53.7633L245.73 53.6792C244.202 53.6737 242.966 52.3741 242.972 50.7775L242.979 48.7118C242.984 47.1152 241.749 45.8156 240.22 45.8102L236.211 45.7949L226.233 45.757C221.277 45.7384 217.245 49.7373 217.228 54.6881L216.739 198.43C216.722 203.378 220.722 207.403 225.675 207.422L284.358 207.644C289.313 207.663 293.346 203.664 293.363 198.713L293.852 54.9712C293.869 50.0235 289.869 45.9985 284.916 45.9797Z" fill="#F4F4F4"/>
<path d="M259.978 180.555C259.913 182.291 259.85 183.919 259.798 185.272L268.228 185.265L267.192 180.094L259.978 180.555Z" fill="#F4F4F4"/>
<path d="M225.722 182.749L225.797 185.3L258.957 185.273C259.012 183.84 259.073 182.25 259.135 180.609L225.722 182.749Z" fill="#F4F4F4"/>
<path d="M267.615 180.067L268.657 185.265L284.198 185.252L284.005 179.017L267.615 180.067Z" fill="#F4F4F4"/>
<path d="M260.76 107.391L263.685 90.3691L255.987 89.8058L256.002 107.395L260.76 107.391Z" fill="#F4F4F4"/>
<path d="M225.021 173.3L216.67 176.576L216.65 182.487L225.277 181.935L225.021 173.3Z" fill="#F4F4F4"/>
<path d="M224.981 171.971L224.511 156.119L224.505 156.12L224.501 150.529L216.756 151.355L216.675 175.22L224.978 171.963L224.981 171.971Z" fill="#F4F4F4"/>
<path d="M224.49 138.049L216.805 137.042L216.761 150.088L224.499 149.262L224.49 138.049Z" fill="#F4F4F4"/>
<path d="M281.775 150.718L281.456 155.261L272.381 156.247L273.086 159.841L283.389 159.056L283.229 153.902L284.048 150.487L281.775 150.718Z" fill="#F4F4F4"/>
<path d="M265.427 160.423L272.664 159.873L271.081 151.805L264.764 152.447L265.427 160.423Z" fill="#F4F4F4"/>
<path d="M265.496 161.261L266.055 167.988L267.044 177.215L267.449 179.235L283.979 178.177L283.415 159.896L265.496 161.261Z" fill="#F4F4F4"/>
<path d="M237.017 129.52L237.654 130.608L224.911 138.048L224.925 155.669L238.38 154.707L264.311 152.071L263.352 140.521L238.575 137.308L238.737 136.058L263.246 139.236L261.622 119.689L237.37 122.039L237.288 121.202L261.553 118.851L260.706 108.652L237.375 108.671L216.889 112.413L216.809 135.771L224.568 136.788L237.017 129.52ZM226.23 153.986C226.23 153.986 226.314 139.456 226.218 138.913L236.616 133.376L237.981 153.234L226.23 153.986Z" fill="#F4F4F4"/>
<path d="M280.926 150.804L271.502 151.762L272.219 155.419L280.666 154.502L280.926 150.804Z" fill="#F4F4F4"/>
<path d="M260.096 177.443C260.067 178.205 260.038 178.966 260.01 179.712L267.026 179.263L266.663 177.455L260.096 177.443Z" fill="#F4F4F4"/>
<path d="M244.926 107.405L246.159 101.806L255.577 101.798L255.567 89.7752L226.115 87.6201L226.124 98.9096L216.928 100.995L216.893 111.131L237.26 107.411L244.926 107.405Z" fill="#F4F4F4"/>
<path d="M264.55 73.9335L264.298 72.9034L275.54 68.4482L268.213 53.7854C268.081 53.805 267.947 53.8186 267.81 53.8181L255.382 53.771L255.737 74.3003L264.55 73.9335Z" fill="#F4F4F4"/>
<path d="M281.587 66.052L281.557 46.0219L273.373 45.9912C271.844 45.9857 270.6 47.2752 270.595 48.8714L270.587 50.9375C270.584 51.9226 270.108 52.7899 269.386 53.3092L276.717 67.9815L281.587 66.052Z" fill="#F4F4F4"/>
<path d="M239.311 66.9462L238.345 45.8582L236.068 45.8493L227.173 45.8159L223.399 64.6776L239.311 66.9462ZM237.268 47.9963L237.585 65.1704L225.761 63.4518L228.338 48.0036L237.268 47.9963Z" fill="#F4F4F4"/>
<path d="M239.741 67.0076L239.743 67.1872C239.765 68.8329 239.801 71.7951 239.828 74.9629L255.317 74.3179L254.961 53.7693L245.587 53.7339C244.059 53.7284 242.824 52.4288 242.829 50.8323L242.836 48.7666C242.841 47.17 241.607 45.8704 240.078 45.8649L238.767 45.8599L239.735 67.0069L239.741 67.0076Z" fill="#F4F4F4"/>
<path d="M222.148 64.499L225.885 45.8213C221.025 45.9126 217.102 49.8609 217.085 54.7425L217.054 64.0526L217.093 63.7782L222.148 64.499Z" fill="#F4F4F4"/>
<path d="M224.853 87.5278L216.976 86.9512L216.932 99.7021L224.862 97.9035L224.853 87.5278Z" fill="#F4F4F4"/>
<path d="M222.066 64.9119L217.053 64.1974L216.983 84.8454L218.062 84.9244L222.066 64.9119Z" fill="#F4F4F4"/>
<path d="M238.065 171.719L238.183 155.142L224.932 156.089L225.413 172.329L238.065 171.719Z" fill="#F4F4F4"/>
<path d="M240.499 167.892L259.276 176.858C259.494 170.988 259.69 165.5 259.671 165.15L260.078 165.128L260.276 164.732C260.543 164.865 260.543 164.865 260.406 168.866C260.33 171.099 260.221 174.069 260.111 177.041L266.602 177.036L265.636 168.028L264.346 152.49L239.826 154.982L240.499 167.892Z" fill="#F4F4F4"/>
<path d="M286.483 140.342L286.269 138.156L263.774 140.512L264.73 152.028L284.153 150.054L286.483 140.342Z" fill="#F4F4F4"/>
<path d="M255.578 103.059L247.174 103.066L246.219 107.404L255.581 107.396L255.578 103.059Z" fill="#F4F4F4"/>
<path d="M282.979 104.5L261.93 103.063L261.077 108.031L261.972 118.81L284.167 116.66L282.979 104.5ZM262.708 108.02L263.836 104.884L282.118 106.024L283.183 114.991L263.335 117.359L262.708 108.02Z" fill="#F4F4F4"/>
<path d="M285.181 127.031L284.249 117.496L262.041 119.648L262.883 129.794L285.181 127.031Z" fill="#F4F4F4"/>
<path d="M225.302 182.775L216.685 183.327L216.649 182.766L216.641 185.308L225.376 185.301L225.302 182.775Z" fill="#F4F4F4"/>
<path d="M293.56 61.307L293.687 61.6271L293.709 55.0259C293.726 50.0782 289.726 46.0529 284.773 46.034L281.978 46.0235L282.007 65.8851L293.56 61.307Z" fill="#F4F4F4"/>
<path d="M259.259 177.316L240.093 168.163L239.406 155.025L238.604 155.106L238.482 172.12L225.425 172.749L225.436 173.128L225.44 173.136L225.437 173.137L225.696 181.908L259.166 179.766C259.197 178.952 259.228 178.132 259.259 177.316ZM226.246 173.83L244.522 172.533L256.417 178.035L226.251 179.691L226.246 173.83Z" fill="#F4F4F4"/>
<path d="M288.133 83.3713L288.913 78.7263C282.041 76.2827 281.559 69.1261 281.578 66.9596L277.094 68.7364L283.858 82.2713L288.133 83.3713Z" fill="#F4F4F4"/>
<path d="M263.669 139.256L273.009 138.278L271.161 130.038L262.988 131.051L263.669 139.256Z" fill="#F4F4F4"/>
<path d="M283 90.4944L265.554 90.5057L264.106 90.3997L262.145 101.814L282.854 103.228L282.369 98.2664L284.402 90.9351L283 90.4944Z" fill="#F4F4F4"/>
<path d="M282.572 88.394L282.785 82.9466L275.917 69.2025L265.289 73.4144L268.957 88.4052L282.572 88.394ZM275.505 70.8752L281.798 82.8109L280.893 86.5329L270.142 86.1377L267.445 74.8454L275.505 70.8752Z" fill="#F4F4F4"/>
<path d="M285.34 154.118L285.67 164.817L293.229 164.386L293.253 164.805L285.683 165.237L286.079 178.042L293.225 177.585L293.279 178.424L286.105 178.883L286.301 185.25L293.266 185.245L293.387 149.537L286.265 150.262L285.34 154.118Z" fill="#F4F4F4"/>
<path d="M239.325 67.3726L223.316 65.0905L219.33 85.0174L239.411 86.4866C239.489 83.4191 239.411 74.0105 239.325 67.3726Z" fill="#F4F4F4"/>
<path d="M265.669 88.408L268.091 88.406L264.652 74.3496L255.744 74.7206L255.969 87.6984L265.669 88.408Z" fill="#F4F4F4"/>
<path d="M216.606 195.535L216.596 198.484C216.596 198.575 216.606 198.663 216.609 198.753L216.606 195.535Z" fill="#F4F4F4"/>
<path d="M239.821 86.5165L255.547 87.667L255.324 74.7378L239.832 75.3828C239.868 79.7552 239.885 84.4194 239.821 86.5165Z" fill="#F4F4F4"/>
<path d="M285.304 128.285L271.581 129.986L273.43 138.234L286.146 136.901L285.304 128.285Z" fill="#F4F4F4"/>
<path d="M288.983 78.3053L289.858 73.0926L293.647 73.384L293.685 62.1613L282.003 66.7911C281.771 74.6884 286.739 77.4611 288.983 78.3053Z" fill="#F4F4F4"/>
<path d="M284.5 98.4506L284.981 103.373L293.543 103.958L293.577 93.821L286.409 91.5661L284.5 98.4506Z" fill="#F4F4F4"/>
<path d="M288.609 140.488L286.369 149.829L293.389 149.115L293.422 139.322C291.267 138.757 289.387 138.297 288.376 138.103L288.609 140.488Z" fill="#F4F4F4"/>
<path d="M283.828 88.552L293.585 91.6212L293.603 86.0799L284.022 83.6149L283.828 88.552Z" fill="#F4F4F4"/>
<path d="M288.251 136.821C289.037 136.939 290.528 137.254 293.427 138.013L293.5 116.6L286.342 117.294L288.251 136.821Z" fill="#F4F4F4"/>
<path d="M286.26 116.457L293.502 115.756L293.538 105.221L285.105 104.645L286.26 116.457Z" fill="#F4F4F4"/>
<path d="M289.792 78.5702C291.165 78.986 292.443 79.3075 293.626 79.5434L293.644 74.2266L290.56 73.9895L289.792 78.5702Z" fill="#F4F4F4"/>
<path d="M288.951 83.5813L293.608 84.7797L293.625 79.9752C292.42 79.7352 291.12 79.409 289.722 78.9872L288.951 83.5813Z" fill="#F4F4F4"/>
<path d="M225.301 182.776L225.376 185.301L225.797 185.3L225.722 182.749L259.135 180.61C259.073 182.25 259.012 183.84 258.957 185.273L259.799 185.272C259.851 183.919 259.913 182.291 259.978 180.556L267.192 180.094L268.228 185.265L268.657 185.265L267.615 180.067L284.005 179.018L284.197 185.252L286.301 185.25L286.105 178.883L293.278 178.424L293.225 177.585L286.079 178.043L285.683 165.237L293.252 164.805L293.229 164.386L285.67 164.817L285.34 154.118L286.265 150.262L293.387 149.538L293.389 149.115L286.369 149.829L288.609 140.488L288.376 138.103C289.386 138.297 291.267 138.757 293.422 139.322L293.426 138.013C290.527 137.254 289.037 136.939 288.251 136.821L286.342 117.294L293.499 116.6L293.502 115.756L286.26 116.457L285.105 104.645L293.538 105.221L293.543 103.958L284.981 103.373L284.5 98.451L286.408 91.5661L293.577 93.8214L293.584 91.6212L283.828 88.5521L284.022 83.615L293.603 86.08L293.608 84.7797L288.951 83.5816L289.721 78.9872C291.119 79.409 292.42 79.7352 293.624 79.9752L293.626 79.5431C292.442 79.3071 291.165 78.9856 289.792 78.5699L290.56 73.9892L293.644 74.2267L293.647 73.3841L289.858 73.0926L288.983 78.3053C286.739 77.4612 281.771 74.6881 282.003 66.7907L293.685 62.1614L293.687 61.6272L293.56 61.3071L282.007 65.8855L281.977 46.0235L281.557 46.0218L281.586 66.052L276.717 67.9815L269.386 53.3092C269.043 53.5555 268.643 53.7213 268.213 53.7854L275.54 68.4479L264.298 72.9033L264.55 73.9331L255.737 74.3003L255.381 53.7706L254.961 53.769L255.316 74.3178L239.828 74.9625C239.801 71.7947 239.764 68.8329 239.743 67.1872L239.741 67.0075L239.735 67.0065L238.766 45.8599L238.345 45.8582L239.311 66.9462L223.399 64.6775L227.173 45.8158L226.09 45.8117C226.021 45.8114 225.954 45.8199 225.885 45.8213L222.148 64.4993L217.093 63.7784L217.054 64.0525L217.053 64.1974L222.066 64.9119L218.062 84.9244L216.983 84.8454L216.976 86.9512L224.853 87.5275L224.862 97.9032L216.932 99.7017L216.928 100.995L226.124 98.9095L226.115 87.6198L255.567 89.7748L255.577 101.798L246.159 101.806L244.927 107.404L237.26 107.411L216.893 111.131L216.889 112.413L237.375 108.671L260.706 108.652L261.553 118.851L237.288 121.202L237.369 122.039L261.622 119.689L263.245 139.236L238.737 136.058L238.575 137.308L263.352 140.521L264.311 152.071L238.38 154.707L224.925 155.669L224.911 138.048L237.654 130.609L237.017 129.52L224.568 136.788L216.809 135.771L216.805 137.042L224.49 138.049L224.5 149.262L216.761 150.088L216.756 151.355L224.501 150.529L224.505 156.12L224.511 156.119L224.981 171.971L224.978 171.963L216.675 175.22L216.67 176.576L225.021 173.3L225.277 181.935L216.65 182.487L216.649 182.767L216.685 183.327L225.301 182.776ZM260.01 179.711C260.038 178.965 260.067 178.205 260.096 177.443L266.663 177.455L267.025 179.262L260.01 179.711ZM267.449 179.235L267.044 177.216L266.055 167.989L265.496 161.261L283.415 159.897L283.979 178.177L267.449 179.235ZM271.501 151.762L280.926 150.804L280.666 154.502L272.219 155.419L271.501 151.762ZM271.081 151.805L272.664 159.872L265.427 160.423L264.764 152.447L271.081 151.805ZM283.389 159.056L273.087 159.84L272.381 156.246L281.456 155.261L281.776 150.718L284.048 150.487L283.229 153.901L283.389 159.056ZM271.161 130.038L273.009 138.278L263.669 139.256L262.988 131.051L271.161 130.038ZM273.43 138.234L271.581 129.986L285.304 128.286L286.146 136.902L273.43 138.234ZM282.854 103.228L262.145 101.814L264.106 90.3998L265.554 90.5058L283 90.4941L284.401 90.9351L282.369 98.2664L282.854 103.228ZM281.578 66.9593C281.559 69.1258 282.04 76.2827 288.913 78.7263L288.133 83.371L283.858 82.271L277.094 68.7361L281.578 66.9593ZM275.917 69.2025L282.785 82.9463L282.571 88.394L268.956 88.4052L265.289 73.4145L275.917 69.2025ZM264.652 74.3493L268.09 88.4059L265.669 88.4079L255.968 87.698L255.744 74.7203L264.652 74.3493ZM255.324 74.7378L255.547 87.6674L239.821 86.5165C239.885 84.4194 239.868 79.7552 239.832 75.3828L255.324 74.7378ZM223.317 65.0901L239.325 67.3725C239.411 74.0104 239.489 83.4191 239.411 86.4865L219.33 85.017L223.317 65.0901ZM263.685 90.3691L260.76 107.391L256.002 107.395L255.987 89.8058L263.685 90.3691ZM247.174 103.065L255.578 103.059L255.581 107.395L246.219 107.403L247.174 103.065ZM261.076 108.031L261.93 103.063L282.978 104.5L284.167 116.66L261.972 118.81L261.076 108.031ZM284.249 117.497L285.181 127.031L262.883 129.794L262.041 119.648L284.249 117.497ZM263.773 140.512L286.269 138.156L286.482 140.341L284.152 150.054L264.729 152.029L263.773 140.512ZM265.636 168.028L266.602 177.036L260.111 177.041C260.221 174.069 260.33 171.099 260.406 168.866C260.542 164.865 260.543 164.865 260.276 164.731L260.077 165.128L259.67 165.15C259.69 165.5 259.494 170.988 259.276 176.858L240.499 167.892L239.825 154.982L264.346 152.49L265.636 168.028ZM238.183 155.142L238.065 171.719L225.413 172.329L224.931 156.089L238.183 155.142ZM225.437 173.137L225.439 173.136L225.436 173.128L225.425 172.749L238.482 172.12L238.604 155.106L239.406 155.025L240.092 168.163L259.258 177.316C259.228 178.132 259.197 178.952 259.167 179.766L225.697 181.908L225.437 173.137Z" fill="white"/>
<path d="M244.522 172.533L226.246 173.83L226.251 179.691L256.417 178.035L244.522 172.533Z" fill="#EDEDED"/>
<path d="M282.118 106.024L263.836 104.884L262.708 108.02L263.335 117.359L283.183 114.991L282.118 106.024Z" fill="#EDEDED"/>
<path d="M237.585 65.1708L237.268 47.9966L228.338 48.0036L225.762 63.4518L237.585 65.1708Z" fill="#EDEDED"/>
<path d="M280.892 86.533L281.797 82.811L275.504 70.8753L267.445 74.8455L270.142 86.1377L280.892 86.533Z" fill="#EDEDED"/>
<path d="M226.217 138.913C226.314 139.456 226.23 153.986 226.23 153.986L237.981 153.234L236.616 133.376L226.217 138.913Z" fill="#EDEDED"/>
<path d="M225.531 207.476L284.215 207.698C289.17 207.717 293.202 203.719 293.219 198.768L293.265 185.245L286.301 185.25L284.197 185.252L268.656 185.265L268.227 185.265L259.798 185.272L258.956 185.273L225.797 185.3L225.376 185.301L216.64 185.308L216.605 195.536L216.608 198.754C216.735 203.576 220.669 207.458 225.531 207.476Z" fill="#EDEDED"/>
<path d="M250.113 75.0096C250.114 76.3639 249.016 77.4628 247.66 77.464C246.304 77.4651 245.204 76.3679 245.203 75.0137C245.202 73.6595 246.3 72.5605 247.656 72.5594C249.012 72.5583 250.112 73.6554 250.113 75.0096Z" fill="#FF4C96"/>
<path d="M250.11 74.9045C250.169 76.2576 249.12 77.4024 247.765 77.4615C246.411 77.5206 245.265 76.472 245.206 75.1188C245.146 73.7657 246.196 72.6209 247.551 72.5618C248.905 72.5027 250.051 73.5513 250.11 74.9045Z" fill="white"/>
<path d="M249.29 74.9261C249.291 75.827 248.561 76.5576 247.659 76.5584C246.757 76.5591 246.026 75.8297 246.025 74.9288C246.025 74.0279 246.755 73.2973 247.657 73.2965C248.558 73.2958 249.29 74.0252 249.29 74.9261Z" fill="#FF4C96"/>
<path d="M285.685 172.934C285.685 173.513 285.216 173.983 284.637 173.983C284.058 173.984 283.588 173.515 283.587 172.936C283.587 172.358 284.056 171.888 284.635 171.888C285.214 171.887 285.684 172.356 285.685 172.934Z" fill="#FF4C96"/>
<path d="M284.005 172.595L283.747 166.723L266.03 167.598C265.569 167.622 265.106 167.523 264.691 167.315L239.551 154.656C238.969 154.363 238.586 153.777 238.552 153.127L235.077 86.8591C235.06 86.5416 235.181 86.2317 235.409 86.0091C235.636 85.7865 235.95 85.6743 236.266 85.695L247.036 86.4835L247.027 74.7216L248.288 74.7206L248.298 86.6453C248.299 86.9523 248.17 87.249 247.944 87.4582C247.719 87.6677 247.414 87.7734 247.107 87.7524L236.346 86.9645L239.812 153.061C239.823 153.261 239.94 153.441 240.119 153.531L265.259 166.189C265.478 166.299 265.72 166.352 265.968 166.339L283.832 165.457C284.133 165.445 284.416 165.544 284.638 165.745C284.859 165.947 284.988 166.222 285.001 166.521L285.266 172.54L284.005 172.595Z" fill="#FF4C96"/>
<path d="M239.932 101.051C239.933 102.805 238.511 104.229 236.755 104.23C234.999 104.231 233.574 102.81 233.572 101.056C233.571 99.3018 234.993 97.8783 236.749 97.8769C238.505 97.8755 239.93 99.2966 239.932 101.051Z" fill="#FF4C96"/>
<path d="M238.915 101.065C238.916 102.284 237.928 103.273 236.708 103.274C235.488 103.275 234.499 102.288 234.498 101.069C234.497 99.8504 235.485 98.8617 236.705 98.8607C237.925 98.8597 238.914 99.8468 238.915 101.065Z" fill="#F9F9F9"/>
<path d="M236.708 103.431C235.403 103.432 234.34 102.372 234.339 101.069C234.338 99.7652 235.399 98.7037 236.704 98.7026C238.009 98.7016 239.072 99.7614 239.073 101.065C239.074 102.368 238.013 103.43 236.708 103.431ZM236.704 99.0178C235.573 99.0187 234.654 99.9386 234.655 101.069C234.656 102.198 235.577 103.117 236.708 103.116C237.839 103.115 238.758 102.195 238.757 101.065C238.756 99.9352 237.835 99.0168 236.704 99.0178Z" fill="#FF4C96"/>
<path d="M255.426 87.7272L240.285 87.7396C239.549 87.7402 238.953 88.3369 238.954 89.072L238.958 94.5496C238.959 95.2846 239.556 95.8804 240.292 95.8798L240.468 95.8796L240.47 97.1853L241.984 95.8784L255.433 95.8673C256.169 95.8667 256.765 95.27 256.764 94.5349L256.76 89.0574C256.759 88.3223 256.162 87.7266 255.426 87.7272Z" fill="white"/>
<path d="M255.426 87.7272L240.285 87.7396C239.549 87.7402 238.953 88.3369 238.954 89.072L238.958 94.5496C238.959 95.2846 239.556 95.8804 240.292 95.8798L240.468 95.8796L240.47 97.1853L241.984 95.8784L255.433 95.8673C256.169 95.8667 256.765 95.27 256.764 94.5349L256.76 89.0574C256.759 88.3223 256.162 87.7266 255.426 87.7272Z" fill="#FF4C96"/>
<path d="M242.36 91.7227C242.36 91.2219 242.746 90.8481 243.272 90.8477C243.793 90.8473 244.179 91.218 244.179 91.7212C244.18 92.2244 243.794 92.5958 243.273 92.5963C242.748 92.5967 242.361 92.2236 242.36 91.7227ZM243.935 91.7214C243.935 91.3426 243.651 91.0648 243.272 91.0651C242.888 91.0654 242.605 91.3437 242.605 91.7225C242.605 92.101 242.889 92.3795 243.273 92.3792C243.652 92.3789 243.935 92.0999 243.935 91.7214Z" fill="white"/>
<path d="M245.862 91.9278C245.862 92.3235 245.586 92.5896 245.207 92.5899C245.016 92.5901 244.85 92.5171 244.745 92.3705L244.745 92.5758L244.52 92.576L244.519 90.7637L244.753 90.7635L244.754 91.4767C244.861 91.3374 245.022 91.2689 245.206 91.2687C245.585 91.2684 245.861 91.5321 245.862 91.9278ZM245.624 91.928C245.624 91.6519 245.436 91.4735 245.186 91.4737C244.94 91.4739 244.752 91.6526 244.752 91.9287C244.752 92.2047 244.94 92.3849 245.187 92.3847C245.437 92.3845 245.625 92.204 245.624 91.928Z" fill="white"/>
<path d="M245.741 92.9855L245.816 92.8045C245.863 92.8435 245.931 92.8657 246.007 92.8656C246.132 92.8655 246.2 92.7873 246.2 92.6383L246.199 91.2804L246.433 91.2802L246.434 92.6331C246.435 92.897 246.288 93.0633 246.022 93.0635C245.914 93.0636 245.806 93.0394 245.741 92.9855ZM246.157 90.8797C246.157 90.7941 246.225 90.7256 246.315 90.7255C246.406 90.7255 246.474 90.7911 246.474 90.8744C246.474 90.9623 246.409 91.0308 246.316 91.0309C246.225 91.031 246.157 90.9653 246.157 90.8797Z" fill="white"/>
<path d="M248.048 92.0042L246.996 92.005C247.026 92.2322 247.21 92.3834 247.466 92.3831C247.618 92.383 247.745 92.3317 247.84 92.2265L247.97 92.378C247.853 92.5146 247.674 92.5879 247.459 92.5881C247.041 92.5884 246.762 92.3129 246.762 91.927C246.761 91.5435 247.037 91.2672 247.411 91.2669C247.786 91.2666 248.052 91.5354 248.053 91.9334C248.053 91.9529 248.05 91.9823 248.048 92.0042ZM246.996 91.8362L247.827 91.8355C247.803 91.6181 247.639 91.4646 247.412 91.4648C247.187 91.4649 247.021 91.6164 246.996 91.8362Z" fill="white"/>
<path d="M248.258 91.9258C248.258 91.5399 248.544 91.266 248.942 91.2657C249.174 91.2655 249.368 91.3604 249.47 91.5413L249.292 91.656C249.209 91.529 249.082 91.4705 248.94 91.4706C248.686 91.4708 248.495 91.6496 248.495 91.9256C248.496 92.2064 248.686 92.3822 248.941 92.3819C249.082 92.3818 249.21 92.3231 249.292 92.1959L249.471 92.308C249.369 92.4888 249.175 92.5867 248.943 92.5869C248.545 92.5872 248.258 92.3117 248.258 91.9258Z" fill="white"/>
<path d="M250.52 92.4952C250.449 92.5563 250.342 92.5857 250.236 92.5858C249.975 92.586 249.826 92.4422 249.825 92.181L249.825 91.4699L249.605 91.47L249.605 91.2773L249.825 91.2771L249.824 90.994L250.059 90.9938L250.059 91.2769L250.431 91.2766L250.431 91.4694L250.059 91.4697L250.06 92.1707C250.06 92.3099 250.134 92.388 250.263 92.3879C250.332 92.3879 250.397 92.3659 250.446 92.3268L250.52 92.4952Z" fill="white"/>
<path d="M250.761 90.8756C250.761 90.7899 250.829 90.7218 250.92 90.7217C251.01 90.7217 251.079 90.7873 251.079 90.8706C251.079 90.9585 251.013 91.027 250.92 91.0271C250.829 91.0272 250.761 90.9612 250.761 90.8756ZM250.803 91.2763L251.038 91.2761L251.039 92.5706L250.804 92.5708L250.803 91.2763Z" fill="white"/>
<path d="M252.631 91.2751L252.065 92.5697L251.826 92.5699L251.257 91.2762L251.502 91.276L251.948 92.3137L252.401 91.2752L252.631 91.2751Z" fill="white"/>
<path d="M253.982 91.9993L252.93 92.0002C252.96 92.2273 253.144 92.3785 253.4 92.3783C253.552 92.3781 253.679 92.3268 253.774 92.2216L253.904 92.3731C253.787 92.5097 253.608 92.583 253.393 92.5832C252.975 92.5835 252.696 92.3081 252.696 91.9222C252.696 91.5386 252.971 91.2623 253.345 91.262C253.72 91.2617 253.986 91.5305 253.987 91.9285C253.987 91.9481 253.984 91.9774 253.982 91.9993ZM252.93 91.8313L253.762 91.8306C253.737 91.6132 253.573 91.4597 253.346 91.4599C253.121 91.4601 252.954 91.6115 252.93 91.8313Z" fill="white"/>
<path d="M248.957 70.1316C248.956 69.3008 248.204 68.6459 247.343 68.808C246.801 68.91 246.37 69.3522 246.276 69.8946C246.217 70.2335 246.287 70.5525 246.442 70.8154L246.441 70.8154L246.445 70.8205C246.497 70.9077 246.562 70.97 246.628 71.0615L247.413 72.0987C247.51 72.2278 247.705 72.2276 247.802 72.0984L248.572 71.0769C248.572 71.0769 248.716 70.9054 248.768 70.8171L248.771 70.8135L248.771 70.8135C248.888 70.6133 248.957 70.3806 248.957 70.1316ZM247.606 70.7202C247.278 70.7205 247.012 70.4548 247.011 70.1268C247.011 69.7988 247.277 69.5329 247.605 69.5326C247.934 69.5323 248.2 69.7978 248.2 70.1258C248.201 70.4539 247.935 70.7199 247.606 70.7202Z" fill="#FF4C96"/>
<path d="M282.836 191.715L276.193 191.721C275.491 191.721 274.922 192.29 274.923 192.991L274.927 198.216C274.928 198.918 275.497 199.486 276.199 199.485L276.368 199.485L276.369 200.73L277.813 199.484L282.843 199.48C283.545 199.479 284.113 198.91 284.113 198.209L284.108 192.984C284.108 192.283 283.538 191.715 282.836 191.715Z" fill="#FF4C96"/>
<path d="M276.454 193.586L276.457 196.701C276.457 196.768 276.512 196.822 276.579 196.822L283.116 196.816C283.184 196.816 283.239 196.761 283.238 196.693L283.222 195.553C283.222 195.527 283.213 195.502 283.198 195.482L282.259 194.23C282.236 194.2 282.201 194.182 282.163 194.182L281.082 194.174C281.015 194.174 280.961 194.12 280.961 194.053L280.961 193.582C280.961 193.515 280.906 193.461 280.839 193.461L276.576 193.464C276.509 193.464 276.454 193.519 276.454 193.586Z" fill="#F9F9F9"/>
<path d="M281.266 194.446L281.267 195.445C281.267 195.484 281.299 195.516 281.337 195.515L282.781 195.488C282.836 195.487 282.868 195.425 282.837 195.379L282.161 194.385C282.148 194.366 282.126 194.354 282.102 194.355L281.333 194.376C281.296 194.377 281.266 194.408 281.266 194.446Z" fill="#FF4C96"/>
<path d="M283.368 197.128L276.326 197.134L276.325 196.917L283.368 196.911L283.368 197.128Z" fill="#F9F9F9"/>
<path d="M278.655 196.998C278.655 197.382 278.343 197.694 277.959 197.694C277.574 197.695 277.262 197.383 277.262 196.999C277.261 196.615 277.573 196.303 277.958 196.303C278.342 196.302 278.654 196.614 278.655 196.998Z" fill="#FF4C96"/>
<path d="M278.368 196.998C278.368 197.224 278.185 197.408 277.959 197.408C277.732 197.408 277.548 197.225 277.548 196.999C277.548 196.773 277.731 196.589 277.958 196.589C278.184 196.589 278.368 196.772 278.368 196.998Z" fill="#F9F9F9"/>
<path d="M281.959 195.712C281.96 195.729 281.86 195.744 281.737 195.744C281.614 195.744 281.514 195.73 281.514 195.712C281.514 195.695 281.614 195.68 281.737 195.68C281.86 195.68 281.959 195.694 281.959 195.712Z" fill="#FF4C96"/>
<path d="M280.989 196.932C280.971 196.932 280.956 196.181 280.956 195.254C280.955 194.326 280.969 193.575 280.986 193.575C281.004 193.575 281.019 194.326 281.019 195.254C281.02 196.181 281.006 196.932 280.989 196.932Z" fill="#FF4C96"/>
<path d="M282.577 197.011C282.577 197.395 282.266 197.707 281.881 197.707C281.496 197.708 281.184 197.396 281.184 197.012C281.184 196.628 281.495 196.316 281.88 196.316C282.265 196.315 282.577 196.627 282.577 197.011Z" fill="#FF4C96"/>
<path d="M282.291 197.011C282.291 197.237 282.107 197.421 281.881 197.421C281.654 197.421 281.471 197.238 281.471 197.012C281.47 196.786 281.654 196.602 281.88 196.602C282.107 196.602 282.29 196.785 282.291 197.011Z" fill="#F9F9F9"/>
<path d="M233.591 193.295L232.96 193.296L232.96 193.067L234.482 193.066L234.482 193.294L233.851 193.295L233.853 194.905L233.592 194.905L233.591 193.295Z" fill="#331924"/>
<path d="M234.46 194.208C234.459 193.793 234.767 193.499 235.185 193.498C235.602 193.498 235.908 193.792 235.908 194.207C235.908 194.622 235.604 194.919 235.186 194.919C234.768 194.92 234.46 194.623 234.46 194.208ZM235.653 194.207C235.653 193.91 235.453 193.719 235.185 193.719C234.917 193.719 234.714 193.911 234.715 194.208C234.715 194.504 234.917 194.699 235.186 194.699C235.454 194.698 235.653 194.504 235.653 194.207Z" fill="#331924"/>
<path d="M237.042 194.82C236.965 194.886 236.85 194.918 236.737 194.918C236.455 194.918 236.295 194.763 236.295 194.482L236.294 193.718L236.058 193.718L236.057 193.511L236.294 193.511L236.294 193.206L236.546 193.206L236.546 193.51L236.946 193.51L236.946 193.717L236.546 193.718L236.547 194.472C236.547 194.621 236.626 194.705 236.765 194.705C236.839 194.705 236.91 194.681 236.962 194.639L237.042 194.82Z" fill="#331924"/>
<path d="M238.45 194.06L238.451 194.901L238.212 194.901L238.212 194.717C238.128 194.843 237.972 194.917 237.754 194.917C237.439 194.917 237.239 194.749 237.239 194.508C237.238 194.285 237.383 194.1 237.798 194.1L238.198 194.1L238.198 194.05C238.198 193.837 238.074 193.714 237.824 193.714C237.659 193.714 237.49 193.772 237.383 193.864L237.277 193.675C237.422 193.56 237.629 193.496 237.853 193.496C238.234 193.496 238.45 193.68 238.45 194.06ZM238.198 194.476L238.198 194.281L237.809 194.281C237.559 194.282 237.488 194.379 237.488 194.497C237.488 194.636 237.604 194.723 237.796 194.723C237.986 194.722 238.135 194.636 238.198 194.476Z" fill="#331924"/>
<path d="M238.917 192.952L239.169 192.952L239.171 194.9L238.919 194.9L238.917 192.952Z" fill="#331924"/>
<path d="M241.672 192.949L241.674 194.898L241.432 194.898L241.432 194.678C241.319 194.835 241.14 194.914 240.935 194.915C240.528 194.915 240.23 194.629 240.23 194.203C240.23 193.778 240.526 193.494 240.934 193.494C241.131 193.493 241.305 193.567 241.421 193.716L241.42 192.95L241.672 192.949ZM241.424 194.202C241.423 193.906 241.221 193.714 240.955 193.714C240.687 193.714 240.485 193.906 240.485 194.203C240.485 194.5 240.688 194.694 240.956 194.694C241.222 194.694 241.424 194.499 241.424 194.202Z" fill="#331924"/>
<path d="M242.106 193.075C242.106 192.983 242.18 192.909 242.277 192.909C242.374 192.909 242.448 192.98 242.448 193.07C242.448 193.164 242.377 193.238 242.277 193.238C242.18 193.238 242.106 193.167 242.106 193.075ZM242.151 193.506L242.403 193.506L242.405 194.897L242.152 194.898L242.151 193.506Z" fill="#331924"/>
<path d="M242.71 194.75L242.814 194.55C242.933 194.635 243.122 194.695 243.304 194.695C243.537 194.694 243.635 194.623 243.635 194.505C243.634 194.193 242.754 194.464 242.753 193.91C242.753 193.66 242.977 193.492 243.334 193.492C243.516 193.491 243.721 193.539 243.842 193.617L243.734 193.817C243.608 193.736 243.468 193.707 243.332 193.707C243.111 193.707 243.003 193.789 243.003 193.899C243.003 194.227 243.887 193.959 243.887 194.5C243.887 194.752 243.656 194.912 243.285 194.913C243.054 194.913 242.825 194.842 242.71 194.75Z" fill="#331924"/>
<path d="M244.987 194.814C244.91 194.88 244.794 194.911 244.681 194.911C244.4 194.912 244.24 194.757 244.24 194.476L244.239 193.711L244.002 193.712L244.002 193.504L244.239 193.504L244.238 193.199L244.491 193.199L244.491 193.504L244.891 193.504L244.891 193.711L244.491 193.711L244.492 194.465C244.492 194.615 244.571 194.699 244.71 194.699C244.784 194.699 244.855 194.675 244.907 194.633L244.987 194.814Z" fill="#331924"/>
<path d="M246.395 194.054L246.395 194.894L246.156 194.894L246.156 194.71C246.072 194.837 245.917 194.91 245.699 194.911C245.383 194.911 245.183 194.743 245.183 194.501C245.183 194.278 245.327 194.094 245.743 194.094L246.142 194.093L246.142 194.043C246.142 193.831 246.018 193.707 245.769 193.708C245.603 193.708 245.435 193.766 245.327 193.858L245.222 193.669C245.366 193.553 245.574 193.49 245.797 193.49C246.179 193.489 246.394 193.673 246.395 194.054ZM246.143 194.469L246.142 194.275L245.753 194.275C245.504 194.275 245.433 194.372 245.433 194.49C245.433 194.63 245.549 194.716 245.74 194.716C245.93 194.716 246.08 194.629 246.143 194.469Z" fill="#331924"/>
<path d="M248.185 194.092L248.186 194.893L247.933 194.893L247.933 194.121C247.932 193.848 247.796 193.714 247.556 193.714C247.288 193.714 247.115 193.874 247.115 194.177L247.116 194.894L246.863 194.894L246.862 193.502L247.104 193.502L247.104 193.712C247.207 193.57 247.385 193.488 247.606 193.488C247.945 193.488 248.185 193.682 248.185 194.092Z" fill="#331924"/>
<path d="M248.532 194.196C248.532 193.782 248.839 193.487 249.268 193.487C249.518 193.486 249.725 193.589 249.836 193.783L249.644 193.907C249.555 193.77 249.418 193.707 249.265 193.707C248.992 193.707 248.787 193.9 248.787 194.196C248.788 194.498 248.993 194.687 249.266 194.687C249.419 194.687 249.555 194.624 249.644 194.487L249.837 194.608C249.726 194.802 249.519 194.907 249.269 194.908C248.841 194.908 248.533 194.611 248.532 194.196Z" fill="#331924"/>
<path d="M251.395 194.278L250.265 194.279C250.297 194.523 250.494 194.686 250.77 194.686C250.933 194.686 251.069 194.63 251.172 194.517L251.311 194.68C251.185 194.827 250.994 194.906 250.762 194.906C250.313 194.907 250.013 194.61 250.012 194.195C250.012 193.783 250.309 193.486 250.711 193.486C251.113 193.485 251.4 193.774 251.401 194.202C251.401 194.223 251.398 194.254 251.395 194.278ZM250.265 194.098L251.158 194.097C251.132 193.863 250.956 193.698 250.711 193.698C250.469 193.698 250.291 193.861 250.265 194.098Z" fill="#331924"/>
<path d="M234.281 195.51L234.283 198.8L233.521 198.8L233.519 196.122L232.86 196.122L232.86 195.511L234.281 195.51Z" fill="#331924"/>
<path d="M235.746 198.376C235.746 198.498 235.727 198.587 235.619 198.846L235.352 199.523L234.886 199.523L235.092 198.776C234.937 198.715 234.838 198.569 234.838 198.376C234.838 198.104 235.035 197.925 235.294 197.925C235.557 197.925 235.746 198.108 235.746 198.376Z" fill="#331924"/>
<path d="M237.282 195.508L237.285 198.797L236.522 198.798L236.52 196.119L235.862 196.12L235.861 195.509L237.282 195.508Z" fill="#331924"/>
<path d="M237.857 197.152C237.856 196.067 238.458 195.45 239.267 195.45C240.081 195.449 240.679 196.064 240.68 197.15C240.681 198.235 240.084 198.851 239.27 198.852C238.461 198.853 237.858 198.238 237.857 197.152ZM239.913 197.15C239.912 196.403 239.649 196.093 239.268 196.093C238.891 196.094 238.628 196.404 238.629 197.151C238.629 197.899 238.893 198.209 239.269 198.208C239.65 198.208 239.913 197.898 239.913 197.15Z" fill="#331924"/>
<path d="M241.051 197.149C241.05 196.064 241.652 195.448 242.461 195.447C243.275 195.446 243.873 196.062 243.874 197.147C243.875 198.233 243.278 198.849 242.464 198.849C241.655 198.85 241.052 198.235 241.051 197.149ZM243.107 197.148C243.106 196.401 242.843 196.09 242.462 196.091C242.085 196.091 241.822 196.402 241.823 197.149C241.823 197.896 242.087 198.206 242.463 198.206C242.844 198.205 243.107 197.895 243.107 197.148Z" fill="#331924"/>
<path d="M250.008 197.339L250.009 198.787L249.275 198.787L249.274 197.453C249.274 197.044 249.09 196.856 248.794 196.857C248.464 196.857 248.234 197.068 248.234 197.519L248.235 198.788L247.502 198.789L247.5 197.454C247.5 197.046 247.326 196.858 247.02 196.858C246.696 196.858 246.465 197.07 246.466 197.521L246.467 198.79L245.733 198.79L245.731 196.262L246.432 196.262L246.432 196.553C246.62 196.337 246.902 196.223 247.227 196.223C247.579 196.223 247.881 196.359 248.06 196.636C248.262 196.378 248.591 196.222 248.972 196.222C249.574 196.221 250.007 196.569 250.008 197.339Z" fill="#331924"/>
<path d="M231.335 195.866C231.336 197.955 229.642 199.65 227.55 199.652C225.459 199.654 223.762 197.961 223.76 195.872C223.758 193.782 225.453 192.087 227.544 192.086C229.636 192.084 231.333 193.776 231.335 195.866Z" fill="#FF4C96"/>
<path d="M226.373 196.906C226.373 196.884 226.726 196.863 227.345 196.845C227.964 196.827 228.847 196.812 229.906 196.801L229.829 196.969C229.529 196.625 229.204 196.249 228.862 195.855L228.801 195.785L228.86 195.711C229.163 195.333 229.483 194.933 229.813 194.52L229.905 194.711C229.768 194.711 229.622 194.711 229.474 194.711C228.358 194.708 227.303 194.705 226.371 194.702L226.476 194.596C226.467 195.744 226.453 196.709 226.436 197.387C226.418 198.065 226.397 198.457 226.374 198.457C226.351 198.457 226.329 198.065 226.31 197.387C226.292 196.709 226.276 195.744 226.265 194.596L226.264 194.492L226.371 194.491C227.303 194.487 228.358 194.482 229.474 194.476C229.622 194.476 229.768 194.476 229.904 194.476L230.151 194.476L229.996 194.667C229.664 195.078 229.341 195.476 229.036 195.853L229.034 195.709C229.37 196.107 229.69 196.487 229.984 196.837L230.128 197.007L229.907 197.005C228.847 196.996 227.964 196.982 227.345 196.965C226.726 196.948 226.373 196.928 226.373 196.906Z" fill="#F9F9F9"/>
<mask id="mask3_7016_4542" style="mask-type:alpha" maskUnits="userSpaceOnUse" x="0" y="22" width="214" height="273">
<path d="M213.609 23.6667V294.644L0.385498 293.97V22.9926L213.609 23.6667Z" fill="black"/>
</mask>
<g mask="url(#mask3_7016_4542)">
<path d="M98.8856 103.774H70.8304C70.6891 103.774 70.5747 103.659 70.5747 103.518C70.5747 103.377 70.6891 103.262 70.8304 103.262H98.8856C99.027 103.262 99.1413 103.377 99.1413 103.518C99.1413 103.659 99.027 103.774 98.8856 103.774Z" fill="#612D43"/>
<path d="M101.793 107.026H85.1945C85.0531 107.026 84.9387 106.911 84.9387 106.77C84.9387 106.629 85.0531 106.514 85.1945 106.514H101.793C101.934 106.514 102.049 106.629 102.049 106.77C102.049 106.911 101.934 107.026 101.793 107.026Z" fill="#612D43"/>
<path d="M62.2766 162.404H40.3706C40.2292 162.404 40.1145 162.289 40.1145 162.148C40.1145 162.007 40.2292 161.892 40.3706 161.892H62.2766C62.418 161.892 62.5327 162.007 62.5327 162.148C62.5327 162.289 62.418 162.404 62.2766 162.404Z" fill="#612D43"/>
<path d="M47.8795 158.364H31.2811C31.1398 158.364 31.0254 158.249 31.0254 158.108C31.0254 157.967 31.1398 157.852 31.2811 157.852H47.8795C48.0209 157.852 48.1353 157.967 48.1353 158.108C48.1353 158.249 48.0209 158.364 47.8795 158.364Z" fill="#612D43"/>
<path d="M151.474 135.113H140.766C140.625 135.113 140.51 134.999 140.51 134.858C140.51 134.716 140.625 134.602 140.766 134.602H151.474C151.615 134.602 151.73 134.716 151.73 134.858C151.73 134.999 151.615 135.113 151.474 135.113Z" fill="#612D43"/>
<path d="M148.54 131.332H129.968C129.827 131.332 129.712 131.217 129.712 131.076C129.712 130.934 129.827 130.82 129.968 130.82H148.54C148.681 130.82 148.795 130.934 148.795 131.076C148.795 131.217 148.681 131.332 148.54 131.332Z" fill="#612D43"/>
<path d="M94.4714 112.325H72.0397C71.8983 112.325 71.7839 112.21 71.7839 112.069C71.7839 111.928 71.8983 111.813 72.0397 111.813H94.4714C94.6127 111.813 94.7271 111.928 94.7271 112.069C94.7271 112.21 94.6127 112.325 94.4714 112.325Z" fill="#612D43"/>
<path d="M50.7966 166.516H28.3649C28.2235 166.516 28.1091 166.401 28.1091 166.26C28.1091 166.119 28.2235 166.004 28.3649 166.004H50.7966C50.9379 166.004 51.0523 166.119 51.0523 166.26C51.0523 166.401 50.9379 166.516 50.7966 166.516Z" fill="#612D43"/>
</g>
</svg>
