<svg width="26" height="28" viewBox="0 0 26 28" fill="none" xmlns="http://www.w3.org/2000/svg">
<path d="M12.0201 6.90991C8.71009 6.90991 6.02009 9.59991 6.02009 12.9099V15.7999C6.02009 16.4099 5.76009 17.3399 5.45009 17.8599L4.30009 19.7699C3.59009 20.9499 4.08009 22.2599 5.38009 22.6999C9.69009 24.1399 14.3401 24.1399 18.6501 22.6999C19.8601 22.2999 20.3901 20.8699 19.7301 19.7699L18.5801 17.8599C18.2801 17.3399 18.0201 16.4099 18.0201 15.7999V12.9099C18.0201 9.60991 15.3201 6.90991 12.0201 6.90991Z" stroke="#535353" stroke-width="1.5" stroke-miterlimit="10" stroke-linecap="round"/>
<path d="M13.8699 7.19994C13.5599 7.10994 13.2399 7.03994 12.9099 6.99994C11.9499 6.87994 11.0299 6.94994 10.1699 7.19994C10.4599 6.45994 11.1799 5.93994 12.0199 5.93994C12.8599 5.93994 13.5799 6.45994 13.8699 7.19994Z" stroke="#535353" stroke-width="1.5" stroke-miterlimit="10" stroke-linecap="round" stroke-linejoin="round"/>
<path d="M15.02 23.0601C15.02 24.7101 13.67 26.0601 12.02 26.0601C11.2 26.0601 10.44 25.7201 9.90002 25.1801C9.36002 24.6401 9.02002 23.8801 9.02002 23.0601" stroke="#535353" stroke-width="1.5" stroke-miterlimit="10"/>
<circle cx="18" cy="8" r="8" fill="#CC1010"/>
<path d="M18.0098 12.1094C17.4733 12.1094 16.9941 12.0169 16.5723 11.832C16.153 11.6471 15.821 11.3906 15.5762 11.0625C15.334 10.7318 15.2038 10.349 15.1855 9.91406H16.4121C16.4277 10.151 16.5072 10.3568 16.6504 10.5312C16.7962 10.7031 16.9863 10.8359 17.2207 10.9297C17.4551 11.0234 17.7155 11.0703 18.002 11.0703C18.3171 11.0703 18.5957 11.0156 18.8379 10.9062C19.0827 10.7969 19.2741 10.6445 19.4121 10.4492C19.5501 10.2513 19.6191 10.0234 19.6191 9.76562C19.6191 9.4974 19.5501 9.26172 19.4121 9.05859C19.2767 8.85286 19.0775 8.69141 18.8145 8.57422C18.554 8.45703 18.2389 8.39844 17.8691 8.39844H17.1934V7.41406H17.8691C18.166 7.41406 18.4264 7.36068 18.6504 7.25391C18.877 7.14714 19.054 6.9987 19.1816 6.80859C19.3092 6.61589 19.373 6.39062 19.373 6.13281C19.373 5.88542 19.3171 5.67057 19.2051 5.48828C19.0957 5.30339 18.9395 5.15885 18.7363 5.05469C18.5358 4.95052 18.2988 4.89844 18.0254 4.89844C17.765 4.89844 17.5215 4.94661 17.2949 5.04297C17.071 5.13672 16.8887 5.27214 16.748 5.44922C16.6074 5.6237 16.5319 5.83333 16.5215 6.07812H15.3535C15.3665 5.64583 15.4941 5.26562 15.7363 4.9375C15.9811 4.60937 16.304 4.35286 16.7051 4.16797C17.1061 3.98307 17.5514 3.89062 18.041 3.89062C18.554 3.89062 18.9967 3.99089 19.3691 4.19141C19.7441 4.38932 20.0332 4.65365 20.2363 4.98437C20.4421 5.3151 20.5436 5.67708 20.541 6.07031C20.5436 6.51823 20.4186 6.89844 20.166 7.21094C19.916 7.52344 19.5827 7.73307 19.166 7.83984V7.90234C19.6973 7.98307 20.1087 8.19401 20.4004 8.53516C20.6947 8.8763 20.8405 9.29948 20.8379 9.80469C20.8405 10.2448 20.7181 10.6393 20.4707 10.9883C20.2259 11.3372 19.8913 11.612 19.4668 11.8125C19.0423 12.0104 18.5566 12.1094 18.0098 12.1094Z" fill="#F9F9F9"/>
</svg>
