<svg width="44" height="24" viewBox="0 0 44 24" fill="none" xmlns="http://www.w3.org/2000/svg">
<rect width="44" height="20" rx="10" fill="#D21E6A"/>
<rect x="4" y="2" width="16" height="16" rx="8" fill="white"/>
<path d="M9.49996 12.9167H10.75V10.4167H13.25V12.9167H14.5V9.16667L12 7.29167L9.49996 9.16667V12.9167ZM8.66663 13.75V8.75L12 6.25L15.3333 8.75V13.75H12.4166V11.25H11.5833V13.75H8.66663Z" fill="#D21E6A"/>
<path d="M25.5469 11.1133C25.4948 10.9779 25.444 10.8411 25.3945 10.7031C25.3451 10.5625 25.2943 10.4297 25.2422 10.3047C25.2422 10.2995 25.2396 10.293 25.2344 10.2852C25.2318 10.2773 25.2279 10.2695 25.2227 10.2617C25.2148 10.2513 25.2083 10.2409 25.2031 10.2305V9.85156L25.168 9.77734V9.49219C25.1602 9.47396 25.1484 9.45703 25.1328 9.44141C25.1198 9.42578 25.1055 9.41016 25.0898 9.39453C25.0742 9.37891 25.0599 9.36198 25.0469 9.34375C25.0365 9.32292 25.0312 9.29818 25.0312 9.26953C25.0286 9.24089 25.0273 9.21354 25.0273 9.1875C25.0273 9.15885 25.0273 9.13411 25.0273 9.11328C25.0273 9.08464 25.0273 9.0612 25.0273 9.04297C25.0273 9.02214 25.0286 9.0013 25.0312 8.98047V8.4375L25.0117 8.14062L25.0312 8.06641L25.0117 7.89062V7.81641L25.0312 7.54688C25.026 7.53385 25.0221 7.52214 25.0195 7.51172C25.0143 7.48568 25.0117 7.46745 25.0117 7.45703C25.0065 7.44661 24.9974 7.42839 24.9844 7.40234C24.974 7.3737 24.9596 7.34245 24.9414 7.30859C24.9258 7.27474 24.9076 7.24219 24.8867 7.21094C24.8659 7.17708 24.8451 7.15104 24.8242 7.13281C24.8034 7.11719 24.7747 7.10156 24.7383 7.08594C24.7044 7.07031 24.6654 7.05208 24.6211 7.03125C24.5794 7.01042 24.5352 6.98568 24.4883 6.95703C24.444 6.92839 24.4023 6.89453 24.3633 6.85547C24.3398 6.82943 24.3151 6.80859 24.2891 6.79297C24.263 6.77474 24.2383 6.75911 24.2148 6.74609C24.194 6.73307 24.1758 6.72005 24.1602 6.70703C24.1471 6.69401 24.1406 6.67708 24.1406 6.65625C24.1406 6.61979 24.1523 6.58854 24.1758 6.5625C24.1992 6.53646 24.2279 6.51562 24.2617 6.5C24.2982 6.48438 24.3372 6.47396 24.3789 6.46875C24.4206 6.46094 24.4583 6.45703 24.4922 6.45703L24.6211 6.41797L24.8242 6.4375H24.8984C24.9818 6.4375 25.0612 6.44401 25.1367 6.45703C25.2148 6.46745 25.2786 6.47917 25.3281 6.49219L25.5469 6.48438C25.5755 6.48438 25.6068 6.48307 25.6406 6.48047C25.6771 6.47786 25.7135 6.47266 25.75 6.46484C25.7865 6.45964 25.8203 6.45312 25.8516 6.44531C25.8828 6.4349 25.9141 6.42969 25.9453 6.42969C26 6.42969 26.0469 6.4362 26.0859 6.44922C26.1276 6.45964 26.1641 6.46484 26.1953 6.46484C26.2604 6.46484 26.3216 6.45703 26.3789 6.44141C26.4388 6.42578 26.5065 6.41797 26.582 6.41797L26.7578 6.42969C26.7734 6.4375 26.7943 6.44792 26.8203 6.46094C26.8464 6.47396 26.8711 6.48698 26.8945 6.5C26.9206 6.51302 26.9414 6.52734 26.957 6.54297C26.9753 6.55599 26.9844 6.57031 26.9844 6.58594V6.75781C26.9844 6.78125 26.9583 6.80599 26.9062 6.83203C26.8568 6.85807 26.7995 6.88281 26.7344 6.90625C26.6719 6.92708 26.6094 6.94661 26.5469 6.96484C26.487 6.98307 26.4466 6.9974 26.4258 7.00781C26.3659 7.04427 26.2969 7.08854 26.2188 7.14062C26.1432 7.19271 26.0794 7.2513 26.0273 7.31641V7.70703L25.9922 8.01953C25.9922 8.02995 25.9935 8.04427 25.9961 8.0625C26.0013 8.07812 26.0039 8.10026 26.0039 8.12891C26.0039 8.17578 25.9909 8.21615 25.9648 8.25V8.75L25.9922 8.85156C25.9922 8.85677 25.9948 8.87891 26 8.91797C26.0078 8.95703 26.0156 9.0026 26.0234 9.05469C26.0312 9.10677 26.0378 9.16016 26.043 9.21484C26.0508 9.26953 26.0547 9.3151 26.0547 9.35156C26.0469 9.36458 26.0404 9.38021 26.0352 9.39844C26.0299 9.41406 26.0273 9.4388 26.0273 9.47266C26.0273 9.48307 26.0299 9.49349 26.0352 9.50391C26.0404 9.51172 26.0573 9.51953 26.0859 9.52734V9.75781C26.0859 9.79167 26.0859 9.82161 26.0859 9.84766C26.0859 9.8737 26.0885 9.90234 26.0938 9.93359L26.1562 10.1211L26.3789 10.5742C26.4102 10.6263 26.4401 10.6797 26.4688 10.7344C26.5 10.7865 26.5312 10.8372 26.5625 10.8867C26.5964 10.9362 26.6315 10.9831 26.668 11.0273C26.707 11.0716 26.7526 11.1094 26.8047 11.1406L26.9844 11.1836L27.082 11.2852C27.1576 11.3372 27.2409 11.3672 27.332 11.375C27.4258 11.3828 27.5195 11.3867 27.6133 11.3867C27.6628 11.3867 27.7057 11.3867 27.7422 11.3867C27.7786 11.3867 27.8138 11.3854 27.8477 11.3828C27.8841 11.3776 27.9219 11.3711 27.9609 11.3633C28.0026 11.3555 28.0521 11.3451 28.1094 11.332C28.1276 11.332 28.1432 11.3281 28.1562 11.3203C28.1719 11.3125 28.1862 11.3034 28.1992 11.293C28.2122 11.2826 28.2253 11.2721 28.2383 11.2617C28.2539 11.2513 28.2734 11.2435 28.2969 11.2383C28.3646 11.2253 28.418 11.2109 28.457 11.1953C28.4961 11.1771 28.5299 11.1562 28.5586 11.1328C28.5898 11.1094 28.6224 11.082 28.6562 11.0508C28.6901 11.0169 28.7344 10.9779 28.7891 10.9336L28.8906 10.8867C28.8932 10.8867 28.901 10.8698 28.9141 10.8359C28.9297 10.8021 28.9466 10.7591 28.9648 10.707C28.9857 10.6549 29.0065 10.5977 29.0273 10.5352C29.0508 10.4701 29.0729 10.4089 29.0938 10.3516C29.1146 10.2917 29.1328 10.2396 29.1484 10.1953C29.1667 10.151 29.1797 10.1198 29.1875 10.1016C29.2031 10.0703 29.2174 10.0247 29.2305 9.96484C29.2435 9.90234 29.2552 9.83724 29.2656 9.76953C29.2786 9.69922 29.2904 9.63021 29.3008 9.5625C29.3112 9.49219 29.3216 9.43099 29.332 9.37891C29.332 9.33203 29.3281 9.27604 29.3203 9.21094C29.3125 9.14583 29.3086 9.08464 29.3086 9.02734L29.2891 8.9375L29.3711 8.78906C29.3711 8.77865 29.3633 8.75911 29.3477 8.73047C29.3346 8.69922 29.3216 8.67839 29.3086 8.66797V8.41016L29.3633 7.96484L29.3164 7.59375C29.3164 7.58333 29.3151 7.56771 29.3125 7.54688C29.3099 7.52344 29.3086 7.49349 29.3086 7.45703C29.3034 7.44661 29.2904 7.42448 29.2695 7.39062C29.2487 7.35677 29.2279 7.32031 29.207 7.28125L29.1211 7.13281C29.1133 7.1276 29.099 7.11979 29.0781 7.10938C29.0573 7.09635 29.0352 7.08464 29.0117 7.07422C28.9909 7.0612 28.9701 7.05078 28.9492 7.04297C28.931 7.03255 28.918 7.02734 28.9102 7.02734C28.8867 7.01693 28.8594 7.00521 28.8281 6.99219C28.7995 6.97656 28.7695 6.96224 28.7383 6.94922C28.707 6.93359 28.6758 6.92057 28.6445 6.91016C28.6159 6.89714 28.5898 6.88802 28.5664 6.88281C28.5456 6.875 28.5143 6.86849 28.4727 6.86328C28.431 6.85807 28.388 6.85026 28.3438 6.83984C28.3021 6.82943 28.2656 6.8151 28.2344 6.79688C28.2031 6.77865 28.1875 6.7513 28.1875 6.71484V6.65625L28.3164 6.62891L28.457 6.55469C28.5039 6.54427 28.5508 6.53776 28.5977 6.53516C28.6471 6.53255 28.6966 6.52995 28.7461 6.52734C28.7956 6.52474 28.8438 6.51953 28.8906 6.51172C28.9375 6.50391 28.9805 6.48828 29.0195 6.46484H29.1875C29.2786 6.46484 29.3646 6.46875 29.4453 6.47656C29.5286 6.48177 29.6211 6.48438 29.7227 6.48438H29.9453C30.0443 6.43229 30.1484 6.39453 30.2578 6.37109C30.3698 6.34766 30.4844 6.33594 30.6016 6.33594C30.612 6.33594 30.6276 6.33854 30.6484 6.34375C30.6719 6.34896 30.6953 6.35677 30.7188 6.36719C30.7422 6.3776 30.7617 6.39193 30.7773 6.41016C30.7956 6.42578 30.8047 6.44401 30.8047 6.46484V6.69531L30.7695 6.71484C30.7227 6.74349 30.6719 6.76042 30.6172 6.76562C30.5651 6.77083 30.513 6.77604 30.4609 6.78125C30.401 6.78906 30.3424 6.80078 30.2852 6.81641C30.2279 6.83203 30.1667 6.84505 30.1016 6.85547C30.0234 6.91276 29.9661 6.98307 29.9297 7.06641C29.8958 7.14714 29.8698 7.23307 29.8516 7.32422C29.8359 7.41276 29.8216 7.5026 29.8086 7.59375C29.7956 7.68229 29.7734 7.76302 29.7422 7.83594V8.75L29.6875 8.89844V9.37891C29.6771 9.39974 29.6706 9.42057 29.668 9.44141C29.668 9.45964 29.668 9.48568 29.668 9.51953C29.668 9.55078 29.6706 9.57552 29.6758 9.59375C29.6836 9.61198 29.6875 9.64193 29.6875 9.68359L29.6367 9.82422C29.6237 9.8763 29.6081 9.92708 29.5898 9.97656C29.5716 10.0234 29.5573 10.0742 29.5469 10.1289L29.4648 10.4609C29.444 10.5286 29.4206 10.5924 29.3945 10.6523C29.3685 10.7096 29.3385 10.7669 29.3047 10.8242C29.2917 10.8529 29.276 10.8776 29.2578 10.8984C29.2396 10.9167 29.2201 10.9349 29.1992 10.9531C29.181 10.9714 29.1628 10.9909 29.1445 11.0117C29.1289 11.0326 29.1172 11.0573 29.1094 11.0859C29.0755 11.1641 29.0052 11.2435 28.8984 11.3242C28.8464 11.3685 28.7917 11.4141 28.7344 11.4609C28.6771 11.5078 28.6211 11.5521 28.5664 11.5938C28.5456 11.6042 28.5247 11.6185 28.5039 11.6367C28.4857 11.6523 28.4661 11.6693 28.4453 11.6875C28.4271 11.7031 28.4076 11.7174 28.3867 11.7305C28.3659 11.7435 28.3424 11.7526 28.3164 11.7578H28.1875L28.0078 11.8438C27.9766 11.8542 27.9401 11.8607 27.8984 11.8633C27.8594 11.8633 27.8203 11.8633 27.7812 11.8633H27.6133L27.3555 11.8867L27.1562 11.8633L26.8555 11.8867C26.8529 11.8815 26.8398 11.875 26.8164 11.8672C26.7956 11.8594 26.7708 11.849 26.7422 11.8359C26.7083 11.8203 26.6706 11.806 26.6289 11.793C26.5898 11.7799 26.5534 11.7682 26.5195 11.7578L26.3984 11.7305C26.3333 11.7096 26.2734 11.694 26.2188 11.6836C26.1667 11.6706 26.138 11.6615 26.1328 11.6562C26.1146 11.6458 26.099 11.6315 26.0859 11.6133C26.0729 11.5924 26.0599 11.5729 26.0469 11.5547C26.0365 11.5339 26.0234 11.5143 26.0078 11.4961C25.9948 11.4779 25.9779 11.4635 25.957 11.4531C25.8763 11.4167 25.8008 11.3724 25.7305 11.3203C25.6602 11.2682 25.599 11.1992 25.5469 11.1133ZM30.9141 11.3125C30.9141 11.2812 30.9167 11.2357 30.9219 11.1758C30.9271 11.1133 30.9362 11.0521 30.9492 10.9922C30.9648 10.9323 30.9857 10.8802 31.0117 10.8359C31.0378 10.7917 31.0729 10.7695 31.1172 10.7695C31.125 10.7695 31.1315 10.7839 31.1367 10.8125C31.1419 10.8411 31.1471 10.875 31.1523 10.9141C31.1602 10.9505 31.1693 10.9857 31.1797 11.0195C31.1901 11.0534 31.2031 11.0742 31.2188 11.082C31.2526 11.0977 31.2747 11.1094 31.2852 11.1172C31.2956 11.125 31.3047 11.1471 31.3125 11.1836L31.4414 11.3711C31.4544 11.4023 31.4779 11.4245 31.5117 11.4375C31.5456 11.4505 31.5716 11.4688 31.5898 11.4922C31.6185 11.5339 31.6589 11.5651 31.7109 11.5859C31.763 11.6042 31.8216 11.6133 31.8867 11.6133L32 11.5938C32.0026 11.5911 32.0143 11.5898 32.0352 11.5898C32.0586 11.5872 32.082 11.5846 32.1055 11.582C32.1315 11.5794 32.1549 11.5781 32.1758 11.5781C32.1992 11.5755 32.2135 11.5742 32.2188 11.5742C32.2318 11.569 32.25 11.5638 32.2734 11.5586C32.2969 11.5508 32.3203 11.543 32.3438 11.5352C32.3672 11.5273 32.388 11.5195 32.4062 11.5117C32.4245 11.5039 32.4362 11.4974 32.4414 11.4922C32.444 11.4896 32.4557 11.4792 32.4766 11.4609C32.4974 11.4401 32.5208 11.4167 32.5469 11.3906C32.5729 11.3646 32.599 11.3385 32.625 11.3125C32.6536 11.2839 32.6758 11.2604 32.6914 11.2422C32.7122 11.2214 32.7253 11.2057 32.7305 11.1953C32.7357 11.1823 32.7383 11.1628 32.7383 11.1367V11.1016C32.7383 11 32.7201 10.9154 32.6836 10.8477C32.6471 10.7799 32.5911 10.7135 32.5156 10.6484C32.4531 10.5911 32.3893 10.5469 32.3242 10.5156C32.2591 10.4818 32.1914 10.4557 32.1211 10.4375C32.0534 10.4193 31.9818 10.4049 31.9062 10.3945C31.8307 10.3815 31.7526 10.3672 31.6719 10.3516C31.6432 10.349 31.6172 10.3398 31.5938 10.3242C31.5729 10.3086 31.5521 10.2917 31.5312 10.2734C31.513 10.2526 31.4948 10.2318 31.4766 10.2109C31.4583 10.1901 31.4401 10.1719 31.4219 10.1562L31.1836 10.0117C31.1289 9.97266 31.0872 9.92708 31.0586 9.875C31.0326 9.82031 31.0117 9.76302 30.9961 9.70312C30.9831 9.64323 30.9727 9.58203 30.9648 9.51953C30.957 9.45703 30.9466 9.39583 30.9336 9.33594L30.8789 9.21094C30.8789 9.1276 30.8906 9.05599 30.9141 8.99609C30.9375 8.9362 30.9661 8.8763 31 8.81641C31.0443 8.80599 31.0781 8.78255 31.1016 8.74609C31.125 8.70964 31.1523 8.67969 31.1836 8.65625C31.1862 8.64844 31.1953 8.63802 31.2109 8.625C31.2266 8.60938 31.2422 8.59375 31.2578 8.57812C31.2734 8.5599 31.2878 8.54297 31.3008 8.52734C31.3164 8.51172 31.3242 8.5 31.3242 8.49219C31.3372 8.48698 31.3529 8.47526 31.3711 8.45703C31.3893 8.4388 31.3984 8.42318 31.3984 8.41016C31.4062 8.41016 31.4193 8.40625 31.4375 8.39844C31.4557 8.39062 31.4753 8.38151 31.4961 8.37109C31.5169 8.36068 31.5365 8.35156 31.5547 8.34375C31.5755 8.33333 31.5911 8.32682 31.6016 8.32422C31.6068 8.32422 31.6172 8.32161 31.6328 8.31641C31.651 8.3112 31.6641 8.30729 31.6719 8.30469C31.6745 8.30469 31.6836 8.29948 31.6992 8.28906C31.7174 8.27604 31.7305 8.26953 31.7383 8.26953C31.7669 8.26953 31.7943 8.27604 31.8203 8.28906C31.849 8.29948 31.8776 8.30469 31.9062 8.30469L32.1562 8.26953L32.4688 8.31641L32.6914 8.41016C32.7201 8.41016 32.7526 8.39974 32.7891 8.37891C32.8255 8.35547 32.8581 8.34375 32.8867 8.34375C32.8945 8.34375 32.901 8.34635 32.9062 8.35156C32.9141 8.35156 32.9206 8.35417 32.9258 8.35938C32.9336 8.36198 32.9414 8.36589 32.9492 8.37109C32.9492 8.3763 32.9518 8.38672 32.957 8.40234C32.9596 8.41016 32.9635 8.41797 32.9688 8.42578C32.9688 8.46745 32.9583 8.5026 32.9375 8.53125C32.9167 8.55729 32.9062 8.58724 32.9062 8.62109L32.8984 8.72266C32.8984 8.74349 32.8971 8.76432 32.8945 8.78516C32.8945 8.80339 32.888 8.82031 32.875 8.83594C32.8672 8.8724 32.8633 8.92057 32.8633 8.98047C32.8659 9.04036 32.8633 9.09896 32.8555 9.15625C32.8477 9.21094 32.832 9.25911 32.8086 9.30078C32.7878 9.34245 32.7526 9.36328 32.7031 9.36328L32.6641 9.29688C32.6562 9.29167 32.651 9.27995 32.6484 9.26172C32.6458 9.24089 32.638 9.22786 32.625 9.22266C32.612 9.21224 32.5977 9.19401 32.582 9.16797C32.5664 9.14193 32.5508 9.11328 32.5352 9.08203C32.5221 9.04818 32.5091 9.01562 32.4961 8.98438C32.4857 8.95312 32.4766 8.92839 32.4688 8.91016L32.4141 8.86328C32.362 8.82422 32.3151 8.79557 32.2734 8.77734C32.2344 8.75911 32.1914 8.73177 32.1445 8.69531C32.1341 8.6849 32.1159 8.67969 32.0898 8.67969C32.0664 8.67708 32.0326 8.67578 31.9883 8.67578C31.9466 8.67578 31.8893 8.6849 31.8164 8.70312C31.7461 8.71875 31.6758 8.74219 31.6055 8.77344C31.5378 8.80469 31.4779 8.84245 31.4258 8.88672C31.3763 8.92839 31.3516 8.97526 31.3516 9.02734L31.3711 9.10938C31.3711 9.1224 31.3646 9.14583 31.3516 9.17969C31.3411 9.21354 31.332 9.23958 31.3242 9.25781C31.3242 9.28646 31.3281 9.30729 31.3359 9.32031C31.3438 9.33333 31.3542 9.34375 31.3672 9.35156C31.3828 9.35938 31.3984 9.36719 31.4141 9.375C31.4323 9.38281 31.4518 9.39714 31.4727 9.41797C31.4857 9.42839 31.4935 9.44271 31.4961 9.46094C31.5013 9.47656 31.5052 9.49349 31.5078 9.51172C31.5104 9.52995 31.513 9.54818 31.5156 9.56641C31.5208 9.58464 31.5312 9.60026 31.5469 9.61328C31.5755 9.63672 31.6172 9.65365 31.6719 9.66406C31.7292 9.67448 31.7786 9.68229 31.8203 9.6875H32.0352C32.0872 9.69271 32.1354 9.71224 32.1797 9.74609C32.2266 9.77995 32.2617 9.79948 32.2852 9.80469H32.5156L32.6367 9.88672C32.694 9.92318 32.7409 9.95964 32.7773 9.99609C32.8164 10.0299 32.849 10.0664 32.875 10.1055C32.9036 10.1445 32.9284 10.1888 32.9492 10.2383C32.9701 10.2852 32.9922 10.3411 33.0156 10.4062C33.0156 10.4062 33.0182 10.4115 33.0234 10.4219C33.0286 10.4323 33.0339 10.444 33.0391 10.457C33.0469 10.4674 33.0534 10.4779 33.0586 10.4883C33.0638 10.4987 33.0677 10.5052 33.0703 10.5078L33.0352 10.6289C33.0352 10.6315 33.0378 10.6419 33.043 10.6602C33.0482 10.6758 33.0547 10.694 33.0625 10.7148C33.0703 10.7331 33.0768 10.7526 33.082 10.7734C33.0872 10.7917 33.0898 10.8047 33.0898 10.8125V10.9453C33.0898 10.987 33.0859 11.0352 33.0781 11.0898C33.0703 11.1445 33.0586 11.2005 33.043 11.2578C33.0273 11.3125 33.0078 11.3659 32.9844 11.418C32.9609 11.4701 32.9349 11.513 32.9062 11.5469C32.9036 11.5521 32.8919 11.5651 32.8711 11.5859C32.8503 11.6068 32.8268 11.6315 32.8008 11.6602C32.7773 11.6862 32.7526 11.7122 32.7266 11.7383C32.7031 11.7617 32.6849 11.7786 32.6719 11.7891C32.6693 11.7917 32.6641 11.7956 32.6562 11.8008C32.6484 11.806 32.6393 11.8112 32.6289 11.8164C32.6185 11.8242 32.6055 11.8307 32.5898 11.8359L32.543 11.8984L32.4414 11.918C32.4388 11.918 32.431 11.9193 32.418 11.9219C32.4049 11.9219 32.3906 11.9232 32.375 11.9258C32.362 11.9284 32.349 11.931 32.3359 11.9336C32.3229 11.9362 32.3151 11.9375 32.3125 11.9375C32.2891 11.9453 32.2578 11.9609 32.2188 11.9844C32.1823 12.0078 32.151 12.0195 32.125 12.0195C32.0625 12.0169 32.0169 12.0143 31.9883 12.0117C31.9622 12.0091 31.9323 12.0052 31.8984 12H31.7656C31.7578 11.9974 31.7461 11.9948 31.7305 11.9922C31.7148 11.987 31.6979 11.9831 31.6797 11.9805C31.6615 11.9753 31.6445 11.9714 31.6289 11.9688C31.6133 11.9635 31.6042 11.9609 31.6016 11.9609C31.599 11.9583 31.5898 11.9544 31.5742 11.9492C31.5612 11.9414 31.5456 11.9336 31.5273 11.9258C31.5117 11.918 31.4974 11.9115 31.4844 11.9062C31.4714 11.901 31.4635 11.8984 31.4609 11.8984C31.4505 11.8932 31.431 11.8893 31.4023 11.8867C31.3737 11.8815 31.3568 11.8789 31.3516 11.8789L31.2852 11.8438C31.2539 11.8333 31.224 11.8229 31.1953 11.8125C31.1667 11.8021 31.1367 11.7891 31.1055 11.7734C31.0768 11.7552 31.0456 11.7331 31.0117 11.707C30.9779 11.6784 30.9401 11.6432 30.8984 11.6016C30.8958 11.5911 30.8932 11.5781 30.8906 11.5625C30.888 11.5469 30.8867 11.5326 30.8867 11.5195C30.8867 11.4779 30.8906 11.4388 30.8984 11.4023C30.9089 11.3633 30.9141 11.3333 30.9141 11.3125ZM33.6328 10.2891C33.6328 10.276 33.6354 10.2513 33.6406 10.2148C33.6458 10.1758 33.651 10.1354 33.6562 10.0938C33.6641 10.0495 33.6693 10.0078 33.6719 9.96875C33.6771 9.92969 33.6797 9.90365 33.6797 9.89062C33.6901 9.76562 33.7174 9.63802 33.7617 9.50781C33.8086 9.3776 33.8672 9.2526 33.9375 9.13281C34.0078 9.01042 34.0885 8.89844 34.1797 8.79688C34.2734 8.69531 34.375 8.60938 34.4844 8.53906C34.487 8.53385 34.5 8.52474 34.5234 8.51172C34.5495 8.4987 34.5768 8.48568 34.6055 8.47266C34.6341 8.45964 34.6615 8.44661 34.6875 8.43359C34.7135 8.42057 34.7292 8.41146 34.7344 8.40625C34.7526 8.39844 34.776 8.38542 34.8047 8.36719C34.8359 8.34635 34.8672 8.32682 34.8984 8.30859C34.9297 8.28776 34.9609 8.26953 34.9922 8.25391C35.0234 8.23828 35.0521 8.23047 35.0781 8.23047C35.1016 8.23047 35.1198 8.23307 35.1328 8.23828C35.1484 8.24349 35.1667 8.2513 35.1875 8.26172C35.2318 8.25651 35.2734 8.2526 35.3125 8.25C35.3542 8.24479 35.3958 8.24219 35.4375 8.24219C35.4818 8.24219 35.5234 8.24479 35.5625 8.25C35.6016 8.2526 35.6432 8.25651 35.6875 8.26172C35.6875 8.26172 35.6927 8.26432 35.7031 8.26953C35.7135 8.27214 35.7253 8.27604 35.7383 8.28125C35.7513 8.28646 35.7643 8.29167 35.7773 8.29688C35.7904 8.30208 35.8008 8.30599 35.8086 8.30859C35.8164 8.3112 35.832 8.31901 35.8555 8.33203C35.8789 8.34245 35.9049 8.35547 35.9336 8.37109C35.9622 8.38672 35.9896 8.40104 36.0156 8.41406C36.0417 8.42448 36.0599 8.43099 36.0703 8.43359C36.0703 8.4362 36.0794 8.4401 36.0977 8.44531C36.1159 8.45052 36.1276 8.45312 36.1328 8.45312L36.2891 8.53906L36.6406 8.85938C36.651 8.8724 36.6667 8.90755 36.6875 8.96484C36.7109 9.01953 36.7331 9.08073 36.7539 9.14844C36.7773 9.21354 36.7969 9.27604 36.8125 9.33594C36.8307 9.39583 36.8398 9.4349 36.8398 9.45312C36.8398 9.48958 36.8294 9.51953 36.8086 9.54297C36.7878 9.5638 36.763 9.58203 36.7344 9.59766C36.7057 9.61068 36.6745 9.62109 36.6406 9.62891C36.6094 9.63411 36.582 9.63802 36.5586 9.64062H36.543C36.5169 9.64323 36.474 9.64583 36.4141 9.64844C36.3568 9.65104 36.2956 9.65365 36.2305 9.65625C36.168 9.65625 36.1081 9.65755 36.0508 9.66016C35.9961 9.66016 35.9583 9.66016 35.9375 9.66016C35.9089 9.67318 35.8828 9.68099 35.8594 9.68359C35.8385 9.6862 35.8164 9.6875 35.793 9.6875L35.5156 9.66016C35.4635 9.66016 35.4089 9.66927 35.3516 9.6875C35.2969 9.70573 35.2435 9.71484 35.1914 9.71484C35.1576 9.71484 35.1237 9.70312 35.0898 9.67969C35.0586 9.65365 35.0234 9.64062 34.9844 9.64062C34.9792 9.64062 34.9648 9.64714 34.9414 9.66016C34.9206 9.67057 34.9049 9.67578 34.8945 9.67578L34.5977 9.65625C34.556 9.65625 34.5169 9.66406 34.4805 9.67969C34.444 9.69531 34.4023 9.72266 34.3555 9.76172C34.3477 9.82943 34.3424 9.88932 34.3398 9.94141C34.3372 9.99089 34.3359 10.0469 34.3359 10.1094C34.3359 10.1641 34.3385 10.2083 34.3438 10.2422C34.3516 10.276 34.362 10.3086 34.375 10.3398C34.388 10.3685 34.4036 10.3984 34.4219 10.4297C34.4401 10.4583 34.4609 10.4948 34.4844 10.5391L34.5234 10.6133C34.5911 10.7617 34.6784 10.8815 34.7852 10.9727C34.8919 11.0638 35.0299 11.1354 35.1992 11.1875C35.1992 11.2005 35.2174 11.2135 35.2539 11.2266C35.293 11.237 35.3359 11.2448 35.3828 11.25C35.4375 11.2604 35.5 11.2669 35.5703 11.2695C35.6562 11.2695 35.7448 11.2643 35.8359 11.2539C35.9271 11.2435 36.0156 11.2266 36.1016 11.2031C36.1875 11.1797 36.2682 11.1484 36.3438 11.1094C36.4219 11.0703 36.4883 11.0221 36.543 10.9648H36.6055C36.6367 10.9648 36.6576 10.9701 36.668 10.9805C36.681 10.9883 36.694 11.013 36.707 11.0547C36.6992 11.1302 36.6875 11.1979 36.6719 11.2578C36.6589 11.3151 36.6393 11.3672 36.6133 11.4141C36.5898 11.4609 36.5586 11.5052 36.5195 11.5469C36.4805 11.5859 36.4297 11.6263 36.3672 11.668C36.3464 11.6836 36.3268 11.6953 36.3086 11.7031C36.2904 11.7083 36.2734 11.7135 36.2578 11.7188C36.2422 11.724 36.2253 11.7318 36.207 11.7422C36.1914 11.7526 36.1732 11.7708 36.1523 11.7969L35.7344 12.0078L35.6875 12L35.3945 12.0469C35.1758 12.0469 34.9792 12.0156 34.8047 11.9531C34.6302 11.8906 34.474 11.8021 34.3359 11.6875C34.2005 11.5703 34.082 11.431 33.9805 11.2695C33.8815 11.1081 33.7969 10.9297 33.7266 10.7344C33.7031 10.6641 33.6888 10.5924 33.6836 10.5195C33.6784 10.444 33.6615 10.3672 33.6328 10.2891ZM34.4023 9.22266C34.4023 9.23568 34.4036 9.25521 34.4062 9.28125C34.4115 9.30729 34.418 9.33333 34.4258 9.35938C34.4336 9.38542 34.4427 9.40885 34.4531 9.42969C34.4635 9.45052 34.474 9.46224 34.4844 9.46484H34.6055L35.125 9.38281L35.457 9.41016C35.5143 9.41016 35.5651 9.40495 35.6094 9.39453C35.6562 9.38411 35.707 9.3724 35.7617 9.35938C35.8112 9.35156 35.8529 9.34505 35.8867 9.33984C35.9232 9.33203 35.9518 9.31901 35.9727 9.30078C35.9961 9.28255 36.013 9.25911 36.0234 9.23047C36.0339 9.19922 36.0391 9.15625 36.0391 9.10156C36.0391 9.01042 36.0143 8.93099 35.9648 8.86328C35.9154 8.79557 35.8529 8.73958 35.7773 8.69531C35.7044 8.64844 35.6237 8.61458 35.5352 8.59375C35.4492 8.57031 35.3685 8.55859 35.293 8.55859C35.2747 8.55859 35.2487 8.5638 35.2148 8.57422C35.181 8.58203 35.1419 8.59375 35.0977 8.60938C35.056 8.6224 35.0117 8.63802 34.9648 8.65625C34.9206 8.67188 34.8789 8.6901 34.8398 8.71094C34.8034 8.72917 34.7708 8.7474 34.7422 8.76562C34.7135 8.78125 34.6953 8.79557 34.6875 8.80859L34.6055 8.98438C34.5898 9.0026 34.5703 9.01953 34.5469 9.03516C34.5234 9.05078 34.5 9.06771 34.4766 9.08594C34.4557 9.10417 34.4375 9.125 34.4219 9.14844C34.4089 9.16927 34.4023 9.19401 34.4023 9.22266ZM37.293 11.7617C37.293 11.7409 37.306 11.7266 37.332 11.7188C37.3607 11.7083 37.3815 11.6966 37.3945 11.6836C37.4232 11.6523 37.4557 11.6302 37.4922 11.6172C37.5312 11.6042 37.5586 11.5938 37.5742 11.5859C37.5951 11.5729 37.6094 11.5573 37.6172 11.5391C37.625 11.5182 37.6432 11.5026 37.6719 11.4922L37.7656 11.4609C37.7812 11.4609 37.7943 11.4492 37.8047 11.4258C37.8151 11.4023 37.8216 11.3893 37.8242 11.3867C37.8216 11.3737 37.8203 11.3516 37.8203 11.3203C37.8203 11.2891 37.8203 11.2591 37.8203 11.2305C37.8203 11.194 37.8203 11.1615 37.8203 11.1328C37.8203 11.1016 37.8216 11.0755 37.8242 11.0547L37.8477 10.9375V10.3359C37.8477 10.3307 37.849 10.319 37.8516 10.3008C37.8542 10.2826 37.8568 10.263 37.8594 10.2422C37.862 10.2214 37.8646 10.2018 37.8672 10.1836C37.8698 10.1654 37.8724 10.1536 37.875 10.1484V10.1211C37.8724 10.1055 37.8698 10.082 37.8672 10.0508C37.8646 10.0169 37.862 9.98438 37.8594 9.95312C37.8568 9.91927 37.8542 9.88932 37.8516 9.86328C37.849 9.83724 37.8477 9.82161 37.8477 9.81641C37.8451 9.80859 37.8424 9.79557 37.8398 9.77734C37.8372 9.75911 37.8346 9.73958 37.832 9.71875C37.8294 9.69792 37.8268 9.67839 37.8242 9.66016C37.8242 9.64193 37.8242 9.62891 37.8242 9.62109C37.8164 9.58464 37.8034 9.54948 37.7852 9.51562C37.7669 9.48177 37.7461 9.45052 37.7227 9.42188C37.6992 9.39062 37.6745 9.36068 37.6484 9.33203C37.6224 9.30078 37.5977 9.27083 37.5742 9.24219C37.5716 9.24219 37.5625 9.23307 37.5469 9.21484C37.5312 9.19401 37.5234 9.18099 37.5234 9.17578L37.293 8.96094L37.4805 8.76953C37.4857 8.76693 37.4961 8.76172 37.5117 8.75391C37.5299 8.74609 37.5482 8.73828 37.5664 8.73047C37.5872 8.72005 37.6068 8.71094 37.625 8.70312C37.6458 8.69531 37.6615 8.6901 37.6719 8.6875C37.6771 8.68229 37.6875 8.67839 37.7031 8.67578C37.7214 8.67057 37.7396 8.66667 37.7578 8.66406C37.7786 8.66146 37.7969 8.66016 37.8125 8.66016C37.8307 8.65755 37.8424 8.65625 37.8477 8.65625C37.8971 8.64062 37.9414 8.61979 37.9805 8.59375C38.0221 8.5651 38.0625 8.53776 38.1016 8.51172C38.1406 8.48307 38.1797 8.45833 38.2188 8.4375C38.2604 8.41667 38.3073 8.40625 38.3594 8.40625H38.4219C38.4245 8.40885 38.4388 8.42318 38.4648 8.44922C38.4909 8.47266 38.5104 8.48958 38.5234 8.5C38.5417 8.52865 38.5508 8.5651 38.5508 8.60938C38.5508 8.65104 38.5521 8.69271 38.5547 8.73438C38.5573 8.77344 38.5664 8.80729 38.582 8.83594C38.5977 8.86458 38.6315 8.87891 38.6836 8.87891C38.6914 8.87891 38.6992 8.87891 38.707 8.87891C38.7174 8.87891 38.7227 8.8763 38.7227 8.87109C38.7331 8.86849 38.7474 8.86328 38.7656 8.85547C38.7839 8.84505 38.8021 8.83333 38.8203 8.82031C38.8411 8.80729 38.8594 8.79427 38.875 8.78125C38.8932 8.76823 38.9062 8.75781 38.9141 8.75L39.0742 8.62891C39.0794 8.6237 39.0964 8.61198 39.125 8.59375C39.1536 8.57292 39.1732 8.55729 39.1836 8.54688C39.1862 8.54688 39.1966 8.54688 39.2148 8.54688C39.2331 8.54427 39.2513 8.54297 39.2695 8.54297C39.2904 8.54036 39.3099 8.53776 39.3281 8.53516C39.3464 8.53255 39.3594 8.52995 39.3672 8.52734C39.3698 8.52734 39.3776 8.52474 39.3906 8.51953C39.4062 8.51432 39.4219 8.50911 39.4375 8.50391C39.4557 8.4987 39.4714 8.49349 39.4844 8.48828C39.4974 8.48307 39.5052 8.48047 39.5078 8.48047H39.5508C39.6107 8.48047 39.6589 8.4987 39.6953 8.53516C39.7344 8.57161 39.7695 8.61198 39.8008 8.65625C39.819 8.67969 39.8294 8.71354 39.832 8.75781C39.8372 8.79948 39.8464 8.83073 39.8594 8.85156C39.8594 8.85938 39.8633 8.86719 39.8711 8.875L39.8867 8.89062C39.8867 9.01562 39.8685 9.1276 39.832 9.22656C39.7982 9.32292 39.7396 9.40104 39.6562 9.46094C39.6328 9.46615 39.6055 9.47135 39.5742 9.47656C39.543 9.47917 39.5169 9.48047 39.4961 9.48047C39.4414 9.48047 39.401 9.47786 39.375 9.47266C39.349 9.46484 39.3294 9.45443 39.3164 9.44141C39.3034 9.42839 39.2917 9.41146 39.2812 9.39062C39.2734 9.36979 39.2591 9.34505 39.2383 9.31641C39.2201 9.29297 39.1979 9.27474 39.1719 9.26172C39.1484 9.24609 39.125 9.23568 39.1016 9.23047C39.0781 9.22266 39.056 9.21745 39.0352 9.21484C39.0169 9.21224 39.0052 9.21094 39 9.21094L38.832 9.18359L38.6914 9.22266L38.6445 9.28516C38.6315 9.28776 38.6133 9.30078 38.5898 9.32422C38.5664 9.34505 38.543 9.36979 38.5195 9.39844C38.4987 9.42448 38.4805 9.45312 38.4648 9.48438C38.4492 9.51302 38.4414 9.53646 38.4414 9.55469L38.4219 9.83594L38.4414 9.94531V10.1484C38.4414 10.1536 38.4427 10.1693 38.4453 10.1953C38.4505 10.2188 38.4557 10.237 38.4609 10.25L38.4336 10.6016L38.4609 10.7344C38.4609 10.7526 38.4557 10.7708 38.4453 10.7891C38.4375 10.8073 38.4336 10.8307 38.4336 10.8594L38.4609 10.9922L38.4336 11.1367C38.4336 11.1393 38.4336 11.1432 38.4336 11.1484C38.4336 11.1536 38.4362 11.1562 38.4414 11.1562C38.444 11.1719 38.4518 11.194 38.4648 11.2227C38.4805 11.2513 38.4961 11.2812 38.5117 11.3125C38.5299 11.3438 38.5456 11.3737 38.5586 11.4023C38.5742 11.4284 38.5846 11.4479 38.5898 11.4609C38.5898 11.4635 38.5924 11.4688 38.5977 11.4766C38.6029 11.4844 38.6094 11.4883 38.6172 11.4883C38.6406 11.5013 38.6628 11.5182 38.6836 11.5391C38.707 11.5599 38.7344 11.5755 38.7656 11.5859C38.7839 11.5938 38.8073 11.6016 38.8359 11.6094C38.8646 11.6146 38.8945 11.6211 38.9258 11.6289C38.9596 11.6367 38.9922 11.6458 39.0234 11.6562C39.0573 11.6667 39.0885 11.6797 39.1172 11.6953C39.1328 11.7161 39.1471 11.7409 39.1602 11.7695C39.1758 11.7982 39.1836 11.8294 39.1836 11.8633C39.1836 11.8919 39.1784 11.9128 39.168 11.9258C39.1602 11.9388 39.1471 11.9518 39.1289 11.9648C39.1133 11.9753 39.0872 11.9805 39.0508 11.9805L38.9258 11.9922C38.8815 11.9974 38.8411 12 38.8047 12C38.7708 12 38.7422 12 38.7188 12C38.6979 12 38.6745 11.9974 38.6484 11.9922C38.625 11.9844 38.599 11.9805 38.5703 11.9805C38.4974 11.9805 38.4284 11.9896 38.3633 12.0078C38.2982 12.0286 38.2318 12.0391 38.1641 12.0391L37.9883 11.9805L37.7383 12.0391H37.6719L37.6172 12C37.612 12 37.5977 11.9987 37.5742 11.9961C37.5508 11.9909 37.5169 11.9857 37.4727 11.9805C37.4622 11.9805 37.4518 11.9753 37.4414 11.9648C37.4336 11.9622 37.4206 11.9583 37.4023 11.9531C37.3867 11.9479 37.3607 11.9362 37.3242 11.918C37.3034 11.8893 37.293 11.862 37.293 11.8359V11.8242V11.7617Z" fill="white"/>
<path d="M33 24L29.5359 18H36.4641L33 24Z" fill="#D21E6A"/>
</svg>
